<?xml version="1.0" encoding="UTF-8"?>
<svg height="792pt" viewBox="0 0 612 792" version="1.1" xmlns:xlink="http://www.w3.org/1999/xlink" xmlns="http://www.w3.org/2000/svg" xmlns:inkscape="http://www.inkscape.org/namespaces/inkscape" width="612pt">
 <defs>
  <path d="M3.72 10.12 C3.72 10.12 2.95 10.12 2.35 9.84 C2.35 9.84 1.75 9.56 1.345 9.075 C1.345 9.075 0.94 8.59 0.73 7.93 C0.73 7.93 0.52 7.27 0.52 6.52 C0.52 6.52 0.52 5.63 0.775 4.955 C0.775 4.955 1.03 4.28 1.455 3.82 C1.455 3.82 1.88 3.36 2.43 3.13 C2.43 3.13 2.98 2.9 3.58 2.9 C3.58 2.9 3.91 2.9 4.16 2.965 C4.16 2.965 4.41 3.03 4.59 3.13 C4.59 3.13 4.77 3.23 4.89 3.355 C4.89 3.355 5.01 3.48 5.07 3.6 L5.13 3.6 L5.13 3.02 L6.36 3.02 L6.36 5.27 L5.13 5.27 L5.13 4.82 C5.13 4.82 5.13 4.31 4.8 4 C4.8 4 4.47 3.69 3.82 3.69 C3.82 3.69 3.18 3.69 2.8 4.08 C2.8 4.08 2.42 4.47 2.42 5.35 L2.42 7.46 C2.42 7.46 2.42 7.92 2.54 8.245 C2.54 8.245 2.66 8.57 2.875 8.78 C2.875 8.78 3.09 8.99 3.38 9.085 C3.38 9.085 3.67 9.18 4.01 9.18 C4.01 9.18 4.66 9.18 5.11 8.845 C5.11 8.845 5.56 8.51 5.79 7.94 L6.39 8.28 C6.39 8.28 6.25 8.67 6 9.01 C6 9.01 5.75 9.35 5.41 9.595 C5.41 9.595 5.07 9.84 4.64 9.98 C4.64 9.98 4.21 10.12 3.72 10.12 Z" id="GlIBMPlexSerif-Bold35"/>
  <path d="M0.27 9.32 L0.87 9.32 L0.87 3.47 L0.27 3.34 L0.27 2.74 L2.49 2.3 L2.49 5.59 L2.56 5.59 C2.56 5.59 2.7 5.18 3.065 4.905 C3.065 4.905 3.43 4.63 4.04 4.63 C4.04 4.63 5.01 4.63 5.415 5.115 C5.415 5.115 5.82 5.6 5.82 6.57 L5.82 9.32 L6.43 9.32 L6.43 10 L3.65 10 L3.65 9.32 L4.2 9.32 L4.2 6.62 C4.2 6.62 4.2 6.11 4.025 5.895 C4.025 5.895 3.85 5.68 3.42 5.68 C3.42 5.68 3.25 5.68 3.085 5.725 C3.085 5.725 2.92 5.77 2.785 5.86 C2.785 5.86 2.65 5.95 2.57 6.095 C2.57 6.095 2.49 6.24 2.49 6.44 L2.49 9.32 L3.04 9.32 L3.04 10 L0.27 10 L0.27 9.32 Z" id="GlIBMPlexSerif-Bold14"/>
  <path d="M1.77 4.11 C1.77 4.11 1.33 4.11 1.08 3.875 C1.08 3.875 0.83 3.64 0.83 3.23 L0.83 3.18 C0.83 3.18 0.83 2.77 1.08 2.535 C1.08 2.535 1.33 2.3 1.77 2.3 C1.77 2.3 2.22 2.3 2.47 2.535 C2.47 2.535 2.72 2.77 2.72 3.18 L2.72 3.23 C2.72 3.23 2.72 3.64 2.47 3.875 C2.47 3.875 2.22 4.11 1.77 4.11 L1.77 4.11 Z M0.37 9.32 L0.97 9.32 L0.97 5.8 L0.37 5.67 L0.37 5.07 L2.59 4.63 L2.59 9.32 L3.19 9.32 L3.19 10 L0.37 10 L0.37 9.32 Z" id="GlIBMPlexSerif-Bold15"/>
  <path d="" id="GlIBMPlexSerif-Bold3"/>
  <path d="M1.82 9.32 L2.79 9.32 L2.79 3.77 L1.51 3.77 L1.51 4.9 L0.28 4.9 L0.28 3.02 L7.02 3.02 L7.02 4.9 L5.79 4.9 L5.79 3.77 L4.51 3.77 L4.51 9.32 L5.48 9.32 L5.48 10 L1.82 10 L1.82 9.32 Z" id="GlIBMPlexSerif-Bold52"/>
  <path d="M3.02 10.12 C3.02 10.12 2.39 10.12 1.895 9.915 C1.895 9.915 1.4 9.71 1.065 9.34 C1.065 9.34 0.73 8.97 0.555 8.47 C0.555 8.47 0.38 7.97 0.38 7.37 C0.38 7.37 0.38 6.73 0.56 6.22 C0.56 6.22 0.74 5.71 1.075 5.36 C1.075 5.36 1.41 5.01 1.88 4.82 C1.88 4.82 2.35 4.63 2.93 4.63 C2.93 4.63 3.5 4.63 3.965 4.8 C3.965 4.8 4.43 4.97 4.75 5.285 C4.75 5.285 5.07 5.6 5.245 6.045 C5.245 6.045 5.42 6.49 5.42 7.05 L5.42 7.4 L2.09 7.4 L2.09 7.82 C2.09 7.82 2.09 8.47 2.44 8.795 C2.44 8.795 2.79 9.12 3.37 9.12 C3.37 9.12 3.91 9.12 4.245 8.875 C4.245 8.875 4.58 8.63 4.72 8.29 L5.3 8.63 C5.3 8.63 5.21 8.87 5.035 9.135 C5.035 9.135 4.86 9.4 4.585 9.62 C4.585 9.62 4.31 9.84 3.92 9.98 C3.92 9.98 3.53 10.12 3.02 10.12 L3.02 10.12 Z M2.09 6.75 L3.76 6.75 L3.76 6.61 C3.76 6.61 3.76 5.9 3.535 5.62 C3.535 5.62 3.31 5.34 2.94 5.34 C2.94 5.34 2.56 5.34 2.325 5.615 C2.325 5.615 2.09 5.89 2.09 6.61 L2.09 6.75 Z" id="GlIBMPlexSerif-Bold9"/>
  <path d="M2.72 10.12 C2.72 10.12 2.14 10.12 1.845 9.915 C1.845 9.915 1.55 9.71 1.48 9.46 L1.44 9.46 L1.44 10 L0.41 10 L0.41 8.44 L1.44 8.44 L1.44 8.6 C1.44 8.6 1.44 8.98 1.685 9.175 C1.685 9.175 1.93 9.37 2.48 9.37 C2.48 9.37 2.97 9.37 3.185 9.22 C3.185 9.22 3.4 9.07 3.4 8.78 C3.4 8.78 3.4 8.54 3.24 8.405 C3.24 8.405 3.08 8.27 2.7 8.17 L2.23 8.05 C2.23 8.05 1.32 7.82 0.9 7.405 C0.9 7.405 0.48 6.99 0.48 6.3 C0.48 6.3 0.48 5.5 1.015 5.065 C1.015 5.065 1.55 4.63 2.42 4.63 C2.42 4.63 2.97 4.63 3.26 4.835 C3.26 4.835 3.55 5.04 3.62 5.29 L3.66 5.29 L3.66 4.75 L4.69 4.75 L4.69 6.31 L3.66 6.31 L3.66 6.15 C3.66 6.15 3.66 5.77 3.42 5.575 C3.42 5.575 3.18 5.38 2.64 5.38 C2.64 5.38 2.27 5.38 2.085 5.52 C2.085 5.52 1.9 5.66 1.9 5.91 C1.9 5.91 1.9 6.17 2.05 6.315 C2.05 6.315 2.2 6.46 2.62 6.57 L3.05 6.68 C3.05 6.68 3.48 6.79 3.81 6.93 C3.81 6.93 4.14 7.07 4.365 7.27 C4.365 7.27 4.59 7.47 4.7 7.745 C4.7 7.745 4.81 8.02 4.81 8.41 C4.81 8.41 4.81 8.83 4.66 9.15 C4.66 9.15 4.51 9.47 4.23 9.685 C4.23 9.685 3.95 9.9 3.565 10.01 C3.565 10.01 3.18 10.12 2.72 10.12 Z" id="GlIBMPlexSerif-Bold25"/>
  <path d="M2.12 10.1 C2.12 10.1 0.91 10.1 0.91 9.05 L0.91 5.47 L0.2 5.47 L0.2 4.75 L0.49 4.75 C0.49 4.75 0.81 4.75 0.98 4.6 C0.98 4.6 1.15 4.45 1.29 4.16 L1.73 3.29 L2.53 3.29 L2.53 4.75 L3.69 4.75 L3.69 5.47 L2.53 5.47 L2.53 9.3 L3.69 9.3 L3.69 9.92 C3.69 9.92 3.52 9.98 3.095 10.04 C3.095 10.04 2.67 10.1 2.12 10.1 Z" id="GlIBMPlexSerif-Bold26"/>
  <path d="M0.37 9.32 L0.97 9.32 L0.97 5.8 L0.37 5.67 L0.37 5.07 L2.56 4.63 L2.56 5.61 L2.6 5.61 C2.6 5.61 2.74 5.19 3.06 4.91 C3.06 4.91 3.38 4.63 3.89 4.63 C3.89 4.63 4.4 4.63 4.68 4.9 C4.68 4.9 4.96 5.17 4.96 5.63 C4.96 5.63 4.96 6.05 4.745 6.28 C4.745 6.28 4.53 6.51 4.12 6.51 C4.12 6.51 3.74 6.51 3.545 6.315 C3.545 6.315 3.35 6.12 3.35 5.84 C3.35 5.84 3.35 5.73 3.4 5.635 C3.4 5.635 3.45 5.54 3.52 5.51 L3.5 5.45 C3.5 5.45 3.48 5.44 3.43 5.44 C3.43 5.44 3.28 5.44 3.13 5.53 C3.13 5.53 2.98 5.62 2.86 5.76 C2.86 5.76 2.74 5.9 2.665 6.065 C2.665 6.065 2.59 6.23 2.59 6.39 L2.59 9.32 L3.39 9.32 L3.39 10 L0.37 10 L0.37 9.32 Z" id="GlIBMPlexSerif-Bold24"/>
  <path d="M4.2 10.12 C4.2 10.12 3.36 10.12 2.775 9.96 C2.775 9.96 2.19 9.8 1.82 9.46 C1.82 9.46 1.45 9.12 1.28 8.59 C1.28 8.59 1.11 8.06 1.11 7.33 L1.11 3.7 L0.41 3.7 L0.41 3.02 L3.53 3.02 L3.53 3.7 L2.83 3.7 L2.83 7.34 C2.83 7.34 2.83 7.85 2.905 8.22 C2.905 8.22 2.98 8.59 3.16 8.835 C3.16 8.835 3.34 9.08 3.635 9.2 C3.635 9.2 3.93 9.32 4.38 9.32 C4.38 9.32 5.27 9.32 5.63 8.85 C5.63 8.85 5.99 8.38 5.99 7.37 L5.99 3.7 L5.29 3.7 L5.29 3.02 L7.51 3.02 L7.51 3.7 L6.81 3.7 L6.81 7.38 C6.81 7.38 6.81 8.72 6.19 9.42 C6.19 9.42 5.57 10.12 4.2 10.12 Z" id="GlIBMPlexSerif-Bold53"/>
  <path d="M3.72 10.12 C3.72 10.12 3.02 10.12 2.43 9.87 C2.43 9.87 1.84 9.62 1.415 9.155 C1.415 9.155 0.99 8.69 0.755 8.025 C0.755 8.025 0.52 7.36 0.52 6.52 C0.52 6.52 0.52 5.64 0.785 4.965 C0.785 4.965 1.05 4.29 1.51 3.83 C1.51 3.83 1.97 3.37 2.575 3.135 C2.575 3.135 3.18 2.9 3.87 2.9 C3.87 2.9 4.56 2.9 4.97 3.13 C4.97 3.13 5.38 3.36 5.51 3.6 L5.57 3.6 L5.57 3.02 L6.8 3.02 L6.8 5.27 L5.57 5.27 L5.57 4.82 C5.57 4.82 5.57 4.31 5.255 4 C5.255 4 4.94 3.69 4.22 3.69 C4.22 3.69 3.31 3.69 2.865 4.135 C2.865 4.135 2.42 4.58 2.42 5.54 L2.42 7.51 C2.42 7.51 2.42 8.4 2.805 8.85 C2.805 8.85 3.19 9.3 3.91 9.3 C3.91 9.3 4.62 9.3 4.935 8.95 C4.935 8.95 5.25 8.6 5.25 8.09 L5.25 7.14 L4.26 7.14 L4.26 6.46 L7.48 6.46 L7.48 7.14 L6.97 7.14 L6.97 10 L6.39 10 L5.74 9 L5.67 9 C5.67 9 5.62 9.16 5.455 9.355 C5.455 9.355 5.29 9.55 5.03 9.72 C5.03 9.72 4.77 9.89 4.435 10.005 C4.435 10.005 4.1 10.12 3.72 10.12 Z" id="GlIBMPlexSerif-Bold39"/>
  <path d="M2.6 10.12 C2.6 10.12 2.11 10.12 1.77 10 C1.77 10 1.43 9.88 1.22 9.635 C1.22 9.635 1.01 9.39 0.915 9.025 C0.915 9.025 0.82 8.66 0.82 8.18 L0.82 5.8 L0.22 5.67 L0.22 5.07 L2.44 4.63 L2.44 8.13 C2.44 8.13 2.44 8.64 2.62 8.855 C2.62 8.855 2.8 9.07 3.22 9.07 C3.22 9.07 3.39 9.07 3.56 9.025 C3.56 9.025 3.73 8.98 3.86 8.89 C3.86 8.89 3.99 8.8 4.07 8.655 C4.07 8.655 4.15 8.51 4.15 8.31 L4.15 5.8 L3.55 5.67 L3.55 5.07 L5.77 4.63 L5.77 8.95 L6.37 9.08 L6.37 9.68 L4.18 10.12 L4.18 9.12 L4.12 9.12 C4.12 9.12 3.98 9.53 3.615 9.825 C3.615 9.825 3.25 10.12 2.6 10.12 Z" id="GlIBMPlexSerif-Bold27"/>
  <path d="M2.54 10.12 C2.54 10.12 2.05 10.12 1.655 9.92 C1.655 9.92 1.26 9.72 0.985 9.36 C0.985 9.36 0.71 9 0.565 8.495 C0.565 8.495 0.42 7.99 0.42 7.38 C0.42 7.38 0.42 6.77 0.565 6.26 C0.565 6.26 0.71 5.75 0.985 5.39 C0.985 5.39 1.26 5.03 1.655 4.83 C1.655 4.83 2.05 4.63 2.54 4.63 C2.54 4.63 3.11 4.63 3.455 4.895 C3.455 4.895 3.8 5.16 3.94 5.51 L4 5.51 L4 3.47 L3.4 3.34 L3.4 2.74 L5.62 2.3 L5.62 8.94 L6.23 9.07 L6.23 9.67 L4 10.12 L4 9.22 L3.94 9.22 C3.94 9.22 3.8 9.57 3.44 9.845 C3.44 9.845 3.08 10.12 2.54 10.12 L2.54 10.12 Z M3.09 9.17 C3.09 9.17 3.49 9.17 3.745 8.92 C3.745 8.92 4 8.67 4 8.26 L4 6.48 C4 6.48 4 6.07 3.745 5.82 C3.745 5.82 3.49 5.57 3.09 5.57 C3.09 5.57 2.69 5.57 2.41 5.845 C2.41 5.845 2.13 6.12 2.13 6.66 L2.13 8.08 C2.13 8.08 2.13 8.62 2.41 8.895 C2.41 8.895 2.69 9.17 3.09 9.17 Z" id="GlIBMPlexSerif-Bold8"/>
  <path d="M0.49 9.44 L1.23 9.44 L1.23 3.58 L0.49 3.58 L0.49 3.02 L3.24 3.02 L3.24 3.58 L2.5 3.58 L2.5 6.65 L2.55 6.65 L3.58 5.53 L5.39 3.58 L4.65 3.58 L4.65 3.02 L7 3.02 L7 3.58 L6.26 3.58 L4.26 5.68 L6.67 9.44 L7.31 9.44 L7.31 10 L4.52 10 L4.52 9.44 L5.2 9.44 L3.38 6.54 L2.5 7.47 L2.5 9.44 L3.24 9.44 L3.24 10 L0.49 10 L0.49 9.44 Z" id="GlIBMPlexSerif-Medium43"/>
  <path d="M1.29 12.12 C1.29 12.12 0.72 12.12 0.435 11.86 C0.435 11.86 0.15 11.6 0.15 11.22 C0.15 11.22 0.15 10.91 0.325 10.725 C0.325 10.725 0.5 10.54 0.82 10.54 C0.82 10.54 1.11 10.54 1.275 10.72 C1.275 10.72 1.44 10.9 1.44 11.17 C1.44 11.17 1.44 11.32 1.375 11.43 C1.375 11.43 1.31 11.54 1.23 11.59 L1.24 11.63 C1.24 11.63 1.33 11.66 1.43 11.66 C1.43 11.66 1.97 11.66 2.37 10.65 L2.54 10.22 L0.55 5.37 L0.05 5.37 L0.05 4.8 L2.5 4.8 L2.5 5.37 L1.85 5.37 L3.12 8.75 L3.17 8.75 L4.39 5.37 L3.74 5.37 L3.74 4.8 L5.61 4.8 L5.61 5.37 L5.11 5.37 L2.94 10.72 C2.94 10.72 2.83 10.99 2.68 11.245 C2.68 11.245 2.53 11.5 2.335 11.695 C2.335 11.695 2.14 11.89 1.88 12.005 C1.88 12.005 1.62 12.12 1.29 12.12 Z" id="GlIBMPlexSerif-Medium31"/>
  <path d="M0.31 9.44 L1 9.44 L1 3.26 L0.31 3.13 L0.31 2.67 L2.2 2.3 L2.2 9.44 L2.89 9.44 L2.89 10 L0.31 10 L0.31 9.44 Z" id="GlIBMPlexSerif-Medium18"/>
  <path d="M2.93 10.12 C2.93 10.12 2.33 10.12 1.865 9.92 C1.865 9.92 1.4 9.72 1.075 9.36 C1.075 9.36 0.75 9 0.585 8.5 C0.585 8.5 0.42 8 0.42 7.4 C0.42 7.4 0.42 6.78 0.6 6.28 C0.6 6.28 0.78 5.78 1.105 5.425 C1.105 5.425 1.43 5.07 1.875 4.875 C1.875 4.875 2.32 4.68 2.86 4.68 C2.86 4.68 3.4 4.68 3.835 4.855 C3.835 4.855 4.27 5.03 4.575 5.35 C4.575 5.35 4.88 5.67 5.04 6.12 C5.04 6.12 5.2 6.57 5.2 7.11 L5.2 7.4 L1.72 7.4 L1.72 7.72 C1.72 7.72 1.72 8.47 2.11 8.885 C2.11 8.885 2.5 9.3 3.16 9.3 C3.16 9.3 3.75 9.3 4.1 9.055 C4.1 9.055 4.45 8.81 4.63 8.43 L5.09 8.7 C5.09 8.7 5 8.96 4.82 9.21 C4.82 9.21 4.64 9.46 4.375 9.665 C4.375 9.665 4.11 9.87 3.75 9.995 C3.75 9.995 3.39 10.12 2.93 10.12 L2.93 10.12 Z M1.72 6.85 L3.96 6.85 L3.96 6.73 C3.96 6.73 3.96 6.03 3.69 5.65 C3.69 5.65 3.42 5.27 2.87 5.27 C2.87 5.27 2.31 5.27 2.015 5.64 C2.015 5.64 1.72 6.01 1.72 6.71 L1.72 6.85 Z" id="GlIBMPlexSerif-Medium9"/>
  <path d="" id="GlIBMPlexSerif-Medium3"/>
  <path d="M0.49 9.44 L1.23 9.44 L1.23 3.58 L0.49 3.58 L0.49 3.02 L4.1 3.02 C4.1 3.02 5.15 3.02 5.685 3.5 C5.685 3.5 6.22 3.98 6.22 4.91 C6.22 4.91 6.22 5.64 5.8 6.075 C5.8 6.075 5.38 6.51 4.66 6.65 L5.9 8.78 C5.9 8.78 6.1 9.13 6.345 9.285 C6.345 9.285 6.59 9.44 6.94 9.44 L7.01 9.44 L7.01 10 L6.19 10 C6.19 10 5.86 10 5.63 9.94 C5.63 9.94 5.4 9.88 5.225 9.765 C5.225 9.765 5.05 9.65 4.915 9.475 C4.915 9.475 4.78 9.3 4.65 9.06 L3.47 6.88 L2.5 6.88 L2.5 9.44 L3.24 9.44 L3.24 10 L0.49 10 L0.49 9.44 L0.49 9.44 Z M2.5 6.26 L3.8 6.26 C3.8 6.26 4.33 6.26 4.615 5.975 C4.615 5.975 4.9 5.69 4.9 5.2 L4.9 4.7 C4.9 4.7 4.9 4.21 4.615 3.925 C4.615 3.925 4.33 3.64 3.8 3.64 L2.5 3.64 L2.5 6.26 Z" id="GlIBMPlexSerif-Medium50"/>
  <path d="M2.93 9.5 C2.93 9.5 3.55 9.5 3.84 9.125 C3.84 9.125 4.13 8.75 4.13 8.13 L4.13 6.67 C4.13 6.67 4.13 6.05 3.84 5.675 C3.84 5.675 3.55 5.3 2.93 5.3 C2.93 5.3 2.31 5.3 2.02 5.675 C2.02 5.675 1.73 6.05 1.73 6.67 L1.73 8.13 C1.73 8.13 1.73 8.75 2.02 9.125 C2.02 9.125 2.31 9.5 2.93 9.5 L2.93 9.5 Z M2.93 10.12 C2.93 10.12 2.37 10.12 1.905 9.93 C1.905 9.93 1.44 9.74 1.11 9.39 C1.11 9.39 0.78 9.04 0.6 8.535 C0.6 8.535 0.42 8.03 0.42 7.4 C0.42 7.4 0.42 6.77 0.6 6.265 C0.6 6.265 0.78 5.76 1.11 5.41 C1.11 5.41 1.44 5.06 1.905 4.87 C1.905 4.87 2.37 4.68 2.93 4.68 C2.93 4.68 3.49 4.68 3.955 4.87 C3.955 4.87 4.42 5.06 4.75 5.41 C4.75 5.41 5.08 5.76 5.26 6.265 C5.26 6.265 5.44 6.77 5.44 7.4 C5.44 7.4 5.44 8.03 5.26 8.535 C5.26 8.535 5.08 9.04 4.75 9.39 C4.75 9.39 4.42 9.74 3.955 9.93 C3.955 9.93 3.49 10.12 2.93 10.12 Z" id="GlIBMPlexSerif-Medium21"/>
  <path d="M1.73 3.86 C1.73 3.86 1.38 3.86 1.19 3.665 C1.19 3.665 1 3.47 1 3.17 L1 3.12 C1 3.12 1 2.82 1.19 2.625 C1.19 2.625 1.38 2.43 1.73 2.43 C1.73 2.43 2.08 2.43 2.27 2.625 C2.27 2.625 2.46 2.82 2.46 3.12 L2.46 3.17 C2.46 3.17 2.46 3.47 2.27 3.665 C2.27 3.665 2.08 3.86 1.73 3.86 L1.73 3.86 Z M0.44 9.44 L1.13 9.44 L1.13 5.64 L0.44 5.51 L0.44 5.05 L2.33 4.68 L2.33 9.44 L3.02 9.44 L3.02 10 L0.44 10 L0.44 9.44 Z" id="GlIBMPlexSerif-Medium15"/>
  <path d="M0.44 9.44 L1.13 9.44 L1.13 5.64 L0.44 5.51 L0.44 5.05 L2.3 4.68 L2.3 5.62 L2.35 5.62 C2.35 5.62 2.41 5.45 2.54 5.28 C2.54 5.28 2.67 5.11 2.855 4.975 C2.855 4.975 3.04 4.84 3.295 4.76 C3.295 4.76 3.55 4.68 3.87 4.68 C3.87 4.68 4.84 4.68 5.245 5.165 C5.245 5.165 5.65 5.65 5.65 6.62 L5.65 9.44 L6.34 9.44 L6.34 10 L3.78 10 L3.78 9.44 L4.45 9.44 L4.45 6.68 C4.45 6.68 4.45 6.06 4.205 5.765 C4.205 5.765 3.96 5.47 3.42 5.47 C3.42 5.47 3.22 5.47 3.025 5.525 C3.025 5.525 2.83 5.58 2.675 5.69 C2.675 5.69 2.52 5.8 2.425 5.97 C2.425 5.97 2.33 6.14 2.33 6.37 L2.33 9.44 L3 9.44 L3 10 L0.44 10 L0.44 9.44 Z" id="GlIBMPlexSerif-Medium20"/>
  <path d="M2.64 10.12 C2.64 10.12 2.12 10.12 1.795 9.92 C1.795 9.92 1.47 9.72 1.37 9.48 L1.33 9.48 L1.33 10 L0.52 10 L0.52 8.44 L1.33 8.44 L1.33 8.62 C1.33 8.62 1.33 9.03 1.585 9.265 C1.585 9.265 1.84 9.5 2.44 9.5 C2.44 9.5 2.98 9.5 3.25 9.325 C3.25 9.325 3.52 9.15 3.52 8.77 C3.52 8.77 3.52 8.2 2.74 8.02 L2.18 7.89 C2.18 7.89 1.36 7.71 0.96 7.31 C0.96 7.31 0.56 6.91 0.56 6.24 C0.56 6.24 0.56 5.5 1.06 5.09 C1.06 5.09 1.56 4.68 2.41 4.68 C2.41 4.68 2.92 4.68 3.225 4.85 C3.225 4.85 3.53 5.02 3.61 5.27 L3.65 5.27 L3.65 4.8 L4.46 4.8 L4.46 6.36 L3.65 6.36 L3.65 6.07 C3.65 6.07 3.65 5.69 3.395 5.495 C3.395 5.495 3.14 5.3 2.57 5.3 C2.57 5.3 2.12 5.3 1.88 5.47 C1.88 5.47 1.64 5.64 1.64 5.97 C1.64 5.97 1.64 6.58 2.43 6.76 L2.95 6.88 C2.95 6.88 3.77 7.07 4.185 7.44 C4.185 7.44 4.6 7.81 4.6 8.52 C4.6 8.52 4.6 8.88 4.46 9.175 C4.46 9.175 4.32 9.47 4.065 9.68 C4.065 9.68 3.81 9.89 3.45 10.005 C3.45 10.005 3.09 10.12 2.64 10.12 Z" id="GlIBMPlexSerif-Medium25"/>
  <path d="M2 10.12 C2 10.12 1.21 10.12 0.805 9.735 C0.805 9.735 0.4 9.35 0.4 8.67 C0.4 8.67 0.4 7.91 0.955 7.52 C0.955 7.52 1.51 7.13 2.75 7.13 L3.47 7.13 L3.47 6.47 C3.47 6.47 3.47 5.87 3.2 5.55 C3.2 5.55 2.93 5.23 2.35 5.23 C2.35 5.23 2.12 5.23 1.935 5.27 C1.935 5.27 1.75 5.31 1.61 5.37 L1.61 5.41 C1.61 5.41 1.72 5.46 1.825 5.58 C1.825 5.58 1.93 5.7 1.93 5.92 C1.93 5.92 1.93 6.22 1.75 6.4 C1.75 6.4 1.57 6.58 1.27 6.58 C1.27 6.58 0.97 6.58 0.79 6.4 C0.79 6.4 0.61 6.22 0.61 5.92 C0.61 5.92 0.61 5.68 0.745 5.46 C0.745 5.46 0.88 5.24 1.145 5.065 C1.145 5.065 1.41 4.89 1.805 4.785 C1.805 4.785 2.2 4.68 2.72 4.68 C2.72 4.68 3.68 4.68 4.175 5.125 C4.175 5.125 4.67 5.57 4.67 6.37 L4.67 9.45 L5.36 9.45 L5.36 9.92 C5.36 9.92 5.22 10 4.985 10.06 C4.985 10.06 4.75 10.12 4.49 10.12 C4.49 10.12 4.01 10.12 3.785 9.875 C3.785 9.875 3.56 9.63 3.56 9.25 L3.56 9.23 L3.51 9.23 C3.51 9.23 3.43 9.4 3.32 9.555 C3.32 9.555 3.21 9.71 3.035 9.84 C3.035 9.84 2.86 9.97 2.605 10.045 C2.605 10.045 2.35 10.12 2 10.12 L2 10.12 Z M2.48 9.39 C2.48 9.39 2.91 9.39 3.19 9.185 C3.19 9.185 3.47 8.98 3.47 8.52 L3.47 7.64 L2.87 7.64 C2.87 7.64 2.18 7.64 1.9 7.865 C1.9 7.865 1.62 8.09 1.62 8.52 L1.62 8.7 C1.62 8.7 1.62 9.05 1.85 9.22 C1.85 9.22 2.08 9.39 2.48 9.39 Z" id="GlIBMPlexSerif-Medium4"/>
  <path d="M2.61 10.12 C2.61 10.12 2.12 10.12 1.725 9.935 C1.725 9.935 1.33 9.75 1.05 9.4 C1.05 9.4 0.77 9.05 0.62 8.545 C0.62 8.545 0.47 8.04 0.47 7.4 C0.47 7.4 0.47 6.76 0.62 6.255 C0.62 6.255 0.77 5.75 1.05 5.4 C1.05 5.4 1.33 5.05 1.725 4.865 C1.725 4.865 2.12 4.68 2.61 4.68 C2.61 4.68 3.21 4.68 3.57 4.945 C3.57 4.945 3.93 5.21 4.09 5.57 L4.14 5.57 L4.14 3.26 L3.45 3.13 L3.45 2.67 L5.34 2.3 L5.34 9.16 L6.03 9.29 L6.03 9.75 L4.14 10.12 L4.14 9.23 L4.09 9.23 C4.09 9.23 3.94 9.59 3.575 9.855 C3.575 9.855 3.21 10.12 2.61 10.12 L2.61 10.12 Z M2.99 9.37 C2.99 9.37 3.21 9.37 3.42 9.305 C3.42 9.305 3.63 9.24 3.79 9.115 C3.79 9.115 3.95 8.99 4.045 8.815 C4.045 8.815 4.14 8.64 4.14 8.41 L4.14 6.39 C4.14 6.39 4.14 6.17 4.045 5.99 C4.045 5.99 3.95 5.81 3.79 5.685 C3.79 5.685 3.63 5.56 3.42 5.495 C3.42 5.495 3.21 5.43 2.99 5.43 C2.99 5.43 2.42 5.43 2.085 5.81 C2.085 5.81 1.75 6.19 1.75 6.85 L1.75 7.95 C1.75 7.95 1.75 8.61 2.085 8.99 C2.085 8.99 2.42 9.37 2.99 9.37 Z" id="GlIBMPlexSerif-Medium8"/>
  <path d="M0.15 9.44 L0.67 9.44 L2.93 3.02 L4.14 3.02 L6.4 9.44 L6.92 9.44 L6.92 10 L4.23 10 L4.23 9.44 L5.09 9.44 L4.52 7.79 L1.97 7.79 L1.42 9.44 L2.28 9.44 L2.28 10 L0.15 10 L0.15 9.44 L0.15 9.44 Z M2.15 7.21 L4.35 7.21 L3.28 4 L3.23 4 L2.15 7.21 Z" id="GlIBMPlexSerif-Medium33"/>
  <path d="M0.44 9.44 L1.13 9.44 L1.13 5.64 L0.44 5.51 L0.44 5.05 L2.3 4.68 L2.3 5.62 L2.35 5.62 C2.35 5.62 2.42 5.44 2.54 5.275 C2.54 5.275 2.66 5.11 2.845 4.975 C2.845 4.975 3.03 4.84 3.275 4.76 C3.275 4.76 3.52 4.68 3.83 4.68 C3.83 4.68 4.51 4.68 4.905 4.93 C4.905 4.93 5.3 5.18 5.45 5.68 L5.49 5.68 C5.49 5.68 5.57 5.5 5.705 5.32 C5.705 5.32 5.84 5.14 6.035 4.995 C6.035 4.995 6.23 4.85 6.49 4.765 C6.49 4.765 6.75 4.68 7.09 4.68 C7.09 4.68 8.04 4.68 8.435 5.165 C8.435 5.165 8.83 5.65 8.83 6.62 L8.83 9.44 L9.52 9.44 L9.52 10 L6.98 10 L6.98 9.44 L7.63 9.44 L7.63 6.68 C7.63 6.68 7.63 6.06 7.39 5.765 C7.39 5.765 7.15 5.47 6.64 5.47 C6.64 5.47 6.44 5.47 6.25 5.525 C6.25 5.525 6.06 5.58 5.91 5.69 C5.91 5.69 5.76 5.8 5.67 5.97 C5.67 5.97 5.58 6.14 5.58 6.37 L5.58 9.44 L6.23 9.44 L6.23 10 L3.73 10 L3.73 9.44 L4.38 9.44 L4.38 6.68 C4.38 6.68 4.38 6.06 4.14 5.765 C4.14 5.765 3.9 5.47 3.39 5.47 C3.39 5.47 3.19 5.47 3 5.525 C3 5.525 2.81 5.58 2.66 5.69 C2.66 5.69 2.51 5.8 2.42 5.97 C2.42 5.97 2.33 6.14 2.33 6.37 L2.33 9.44 L2.98 9.44 L2.98 10 L0.44 10 L0.44 9.44 Z" id="GlIBMPlexSerif-Medium19"/>
  <path d="M0.49 9.44 L1.23 9.44 L1.23 3.58 L0.49 3.58 L0.49 3.02 L3.24 3.02 L3.24 3.58 L2.5 3.58 L2.5 6.12 L5.66 6.12 L5.66 3.58 L4.92 3.58 L4.92 3.02 L7.67 3.02 L7.67 3.58 L6.93 3.58 L6.93 9.44 L7.67 9.44 L7.67 10 L4.92 10 L4.92 9.44 L5.66 9.44 L5.66 6.74 L2.5 6.74 L2.5 9.44 L3.24 9.44 L3.24 10 L0.49 10 L0.49 9.44 Z" id="GlIBMPlexSerif-Medium40"/>
  <path d="M2.75 12.12 C2.75 12.12 2.07 12.12 1.61 12.035 C1.61 12.035 1.15 11.95 0.87 11.795 C0.87 11.795 0.59 11.64 0.47 11.42 C0.47 11.42 0.35 11.2 0.35 10.92 C0.35 10.92 0.35 10.73 0.44 10.57 C0.44 10.57 0.53 10.41 0.685 10.285 C0.685 10.285 0.84 10.16 1.04 10.075 C1.04 10.075 1.24 9.99 1.46 9.94 L1.46 9.9 C1.46 9.9 1.12 9.81 0.93 9.575 C0.93 9.575 0.74 9.34 0.74 8.98 C0.74 8.98 0.74 8.55 1.025 8.305 C1.025 8.305 1.31 8.06 1.7 7.97 L1.7 7.92 C1.7 7.92 1.2 7.72 0.915 7.34 C0.915 7.34 0.63 6.96 0.63 6.4 C0.63 6.4 0.63 6 0.785 5.68 C0.785 5.68 0.94 5.36 1.225 5.135 C1.225 5.135 1.51 4.91 1.905 4.795 C1.905 4.795 2.3 4.68 2.77 4.68 C2.77 4.68 3.19 4.68 3.53 4.775 C3.53 4.775 3.87 4.87 4.14 5.03 C4.14 5.03 4.16 4.45 4.4 4.21 C4.4 4.21 4.64 3.97 5.01 3.97 C5.01 3.97 5.29 3.97 5.455 4.125 C5.455 4.125 5.62 4.28 5.62 4.54 C5.62 4.54 5.62 4.8 5.455 4.955 C5.455 4.955 5.29 5.11 5.01 5.11 C5.01 5.11 4.86 5.11 4.725 5.055 C4.725 5.055 4.59 5 4.5 4.89 L4.47 4.89 L4.47 5.27 C4.47 5.27 4.66 5.46 4.795 5.725 C4.795 5.725 4.93 5.99 4.93 6.39 C4.93 6.39 4.93 6.8 4.775 7.115 C4.775 7.115 4.62 7.43 4.335 7.655 C4.335 7.655 4.05 7.88 3.655 7.995 C3.655 7.995 3.26 8.11 2.78 8.11 C2.78 8.11 2.43 8.11 2.13 8.05 C2.13 8.05 1.92 8.11 1.78 8.255 C1.78 8.255 1.64 8.4 1.64 8.58 C1.64 8.58 1.64 8.81 1.815 8.91 C1.815 8.91 1.99 9.01 2.4 9.01 L3.59 9.01 C3.59 9.01 4.59 9.01 5.04 9.385 C5.04 9.385 5.49 9.76 5.49 10.42 C5.49 10.42 5.49 11.2 4.805 11.66 C4.805 11.66 4.12 12.12 2.75 12.12 L2.75 12.12 Z M2.78 7.55 C2.78 7.55 3.25 7.55 3.48 7.29 C3.48 7.29 3.71 7.03 3.71 6.55 L3.71 6.25 C3.71 6.25 3.71 5.77 3.48 5.51 C3.48 5.51 3.25 5.25 2.78 5.25 C2.78 5.25 2.31 5.25 2.08 5.51 C2.08 5.51 1.85 5.77 1.85 6.25 L1.85 6.55 C1.85 6.55 1.85 7.03 2.08 7.29 C2.08 7.29 2.31 7.55 2.78 7.55 L2.78 7.55 Z M1.35 10.83 C1.35 10.83 1.35 11.19 1.655 11.365 C1.655 11.365 1.96 11.54 2.54 11.54 L3.1 11.54 C3.1 11.54 3.77 11.54 4.135 11.335 C4.135 11.335 4.5 11.13 4.5 10.75 C4.5 10.75 4.5 10.4 4.255 10.245 C4.255 10.245 4.01 10.09 3.46 10.09 L1.8 10.09 C1.8 10.09 1.56 10.23 1.455 10.41 C1.455 10.41 1.35 10.59 1.35 10.83 Z" id="GlIBMPlexSerif-Medium11"/>
  <path d="M0.72 3.58 L0.2 3.58 L0.2 3.02 L2.89 3.02 L2.89 3.58 L2.03 3.58 L3.26 8.77 L3.3 8.77 L4.79 3.02 L5.91 3.02 L7.44 8.77 L7.48 8.77 L8.7 3.58 L7.84 3.58 L7.84 3.02 L9.97 3.02 L9.97 3.58 L9.45 3.58 L7.82 10 L6.6 10 L5.09 4.57 L5.05 4.57 L3.57 10 L2.35 10 L0.72 3.58 Z" id="GlIBMPlexSerif-Medium55"/>
  <path d="M3.64 10.12 C3.64 10.12 3.04 10.12 2.64 9.85 C2.64 9.85 2.24 9.58 2.09 9.21 L2.04 9.21 L1.43 10 L0.91 10 L0.91 3.26 L0.22 3.13 L0.22 2.67 L2.11 2.3 L2.11 5.57 L2.16 5.57 C2.16 5.57 2.32 5.21 2.68 4.945 C2.68 4.945 3.04 4.68 3.64 4.68 C3.64 4.68 4.13 4.68 4.525 4.865 C4.525 4.865 4.92 5.05 5.2 5.4 C5.2 5.4 5.48 5.75 5.63 6.255 C5.63 6.255 5.78 6.76 5.78 7.4 C5.78 7.4 5.78 8.04 5.63 8.545 C5.63 8.545 5.48 9.05 5.2 9.4 C5.2 9.4 4.92 9.75 4.525 9.935 C4.525 9.935 4.13 10.12 3.64 10.12 L3.64 10.12 Z M3.26 9.37 C3.26 9.37 3.83 9.37 4.165 8.99 C4.165 8.99 4.5 8.61 4.5 7.95 L4.5 6.85 C4.5 6.85 4.5 6.19 4.165 5.81 C4.165 5.81 3.83 5.43 3.26 5.43 C3.26 5.43 3.03 5.43 2.825 5.495 C2.825 5.495 2.62 5.56 2.46 5.685 C2.46 5.685 2.3 5.81 2.205 5.99 C2.205 5.99 2.11 6.17 2.11 6.39 L2.11 8.41 C2.11 8.41 2.11 8.64 2.205 8.815 C2.205 8.815 2.3 8.99 2.46 9.115 C2.46 9.115 2.62 9.24 2.825 9.305 C2.825 9.305 3.03 9.37 3.26 9.37 Z" id="GlIBMPlexSerif-Medium6"/>
  <path d="M0.44 9.44 L1.13 9.44 L1.13 5.64 L0.44 5.51 L0.44 5.05 L2.3 4.68 L2.3 5.61 L2.35 5.61 C2.35 5.61 2.49 5.25 2.8 4.965 C2.8 4.965 3.11 4.68 3.64 4.68 C3.64 4.68 4.12 4.68 4.4 4.92 C4.4 4.92 4.68 5.16 4.68 5.6 C4.68 5.6 4.68 5.96 4.495 6.16 C4.495 6.16 4.31 6.36 3.99 6.36 C3.99 6.36 3.67 6.36 3.485 6.19 C3.485 6.19 3.3 6.02 3.3 5.77 C3.3 5.77 3.3 5.6 3.375 5.48 C3.375 5.48 3.45 5.36 3.55 5.34 L3.54 5.31 C3.54 5.31 3.51 5.3 3.47 5.295 C3.47 5.295 3.43 5.29 3.36 5.29 C3.36 5.29 3.17 5.29 2.985 5.385 C2.985 5.385 2.8 5.48 2.655 5.635 C2.655 5.635 2.51 5.79 2.42 5.98 C2.42 5.98 2.33 6.17 2.33 6.35 L2.33 9.44 L3.22 9.44 L3.22 10 L0.44 10 L0.44 9.44 Z" id="GlIBMPlexSerif-Medium24"/>
  <path d="M3.13 10.12 C3.13 10.12 2.51 10.12 2.115 9.91 C2.115 9.91 1.72 9.7 1.58 9.41 L1.53 9.41 L1.53 10 L0.56 10 L0.56 7.96 L1.53 7.96 L1.53 8.4 C1.53 8.4 1.53 8.91 1.89 9.195 C1.89 9.195 2.25 9.48 3 9.48 C3 9.48 3.8 9.48 4.165 9.16 C4.165 9.16 4.53 8.84 4.53 8.3 C4.53 8.3 4.53 7.82 4.265 7.56 C4.265 7.56 4 7.3 3.34 7.15 L2.83 7.03 C2.83 7.03 2.33 6.92 1.935 6.745 C1.935 6.745 1.54 6.57 1.255 6.305 C1.255 6.305 0.97 6.04 0.82 5.68 C0.82 5.68 0.67 5.32 0.67 4.84 C0.67 4.84 0.67 4.41 0.835 4.05 C0.835 4.05 1 3.69 1.3 3.435 C1.3 3.435 1.6 3.18 2.03 3.04 C2.03 3.04 2.46 2.9 3 2.9 C3 2.9 3.6 2.9 3.97 3.1 C3.97 3.1 4.34 3.3 4.48 3.57 L4.54 3.57 L4.54 3.02 L5.51 3.02 L5.51 5.01 L4.54 5.01 L4.54 4.57 C4.54 4.57 4.54 4.06 4.19 3.8 C4.19 3.8 3.84 3.54 3.09 3.54 C3.09 3.54 2.39 3.54 2.055 3.845 C2.055 3.845 1.72 4.15 1.72 4.6 C1.72 4.6 1.72 5.08 2.025 5.345 C2.025 5.345 2.33 5.61 3.05 5.78 L3.52 5.88 C3.52 5.88 4.51 6.11 5.06 6.605 C5.06 6.605 5.61 7.1 5.61 7.98 C5.61 7.98 5.61 8.45 5.44 8.84 C5.44 8.84 5.27 9.23 4.955 9.515 C4.955 9.515 4.64 9.8 4.175 9.96 C4.175 9.96 3.71 10.12 3.13 10.12 Z" id="GlIBMPlexSerif-Medium51"/>
  <path d="M2.11 10.08 C2.11 10.08 1.51 10.08 1.265 9.84 C1.265 9.84 1.02 9.6 1.02 9.06 L1.02 5.41 L0.33 5.41 L0.33 4.8 L0.5 4.8 C0.5 4.8 0.69 4.8 0.82 4.77 C0.82 4.77 0.95 4.74 1.03 4.675 C1.03 4.675 1.11 4.61 1.165 4.515 C1.165 4.515 1.22 4.42 1.27 4.29 L1.6 3.41 L2.22 3.41 L2.22 4.8 L3.49 4.8 L3.49 5.41 L2.22 5.41 L2.22 9.4 L3.49 9.4 L3.49 9.87 C3.49 9.87 3.32 9.95 2.93 10.015 C2.93 10.015 2.54 10.08 2.11 10.08 Z" id="GlIBMPlexSerif-Medium26"/>
  <path d="M3.99 10.12 C3.99 10.12 3.23 10.12 2.695 9.965 C2.695 9.965 2.16 9.81 1.82 9.47 C1.82 9.47 1.48 9.13 1.325 8.6 C1.325 8.6 1.17 8.07 1.17 7.32 L1.17 3.58 L0.43 3.58 L0.43 3.02 L3.18 3.02 L3.18 3.58 L2.44 3.58 L2.44 7.42 C2.44 7.42 2.44 7.93 2.525 8.31 C2.525 8.31 2.61 8.69 2.805 8.94 C2.805 8.94 3 9.19 3.315 9.315 C3.315 9.315 3.63 9.44 4.1 9.44 C4.1 9.44 5.05 9.44 5.44 8.95 C5.44 8.95 5.83 8.46 5.83 7.43 L5.83 3.58 L5.09 3.58 L5.09 3.02 L7.25 3.02 L7.25 3.58 L6.51 3.58 L6.51 7.26 C6.51 7.26 6.51 7.98 6.37 8.515 C6.37 8.515 6.23 9.05 5.93 9.41 C5.93 9.41 5.63 9.77 5.15 9.945 C5.15 9.945 4.67 10.12 3.99 10.12 Z" id="GlIBMPlexSerif-Medium53"/>
  <path d="M0.55 5.37 L0.05 5.37 L0.05 4.8 L2.48 4.8 L2.48 5.37 L1.83 5.37 L3.09 8.87 L3.14 8.87 L4.35 5.37 L3.7 5.37 L3.7 4.8 L5.57 4.8 L5.57 5.37 L5.07 5.37 L3.27 10 L2.35 10 L0.55 5.37 Z" id="GlIBMPlexSerif-Medium28"/>
  <path d="M2.69 10.12 C2.69 10.12 2.16 10.12 1.755 10.015 C1.755 10.015 1.35 9.91 1.075 9.725 C1.075 9.725 0.8 9.54 0.66 9.29 C0.66 9.29 0.52 9.04 0.52 8.75 C0.52 8.75 0.52 8.45 0.705 8.24 C0.705 8.24 0.89 8.03 1.24 8.03 C1.24 8.03 1.59 8.03 1.775 8.24 C1.775 8.24 1.96 8.45 1.96 8.75 C1.96 8.75 1.96 8.96 1.85 9.125 C1.85 9.125 1.74 9.29 1.59 9.37 L1.59 9.4 C1.59 9.4 1.74 9.47 1.965 9.515 C1.965 9.515 2.19 9.56 2.46 9.56 C2.46 9.56 3.96 9.56 3.96 8.29 L3.96 7.94 C3.96 7.94 3.96 6.67 2.46 6.67 L1.75 6.67 L1.75 6.03 L2.43 6.03 C2.43 6.03 3.15 6.03 3.495 5.715 C3.495 5.715 3.84 5.4 3.84 4.89 L3.84 4.57 C3.84 4.57 3.84 4.03 3.505 3.745 C3.505 3.745 3.17 3.46 2.62 3.46 C2.62 3.46 2.34 3.46 2.13 3.505 C2.13 3.505 1.92 3.55 1.78 3.62 L1.78 3.65 C1.78 3.65 1.93 3.73 2.04 3.895 C2.04 3.895 2.15 4.06 2.15 4.27 C2.15 4.27 2.15 4.57 1.965 4.78 C1.965 4.78 1.78 4.99 1.43 4.99 C1.43 4.99 1.08 4.99 0.895 4.78 C0.895 4.78 0.71 4.57 0.71 4.27 C0.71 4.27 0.71 3.98 0.855 3.73 C0.855 3.73 1 3.48 1.275 3.295 C1.275 3.295 1.55 3.11 1.935 3.005 C1.935 3.005 2.32 2.9 2.8 2.9 C2.8 2.9 3.35 2.9 3.79 3.005 C3.79 3.005 4.23 3.11 4.545 3.33 C4.545 3.33 4.86 3.55 5.03 3.875 C5.03 3.875 5.2 4.2 5.2 4.63 C5.2 4.63 5.2 4.97 5.055 5.25 C5.055 5.25 4.91 5.53 4.675 5.74 C4.675 5.74 4.44 5.95 4.135 6.085 C4.135 6.085 3.83 6.22 3.52 6.28 L3.52 6.34 C3.52 6.34 3.85 6.39 4.17 6.515 C4.17 6.515 4.49 6.64 4.745 6.855 C4.745 6.855 5 7.07 5.16 7.375 C5.16 7.375 5.32 7.68 5.32 8.08 C5.32 8.08 5.32 9.02 4.63 9.57 C4.63 9.57 3.94 10.12 2.69 10.12 Z" id="GlIBMPlexSerif-Medium64"/>
  <path d="M3 10.12 C3 10.12 1.82 10.12 1.145 9.595 C1.145 9.595 0.47 9.07 0.47 8.13 C0.47 8.13 0.47 7.73 0.615 7.42 C0.615 7.42 0.76 7.11 1 6.9 C1 6.9 1.24 6.69 1.545 6.565 C1.545 6.565 1.85 6.44 2.17 6.4 L2.17 6.32 C2.17 6.32 1.9 6.28 1.635 6.155 C1.635 6.155 1.37 6.03 1.15 5.825 C1.15 5.825 0.93 5.62 0.795 5.335 C0.795 5.335 0.66 5.05 0.66 4.69 C0.66 4.69 0.66 4.26 0.825 3.93 C0.825 3.93 0.99 3.6 1.3 3.37 C1.3 3.37 1.61 3.14 2.04 3.02 C2.04 3.02 2.47 2.9 3 2.9 C3 2.9 3.53 2.9 3.96 3.02 C3.96 3.02 4.39 3.14 4.7 3.37 C4.7 3.37 5.01 3.6 5.175 3.93 C5.175 3.93 5.34 4.26 5.34 4.69 C5.34 4.69 5.34 5.05 5.205 5.335 C5.205 5.335 5.07 5.62 4.85 5.825 C4.85 5.825 4.63 6.03 4.365 6.155 C4.365 6.155 4.1 6.28 3.83 6.32 L3.83 6.4 C3.83 6.4 4.14 6.44 4.445 6.565 C4.445 6.565 4.75 6.69 4.99 6.9 C4.99 6.9 5.23 7.11 5.38 7.42 C5.38 7.42 5.53 7.73 5.53 8.13 C5.53 8.13 5.53 9.07 4.855 9.595 C4.855 9.595 4.18 10.12 3 10.12 L3 10.12 Z M3 9.54 C3 9.54 3.65 9.54 3.925 9.165 C3.925 9.165 4.2 8.79 4.2 8.2 L4.2 7.98 C4.2 7.98 4.2 7.39 3.925 7.015 C3.925 7.015 3.65 6.64 3 6.64 C3 6.64 2.35 6.64 2.075 7.015 C2.075 7.015 1.8 7.39 1.8 7.98 L1.8 8.2 C1.8 8.2 1.8 8.79 2.075 9.165 C2.075 9.165 2.35 9.54 3 9.54 L3 9.54 Z M3 6.06 C3 6.06 3.3 6.06 3.495 5.965 C3.495 5.965 3.69 5.87 3.81 5.705 C3.81 5.705 3.93 5.54 3.975 5.315 C3.975 5.315 4.02 5.09 4.02 4.84 L4.02 4.7 C4.02 4.7 4.02 4.45 3.975 4.225 C3.975 4.225 3.93 4 3.81 3.835 C3.81 3.835 3.69 3.67 3.495 3.575 C3.495 3.575 3.3 3.48 3 3.48 C3 3.48 2.7 3.48 2.505 3.575 C2.505 3.575 2.31 3.67 2.19 3.835 C2.19 3.835 2.07 4 2.025 4.225 C2.025 4.225 1.98 4.45 1.98 4.7 L1.98 4.84 C1.98 4.84 1.98 5.09 2.025 5.315 C2.025 5.315 2.07 5.54 2.19 5.705 C2.19 5.705 2.31 5.87 2.505 5.965 C2.505 5.965 2.7 6.06 3 6.06 Z" id="GlIBMPlexSerif-Medium69"/>
  <path d="M3.38 8.39 L0.33 8.39 L0.33 7.61 L3.34 3.02 L4.59 3.02 L4.59 7.49 L5.59 7.49 L5.59 8.39 L4.59 8.39 L4.59 10 L3.38 10 L3.38 8.39 L3.38 8.39 Z M1.06 7.49 L3.38 7.49 L3.38 4.04 L3.34 4.04 L1.06 7.49 Z" id="GlIBMPlexSerif-Medium65"/>
  <path d="M0.49 9.44 L1.23 9.44 L1.23 3.58 L0.49 3.58 L0.49 3.02 L4.03 3.02 C4.03 3.02 5.09 3.02 5.63 3.48 C5.63 3.48 6.17 3.94 6.17 4.67 C6.17 4.67 6.17 5.04 6.05 5.325 C6.05 5.325 5.93 5.61 5.725 5.81 C5.725 5.81 5.52 6.01 5.26 6.135 C5.26 6.135 5 6.26 4.73 6.31 L4.73 6.36 C4.73 6.36 5.01 6.39 5.315 6.5 C5.315 6.5 5.62 6.61 5.875 6.82 C5.875 6.82 6.13 7.03 6.29 7.335 C6.29 7.335 6.45 7.64 6.45 8.06 C6.45 8.06 6.45 8.97 5.875 9.485 C5.875 9.485 5.3 10 4.3 10 L0.49 10 L0.49 9.44 L0.49 9.44 Z M2.5 9.39 L3.93 9.39 C3.93 9.39 4.5 9.39 4.815 9.09 C4.815 9.09 5.13 8.79 5.13 8.28 L5.13 7.82 C5.13 7.82 5.13 7.31 4.815 7.01 C4.815 7.01 4.5 6.71 3.93 6.71 L2.5 6.71 L2.5 9.39 L2.5 9.39 Z M2.5 6.11 L3.76 6.11 C3.76 6.11 4.29 6.11 4.57 5.84 C4.57 5.84 4.85 5.57 4.85 5.09 L4.85 4.65 C4.85 4.65 4.85 4.17 4.57 3.9 C4.57 3.9 4.29 3.63 3.76 3.63 L2.5 3.63 L2.5 6.11 Z" id="GlIBMPlexSerif-Medium34"/>
  <path d="M0.38 11.39 C0.38 11.39 0.75 11.08 0.995 10.76 C0.995 10.76 1.24 10.44 1.33 10.12 L1.31 10.12 C1.31 10.12 1.01 10.12 0.815 9.9 C0.815 9.9 0.62 9.68 0.62 9.39 L0.62 9.32 C0.62 9.32 0.62 9.01 0.825 8.79 C0.825 8.79 1.03 8.57 1.4 8.57 C1.4 8.57 1.77 8.57 1.975 8.79 C1.975 8.79 2.18 9.01 2.18 9.32 L2.18 9.47 C2.18 9.47 2.18 9.73 2.095 9.995 C2.095 9.995 2.01 10.26 1.865 10.515 C1.865 10.515 1.72 10.77 1.52 10.995 C1.52 10.995 1.32 11.22 1.1 11.39 L0.38 11.39 Z" id="GlIBMPlexSerif-Medium81"/>
  <path d="M3.76 9.48 C3.76 9.48 4.61 9.48 5.105 8.92 C5.105 8.92 5.6 8.36 5.6 7.36 L5.6 5.66 C5.6 5.66 5.6 4.66 5.105 4.1 C5.105 4.1 4.61 3.54 3.76 3.54 C3.76 3.54 2.91 3.54 2.415 4.1 C2.415 4.1 1.92 4.66 1.92 5.66 L1.92 7.36 C1.92 7.36 1.92 8.36 2.415 8.92 C2.415 8.92 2.91 9.48 3.76 9.48 L3.76 9.48 Z M3.76 10.12 C3.76 10.12 3.05 10.12 2.45 9.875 C2.45 9.875 1.85 9.63 1.42 9.165 C1.42 9.165 0.99 8.7 0.75 8.03 C0.75 8.03 0.51 7.36 0.51 6.51 C0.51 6.51 0.51 5.66 0.75 4.99 C0.75 4.99 0.99 4.32 1.42 3.855 C1.42 3.855 1.85 3.39 2.45 3.145 C2.45 3.145 3.05 2.9 3.76 2.9 C3.76 2.9 4.47 2.9 5.07 3.145 C5.07 3.145 5.67 3.39 6.1 3.855 C6.1 3.855 6.53 4.32 6.77 4.99 C6.77 4.99 7.01 5.66 7.01 6.51 C7.01 6.51 7.01 7.36 6.77 8.03 C6.77 8.03 6.53 8.7 6.1 9.165 C6.1 9.165 5.67 9.63 5.07 9.875 C5.07 9.875 4.47 10.12 3.76 10.12 Z" id="GlIBMPlexSerif-Medium47"/>
 </defs>
 <g inkscape:groupmode="layer" id="Background" inkscape:label="Background">
  <path transform="translate(28.8, 28.8)" style="fill:#3c4c8f; fill-rule:evenodd;stroke:none;" d="M0 0 L554.4 0 L554.4 733.9 L0 733.9 L0 0 Z"/>
  <g transform="translate(28.8, 273.6)">
   <path style="fill:#ffffff; fill-rule:evenodd;" d="M0 0 L554.4 0 L554.4 122.4 L0 122.4 L0 0 Z"/>
   <use transform="matrix(2.8 0 0 2.8 121.925 43.77)" style="fill:#3c4c8f;stroke:none;" xlink:href="#GlIBMPlexSerif-Bold35"/>
   <use transform="matrix(2.8 0 0 2.8 140.925 43.77)" style="fill:#3c4c8f;stroke:none;" xlink:href="#GlIBMPlexSerif-Bold14"/>
   <use transform="matrix(2.8 0 0 2.8 159.625 43.77)" style="fill:#3c4c8f;stroke:none;" xlink:href="#GlIBMPlexSerif-Bold15"/>
   <use transform="matrix(2.8 0 0 2.8 169.325 43.77)" style="fill:#3c4c8f;stroke:none;" xlink:href="#GlIBMPlexSerif-Bold3"/>
   <use transform="matrix(2.8 0 0 2.8 175.825 43.77)" style="fill:#3c4c8f;stroke:none;" xlink:href="#GlIBMPlexSerif-Bold52"/>
   <use transform="matrix(2.8 0 0 2.8 194.925 43.77)" style="fill:#3c4c8f;stroke:none;" xlink:href="#GlIBMPlexSerif-Bold9"/>
   <use transform="matrix(2.8 0 0 2.8 211.125 43.77)" style="fill:#3c4c8f;stroke:none;" xlink:href="#GlIBMPlexSerif-Bold25"/>
   <use transform="matrix(2.8 0 0 2.8 225.525 43.77)" style="fill:#3c4c8f;stroke:none;" xlink:href="#GlIBMPlexSerif-Bold26"/>
   <use transform="matrix(2.8 0 0 2.8 236.325 43.77)" style="fill:#3c4c8f;stroke:none;" xlink:href="#GlIBMPlexSerif-Bold9"/>
   <use transform="matrix(2.8 0 0 2.8 252.525 43.77)" style="fill:#3c4c8f;stroke:none;" xlink:href="#GlIBMPlexSerif-Bold24"/>
   <use transform="matrix(2.8 0 0 2.8 266.725 43.77)" style="fill:#3c4c8f;stroke:none;" xlink:href="#GlIBMPlexSerif-Bold3"/>
   <use transform="matrix(2.8 0 0 2.8 273.225 43.77)" style="fill:#3c4c8f;stroke:none;" xlink:href="#GlIBMPlexSerif-Bold53"/>
   <use transform="matrix(2.8 0 0 2.8 294.825 43.77)" style="fill:#3c4c8f;stroke:none;" xlink:href="#GlIBMPlexSerif-Bold25"/>
   <use transform="matrix(2.8 0 0 2.8 309.425 43.77)" style="fill:#3c4c8f;stroke:none;" xlink:href="#GlIBMPlexSerif-Bold9"/>
   <use transform="matrix(2.8 0 0 2.8 325.625 43.77)" style="fill:#3c4c8f;stroke:none;" xlink:href="#GlIBMPlexSerif-Bold24"/>
   <use transform="matrix(2.8 0 0 2.8 339.825 43.77)" style="fill:#3c4c8f;stroke:none;" xlink:href="#GlIBMPlexSerif-Bold3"/>
   <use transform="matrix(2.8 0 0 2.8 346.325 43.77)" style="fill:#3c4c8f;stroke:none;" xlink:href="#GlIBMPlexSerif-Bold39"/>
   <use transform="matrix(2.8 0 0 2.8 368.625 43.77)" style="fill:#3c4c8f;stroke:none;" xlink:href="#GlIBMPlexSerif-Bold27"/>
   <use transform="matrix(2.8 0 0 2.8 387.225 43.77)" style="fill:#3c4c8f;stroke:none;" xlink:href="#GlIBMPlexSerif-Bold15"/>
   <use transform="matrix(2.8 0 0 2.8 396.925 43.77)" style="fill:#3c4c8f;stroke:none;" xlink:href="#GlIBMPlexSerif-Bold8"/>
   <use transform="matrix(2.8 0 0 2.8 415.125 43.77)" style="fill:#3c4c8f;stroke:none;" xlink:href="#GlIBMPlexSerif-Bold9"/>
   <path style="fill:none; stroke:none;" d="M0 0 L554.4 0 L554.4 122.4 L0 122.4 L0 0 Z"/>
  </g>
  <g transform="translate(167.4, 699.398)">
   <use transform="matrix(1.2 0 0 1.2 57.475 -0.348999)" style="fill:#ffffff;stroke:none;" xlink:href="#GlIBMPlexSerif-Medium43"/>
   <use transform="matrix(1.2 0 0 1.2 66.175 -0.348999)" style="fill:#ffffff;stroke:none;" xlink:href="#GlIBMPlexSerif-Medium31"/>
   <use transform="matrix(1.2 0 0 1.2 72.975 -0.348999)" style="fill:#ffffff;stroke:none;" xlink:href="#GlIBMPlexSerif-Medium18"/>
   <use transform="matrix(1.2 0 0 1.2 76.775 -0.348999)" style="fill:#ffffff;stroke:none;" xlink:href="#GlIBMPlexSerif-Medium9"/>
   <use transform="matrix(1.2 0 0 1.2 83.475 -0.348999)" style="fill:#ffffff;stroke:none;" xlink:href="#GlIBMPlexSerif-Medium3"/>
   <use transform="matrix(1.2 0 0 1.2 86.275 -0.348999)" style="fill:#ffffff;stroke:none;" xlink:href="#GlIBMPlexSerif-Medium50"/>
   <use transform="matrix(1.2 0 0 1.2 94.675 -0.348999)" style="fill:#ffffff;stroke:none;" xlink:href="#GlIBMPlexSerif-Medium21"/>
   <use transform="matrix(1.2 0 0 1.2 101.675 -0.348999)" style="fill:#ffffff;stroke:none;" xlink:href="#GlIBMPlexSerif-Medium18"/>
   <use transform="matrix(1.2 0 0 1.2 105.475 -0.348999)" style="fill:#ffffff;stroke:none;" xlink:href="#GlIBMPlexSerif-Medium18"/>
   <use transform="matrix(1.2 0 0 1.2 109.275 -0.348999)" style="fill:#ffffff;stroke:none;" xlink:href="#GlIBMPlexSerif-Medium15"/>
   <use transform="matrix(1.2 0 0 1.2 113.275 -0.348999)" style="fill:#ffffff;stroke:none;" xlink:href="#GlIBMPlexSerif-Medium20"/>
   <use transform="matrix(1.2 0 0 1.2 121.275 -0.348999)" style="fill:#ffffff;stroke:none;" xlink:href="#GlIBMPlexSerif-Medium25"/>
   <use transform="matrix(1.2 0 0 1.2 127.375 -0.348999)" style="fill:#ffffff;stroke:none;" xlink:href="#GlIBMPlexSerif-Medium3"/>
   <use transform="matrix(1.2 0 0 1.2 130.175 -0.348999)" style="fill:#ffffff;stroke:none;" xlink:href="#GlIBMPlexSerif-Medium4"/>
   <use transform="matrix(1.2 0 0 1.2 136.975 -0.348999)" style="fill:#ffffff;stroke:none;" xlink:href="#GlIBMPlexSerif-Medium20"/>
   <use transform="matrix(1.2 0 0 1.2 144.975 -0.348999)" style="fill:#ffffff;stroke:none;" xlink:href="#GlIBMPlexSerif-Medium8"/>
   <use transform="matrix(1.2 0 0 1.2 152.575 -0.348999)" style="fill:#ffffff;stroke:none;" xlink:href="#GlIBMPlexSerif-Medium3"/>
   <use transform="matrix(1.2 0 0 1.2 155.375 -0.348999)" style="fill:#ffffff;stroke:none;" xlink:href="#GlIBMPlexSerif-Medium33"/>
   <use transform="matrix(1.2 0 0 1.2 163.875 -0.348999)" style="fill:#ffffff;stroke:none;" xlink:href="#GlIBMPlexSerif-Medium19"/>
   <use transform="matrix(1.2 0 0 1.2 175.475 -0.348999)" style="fill:#ffffff;stroke:none;" xlink:href="#GlIBMPlexSerif-Medium31"/>
   <use transform="matrix(1.2 0 0 1.2 182.275 -0.348999)" style="fill:#ffffff;stroke:none;" xlink:href="#GlIBMPlexSerif-Medium3"/>
   <use transform="matrix(1.2 0 0 1.2 185.075 -0.348999)" style="fill:#ffffff;stroke:none;" xlink:href="#GlIBMPlexSerif-Medium40"/>
   <use transform="matrix(1.2 0 0 1.2 194.875 -0.348999)" style="fill:#ffffff;stroke:none;" xlink:href="#GlIBMPlexSerif-Medium15"/>
   <use transform="matrix(1.2 0 0 1.2 198.875 -0.348999)" style="fill:#ffffff;stroke:none;" xlink:href="#GlIBMPlexSerif-Medium11"/>
   <use transform="matrix(1.2 0 0 1.2 205.775 -0.348999)" style="fill:#ffffff;stroke:none;" xlink:href="#GlIBMPlexSerif-Medium11"/>
   <use transform="matrix(1.2 0 0 1.2 212.675 -0.348999)" style="fill:#ffffff;stroke:none;" xlink:href="#GlIBMPlexSerif-Medium25"/>
   <use transform="matrix(1.2 0 0 1.2 69.025 30.851)" style="fill:#ffffff;stroke:none;" xlink:href="#GlIBMPlexSerif-Medium55"/>
   <use transform="matrix(1.2 0 0 1.2 80.725 30.851)" style="fill:#ffffff;stroke:none;" xlink:href="#GlIBMPlexSerif-Medium9"/>
   <use transform="matrix(1.2 0 0 1.2 87.425 30.851)" style="fill:#ffffff;stroke:none;" xlink:href="#GlIBMPlexSerif-Medium6"/>
   <use transform="matrix(1.2 0 0 1.2 95.025 30.851)" style="fill:#ffffff;stroke:none;" xlink:href="#GlIBMPlexSerif-Medium9"/>
   <use transform="matrix(1.2 0 0 1.2 101.725 30.851)" style="fill:#ffffff;stroke:none;" xlink:href="#GlIBMPlexSerif-Medium24"/>
   <use transform="matrix(1.2 0 0 1.2 107.425 30.851)" style="fill:#ffffff;stroke:none;" xlink:href="#GlIBMPlexSerif-Medium3"/>
   <use transform="matrix(1.2 0 0 1.2 110.225 30.851)" style="fill:#ffffff;stroke:none;" xlink:href="#GlIBMPlexSerif-Medium51"/>
   <use transform="matrix(1.2 0 0 1.2 117.625 30.851)" style="fill:#ffffff;stroke:none;" xlink:href="#GlIBMPlexSerif-Medium26"/>
   <use transform="matrix(1.2 0 0 1.2 122.125 30.851)" style="fill:#ffffff;stroke:none;" xlink:href="#GlIBMPlexSerif-Medium4"/>
   <use transform="matrix(1.2 0 0 1.2 128.825 30.851)" style="fill:#ffffff;stroke:none;" xlink:href="#GlIBMPlexSerif-Medium26"/>
   <use transform="matrix(1.2 0 0 1.2 133.325 30.851)" style="fill:#ffffff;stroke:none;" xlink:href="#GlIBMPlexSerif-Medium9"/>
   <use transform="matrix(1.2 0 0 1.2 140.025 30.851)" style="fill:#ffffff;stroke:none;" xlink:href="#GlIBMPlexSerif-Medium3"/>
   <use transform="matrix(1.2 0 0 1.2 142.825 30.851)" style="fill:#ffffff;stroke:none;" xlink:href="#GlIBMPlexSerif-Medium53"/>
   <use transform="matrix(1.2 0 0 1.2 152.025 30.851)" style="fill:#ffffff;stroke:none;" xlink:href="#GlIBMPlexSerif-Medium20"/>
   <use transform="matrix(1.2 0 0 1.2 160.025 30.851)" style="fill:#ffffff;stroke:none;" xlink:href="#GlIBMPlexSerif-Medium15"/>
   <use transform="matrix(1.2 0 0 1.2 164.025 30.851)" style="fill:#ffffff;stroke:none;" xlink:href="#GlIBMPlexSerif-Medium28"/>
   <use transform="matrix(1.2 0 0 1.2 170.625 30.851)" style="fill:#ffffff;stroke:none;" xlink:href="#GlIBMPlexSerif-Medium9"/>
   <use transform="matrix(1.2 0 0 1.2 177.325 30.851)" style="fill:#ffffff;stroke:none;" xlink:href="#GlIBMPlexSerif-Medium24"/>
   <use transform="matrix(1.2 0 0 1.2 183.025 30.851)" style="fill:#ffffff;stroke:none;" xlink:href="#GlIBMPlexSerif-Medium25"/>
   <use transform="matrix(1.2 0 0 1.2 189.125 30.851)" style="fill:#ffffff;stroke:none;" xlink:href="#GlIBMPlexSerif-Medium15"/>
   <use transform="matrix(1.2 0 0 1.2 193.125 30.851)" style="fill:#ffffff;stroke:none;" xlink:href="#GlIBMPlexSerif-Medium26"/>
   <use transform="matrix(1.2 0 0 1.2 197.625 30.851)" style="fill:#ffffff;stroke:none;" xlink:href="#GlIBMPlexSerif-Medium31"/>
   <use transform="matrix(1.2 0 0 1.2 204.425 30.851)" style="fill:#ffffff;stroke:none;" xlink:href="#GlIBMPlexSerif-Medium3"/>
   <use transform="matrix(1.2 0 0 1.2 60.975 46.451)" style="fill:#ffffff;stroke:none;" xlink:href="#GlIBMPlexSerif-Medium64"/>
   <use transform="matrix(1.2 0 0 1.2 68.175 46.451)" style="fill:#ffffff;stroke:none;" xlink:href="#GlIBMPlexSerif-Medium69"/>
   <use transform="matrix(1.2 0 0 1.2 75.375 46.451)" style="fill:#ffffff;stroke:none;" xlink:href="#GlIBMPlexSerif-Medium65"/>
   <use transform="matrix(1.2 0 0 1.2 82.575 46.451)" style="fill:#ffffff;stroke:none;" xlink:href="#GlIBMPlexSerif-Medium69"/>
   <use transform="matrix(1.2 0 0 1.2 89.775 46.451)" style="fill:#ffffff;stroke:none;" xlink:href="#GlIBMPlexSerif-Medium3"/>
   <use transform="matrix(1.2 0 0 1.2 92.575 46.451)" style="fill:#ffffff;stroke:none;" xlink:href="#GlIBMPlexSerif-Medium40"/>
   <use transform="matrix(1.2 0 0 1.2 102.375 46.451)" style="fill:#ffffff;stroke:none;" xlink:href="#GlIBMPlexSerif-Medium4"/>
   <use transform="matrix(1.2 0 0 1.2 109.175 46.451)" style="fill:#ffffff;stroke:none;" xlink:href="#GlIBMPlexSerif-Medium24"/>
   <use transform="matrix(1.2 0 0 1.2 114.875 46.451)" style="fill:#ffffff;stroke:none;" xlink:href="#GlIBMPlexSerif-Medium24"/>
   <use transform="matrix(1.2 0 0 1.2 120.575 46.451)" style="fill:#ffffff;stroke:none;" xlink:href="#GlIBMPlexSerif-Medium25"/>
   <use transform="matrix(1.2 0 0 1.2 126.675 46.451)" style="fill:#ffffff;stroke:none;" xlink:href="#GlIBMPlexSerif-Medium21"/>
   <use transform="matrix(1.2 0 0 1.2 133.675 46.451)" style="fill:#ffffff;stroke:none;" xlink:href="#GlIBMPlexSerif-Medium20"/>
   <use transform="matrix(1.2 0 0 1.2 141.675 46.451)" style="fill:#ffffff;stroke:none;" xlink:href="#GlIBMPlexSerif-Medium3"/>
   <use transform="matrix(1.2 0 0 1.2 144.475 46.451)" style="fill:#ffffff;stroke:none;" xlink:href="#GlIBMPlexSerif-Medium34"/>
   <use transform="matrix(1.2 0 0 1.2 152.875 46.451)" style="fill:#ffffff;stroke:none;" xlink:href="#GlIBMPlexSerif-Medium18"/>
   <use transform="matrix(1.2 0 0 1.2 156.675 46.451)" style="fill:#ffffff;stroke:none;" xlink:href="#GlIBMPlexSerif-Medium28"/>
   <use transform="matrix(1.2 0 0 1.2 163.275 46.451)" style="fill:#ffffff;stroke:none;" xlink:href="#GlIBMPlexSerif-Medium8"/>
   <use transform="matrix(1.2 0 0 1.2 170.975 46.451)" style="fill:#ffffff;stroke:none;" xlink:href="#GlIBMPlexSerif-Medium81"/>
   <use transform="matrix(1.2 0 0 1.2 174.375 46.451)" style="fill:#ffffff;stroke:none;" xlink:href="#GlIBMPlexSerif-Medium3"/>
   <use transform="matrix(1.2 0 0 1.2 177.175 46.451)" style="fill:#ffffff;stroke:none;" xlink:href="#GlIBMPlexSerif-Medium47"/>
   <use transform="matrix(1.2 0 0 1.2 186.175 46.451)" style="fill:#ffffff;stroke:none;" xlink:href="#GlIBMPlexSerif-Medium11"/>
   <use transform="matrix(1.2 0 0 1.2 192.975 46.451)" style="fill:#ffffff;stroke:none;" xlink:href="#GlIBMPlexSerif-Medium8"/>
   <use transform="matrix(1.2 0 0 1.2 200.575 46.451)" style="fill:#ffffff;stroke:none;" xlink:href="#GlIBMPlexSerif-Medium9"/>
   <use transform="matrix(1.2 0 0 1.2 207.275 46.451)" style="fill:#ffffff;stroke:none;" xlink:href="#GlIBMPlexSerif-Medium20"/>
   <path style="fill:none; stroke:none;" d="M0 0 L277.2 0 L277.2 63.802 L0 63.802 L0 0 Z"/>
  </g>
 </g>
</svg>
