<?xml version="1.0" encoding="UTF-8" standalone="no"?>
<!-- Created with Inkscape (http://www.inkscape.org/) -->

<svg
   xmlns:dc="http://purl.org/dc/elements/1.1/"
   xmlns:cc="http://creativecommons.org/ns#"
   xmlns:rdf="http://www.w3.org/1999/02/22-rdf-syntax-ns#"
   xmlns:svg="http://www.w3.org/2000/svg"
   xmlns="http://www.w3.org/2000/svg"
   xmlns:sodipodi="http://sodipodi.sourceforge.net/DTD/sodipodi-0.dtd"
   xmlns:inkscape="http://www.inkscape.org/namespaces/inkscape"
   width="128.5119mm"
   height="78.619049mm"
   viewBox="0 0 128.5119 78.619049"
   version="1.1"
   id="svg8"
   inkscape:version="0.92.3 (2405546, 2018-03-11)"
   sodipodi:docname="first_post.svg">
  <defs
     id="defs2" />
  <sodipodi:namedview
     id="base"
     pagecolor="#ffffff"
     bordercolor="#666666"
     borderopacity="1.0"
     inkscape:pageopacity="0.0"
     inkscape:pageshadow="2"
     inkscape:zoom="1.979899"
     inkscape:cx="279.41219"
     inkscape:cy="151.9208"
     inkscape:document-units="mm"
     inkscape:current-layer="layer1"
     showgrid="false"
     inkscape:window-width="2400"
     inkscape:window-height="1271"
     inkscape:window-x="3191"
     inkscape:window-y="-9"
     inkscape:window-maximized="1" />
  <metadata
     id="metadata5">
    <rdf:RDF>
      <cc:Work
         rdf:about="">
        <dc:format>image/svg+xml</dc:format>
        <dc:type
           rdf:resource="http://purl.org/dc/dcmitype/StillImage" />
        <dc:title />
      </cc:Work>
    </rdf:RDF>
  </metadata>
  <g
     inkscape:label="Layer 1"
     inkscape:groupmode="layer"
     id="layer1"
     transform="translate(-28.726189,-63.410713)">
    <path
       style="fill:#00a5c0;fill-opacity:1;stroke:none;stroke-width:3.41291332;stroke-miterlimit:4;stroke-dasharray:none"
       d="M 0 0 L 0 297.14258 L 485.71484 297.14258 L 485.71484 0 L 0 0 z M 199.38672 76.429688 L 206.98828 76.429688 L 206.98828 148.11328 L 199.38672 148.11328 L 199.38672 76.429688 z M 222.97461 76.429688 L 230.57617 76.429688 L 230.57617 148.11328 L 222.97461 148.11328 L 222.97461 76.429688 z M 40.677734 79.332031 L 59.566406 79.332031 C 66.66107 79.332031 71.943513 80.975446 75.414062 84.261719 C 78.884612 87.547992 80.621094 92.506653 80.621094 99.140625 C 80.621094 103.47113 79.714401 107.06558 77.902344 109.92188 C 76.121 112.77817 73.495941 114.75957 70.025391 115.86523 C 71.837448 116.54092 73.588138 117.98399 75.277344 120.19531 C 76.966549 122.40664 78.670706 125.44659 80.390625 129.31641 L 88.912109 148.11328 L 79.882812 148.11328 L 71.958984 130.46875 C 69.931937 125.86183 67.952487 122.80571 66.017578 121.30078 C 64.113383 119.79585 61.502533 119.04297 58.185547 119.04297 L 49.0625 119.04297 L 49.0625 148.11328 L 40.677734 148.11328 L 40.677734 79.332031 z M 49.0625 86.978516 L 49.0625 111.39648 L 59.566406 111.39648 C 63.6205 111.39648 66.676615 110.36635 68.734375 108.30859 C 70.792135 106.22012 71.822266 103.16401 71.822266 99.140625 C 71.822266 95.117244 70.792135 92.093453 68.734375 90.066406 C 66.676615 88.008647 63.6205 86.978516 59.566406 86.978516 L 49.0625 86.978516 z M 114.52734 95.271484 C 120.76205 95.271484 125.69229 97.513973 129.31641 101.99805 C 132.97123 106.45141 134.79883 112.5171 134.79883 120.19531 L 134.79883 124.3418 L 99.693359 124.3418 C 100.0312 130.17723 101.61192 134.62989 104.4375 137.70117 C 107.29379 140.74174 111.24044 142.26172 116.27734 142.26172 C 119.22578 142.26172 122.06734 141.86299 124.80078 141.06445 C 127.56494 140.26592 130.29922 139.06777 133.00195 137.4707 L 133.00195 145.48633 C 130.26851 146.77627 127.45732 147.75986 124.57031 148.43555 C 121.71402 149.11123 118.81171 149.44922 115.86328 149.44922 C 108.43078 149.44922 102.54926 147.05292 98.21875 142.26172 C 93.918954 137.47052 91.769531 130.98993 91.769531 122.82031 C 91.769531 114.37428 93.811678 107.67914 97.896484 102.73438 C 102.012 97.758896 107.55553 95.271484 114.52734 95.271484 z M 163.68359 95.271484 C 170.4097 95.271484 175.43106 97.206355 178.74805 101.07617 C 182.06503 104.94599 183.72266 110.81134 183.72266 118.67383 L 183.72266 148.11328 L 176.07617 148.11328 L 176.07617 140.28125 C 174.35625 143.41396 172.19067 145.73335 169.58008 147.23828 C 167.0002 148.7125 163.8226 149.44922 160.04492 149.44922 C 155.28443 149.44922 151.50581 147.97382 148.71094 145.02539 C 145.91607 142.04625 144.51953 138.06923 144.51953 133.09375 C 144.51953 127.28902 146.25406 122.91328 149.72461 119.96484 C 153.22587 117.01641 158.44757 115.54297 165.38867 115.54297 L 176.07617 115.54297 L 176.07617 114.71289 C 176.07617 110.81236 174.92456 107.80278 172.62109 105.68359 C 170.31763 103.5337 167.07734 102.45898 162.90039 102.45898 C 160.25909 102.45898 157.67861 102.81118 155.16016 103.51758 C 152.6417 104.22397 150.21503 105.28448 147.88086 106.69727 L 147.88086 98.865234 C 150.67573 97.667434 153.37964 96.776903 155.99023 96.193359 C 158.63154 95.579103 161.19585 95.271484 163.68359 95.271484 z M 241.08008 96.515625 L 249.14258 96.515625 L 263.6543 136.87305 L 278.16602 96.515625 L 286.27344 96.515625 L 265.86523 152.9043 C 263.71534 159.04686 261.61049 163.05425 259.55273 164.92773 C 257.52569 166.80122 254.79335 167.73828 251.35352 167.73828 L 245.27148 167.73828 L 245.27148 160.64453 L 249.74023 160.64453 C 251.82871 160.64453 253.45791 160.09004 254.625 158.98438 C 255.79209 157.87871 257.08135 155.26982 258.49414 151.1543 L 259.87695 147.2832 L 241.08008 96.515625 z M 114.61914 102.45898 C 110.35006 102.45898 106.92558 103.79478 104.3457 106.4668 C 101.79654 109.13881 100.3373 112.90128 99.96875 117.75391 L 127.15039 117.70703 C 127.08896 113.06939 125.92119 109.36962 123.64844 106.60547 C 121.37569 103.84131 118.36611 102.45898 114.61914 102.45898 z M 168.52148 122.17578 C 162.34821 122.17578 158.06357 122.95904 155.66797 124.52539 C 153.30308 126.09175 152.11914 128.76334 152.11914 132.54102 C 152.11914 135.55087 153.01162 137.94717 154.79297 139.72852 C 156.57431 141.47915 158.99903 142.35352 162.07031 142.35352 C 166.30868 142.35352 169.70279 140.69589 172.25195 137.37891 C 174.80112 134.03121 176.07617 129.59276 176.07617 124.06445 L 176.07617 122.17578 L 168.52148 122.17578 z M 284.47656 136.41211 L 293.23047 136.41211 L 293.23047 148.11328 L 284.47656 148.11328 L 284.47656 136.41211 z M 82.371094 194.36719 L 89.972656 194.36719 L 89.972656 205.10156 L 82.371094 205.10156 L 82.371094 194.36719 z M 40.677734 197.26953 L 76.244141 197.26953 L 76.244141 205.10156 L 49.0625 205.10156 L 49.0625 225.37109 L 73.617188 225.37109 L 73.617188 233.20312 L 49.0625 233.20312 L 49.0625 266.05078 L 40.677734 266.05078 L 40.677734 197.26953 z M 245.59375 197.26953 L 264.48242 197.26953 C 271.42352 197.26953 276.66138 199.02022 280.19336 202.52148 C 283.75605 205.99203 285.53711 211.0903 285.53711 217.81641 C 285.53711 224.60394 283.75605 229.73258 280.19336 233.20312 C 276.66138 236.67367 271.42352 238.4082 264.48242 238.4082 L 253.97852 238.4082 L 253.97852 266.05078 L 245.59375 266.05078 L 245.59375 197.26953 z M 184.875 199.80273 L 192.56836 199.80273 L 192.56836 214.45312 L 208.2793 214.45312 L 208.2793 221.04102 L 192.56836 221.04102 L 192.56836 249.05078 C 192.56836 253.25844 193.07632 255.9604 194.08984 257.1582 C 195.13408 258.356 197.23697 258.95508 200.40039 258.95508 L 208.2793 258.95508 L 208.2793 266.05078 L 200.40039 266.05078 C 194.53424 266.05078 190.48032 264.83647 188.23828 262.41016 C 185.99624 259.95313 184.875 255.50048 184.875 249.05078 L 184.875 221.04102 L 179.30078 221.04102 L 179.30078 214.45312 L 184.875 214.45312 L 184.875 199.80273 z M 389.23828 199.80273 L 396.93164 199.80273 L 396.93164 214.45312 L 412.64258 214.45312 L 412.64258 221.04102 L 396.93164 221.04102 L 396.93164 249.05078 C 396.93164 253.25844 397.4396 255.9604 398.45312 257.1582 C 399.49736 258.356 401.60025 258.95508 404.76367 258.95508 L 412.64258 258.95508 L 412.64258 266.05078 L 404.76367 266.05078 C 398.89752 266.05078 394.8436 264.83647 392.60156 262.41016 C 390.35953 259.95313 389.23828 255.50048 389.23828 249.05078 L 389.23828 221.04102 L 383.66406 221.04102 L 383.66406 214.45312 L 389.23828 214.45312 L 389.23828 199.80273 z M 253.97852 204.91602 L 253.97852 230.76172 L 264.48242 230.76172 C 268.38295 230.76172 271.39253 229.64047 273.51172 227.39844 C 275.66162 225.1564 276.73828 221.96264 276.73828 217.81641 C 276.73828 213.70089 275.66162 210.52133 273.51172 208.2793 C 271.39253 206.03726 268.38295 204.91602 264.48242 204.91602 L 253.97852 204.91602 z M 128.94727 213.20898 C 129.46938 213.20898 130.0523 213.25552 130.69727 213.34766 C 131.34224 213.40908 132.04859 213.51636 132.81641 213.66992 L 132.86328 222.37695 C 132.00332 221.82412 131.06626 221.42539 130.05273 221.17969 C 129.03921 220.90327 127.93413 220.76367 126.73633 220.76367 C 122.40582 220.76367 119.08862 222.33018 116.78516 225.46289 C 114.48169 228.56489 113.33008 233.0337 113.33008 238.86914 L 113.33008 266.05078 L 105.63672 266.05078 L 105.63672 214.45312 L 113.33008 214.45312 L 113.33008 222.46875 C 114.92715 219.33604 117.01583 217.01665 119.5957 215.51172 C 122.17558 213.97608 125.29244 213.20898 128.94727 213.20898 z M 155.5293 213.20898 C 158.35488 213.20898 161.01226 213.4397 163.5 213.90039 C 165.98774 214.36108 168.27481 215.05127 170.36328 215.97266 L 170.36328 223.98828 C 168.21338 222.75977 165.97089 221.83887 163.63672 221.22461 C 161.33326 220.61035 158.93891 220.30273 156.45117 220.30273 C 152.67349 220.30273 149.83193 220.94834 147.92773 222.23828 C 146.02354 223.52822 145.07227 225.46309 145.07227 228.04297 C 145.07227 230.00859 145.74629 231.55894 147.09766 232.69531 C 148.47973 233.80097 151.21402 234.86148 155.29883 235.875 L 157.87891 236.51953 C 163.31508 237.80947 167.16866 239.63707 169.44141 242.00195 C 171.71416 244.33613 172.85156 247.6068 172.85156 251.81445 C 172.85156 256.60565 171.14741 260.39849 167.73828 263.19336 C 164.32916 265.98823 159.64384 267.38672 153.68555 267.38672 C 151.19781 267.38672 148.60312 267.10947 145.90039 266.55664 C 143.19766 266.03452 140.3561 265.23706 137.37695 264.16211 L 137.37695 255.4082 C 140.20253 257.03598 142.98335 258.2645 145.7168 259.09375 C 148.45024 259.89228 151.1522 260.29102 153.82422 260.29102 C 157.41762 260.29102 160.18228 259.61504 162.11719 258.26367 C 164.0521 256.88159 165.01953 254.94672 165.01953 252.45898 C 165.01953 250.15552 164.31318 248.39062 162.90039 247.16211 C 161.51831 245.9336 158.4622 244.75161 153.73242 243.61523 L 151.10742 242.92383 C 146.37765 241.81817 142.95317 240.12822 140.83398 237.85547 C 138.74551 235.55201 137.70117 232.40478 137.70117 228.41211 C 137.70117 223.55948 139.25152 219.81123 142.35352 217.16992 C 145.45551 214.52862 149.84742 213.20898 155.5293 213.20898 z M 311.15039 213.20898 C 317.78436 213.20898 322.99185 215.60528 326.76953 220.39648 C 330.57792 225.18769 332.48047 231.82013 332.48047 240.29688 C 332.48047 248.7429 330.57792 255.3773 326.76953 260.19922 C 322.99185 264.99042 317.78436 267.38672 311.15039 267.38672 C 304.48571 267.38672 299.26596 264.99042 295.48828 260.19922 C 291.74132 255.3773 289.86719 248.7429 289.86719 240.29688 C 289.86719 231.82013 291.74132 225.18769 295.48828 220.39648 C 299.26596 215.60528 304.48571 213.20898 311.15039 213.20898 z M 359.89258 213.20898 C 362.71816 213.20898 365.37554 213.4397 367.86328 213.90039 C 370.35102 214.36108 372.63809 215.05127 374.72656 215.97266 L 374.72656 223.98828 C 372.57666 222.75977 370.33418 221.83887 368 221.22461 C 365.69654 220.61035 363.30219 220.30273 360.81445 220.30273 C 357.03677 220.30273 354.19521 220.94834 352.29102 222.23828 C 350.38682 223.52822 349.43555 225.46309 349.43555 228.04297 C 349.43555 230.00859 350.10957 231.55894 351.46094 232.69531 C 352.84301 233.80097 355.5773 234.86148 359.66211 235.875 L 362.24219 236.51953 C 367.67836 237.80947 371.53194 239.63707 373.80469 242.00195 C 376.07744 244.33613 377.21484 247.6068 377.21484 251.81445 C 377.21484 256.60565 375.51069 260.39849 372.10156 263.19336 C 368.69244 265.98823 364.00712 267.38672 358.04883 267.38672 C 355.56109 267.38672 352.9664 267.10947 350.26367 266.55664 C 347.56094 266.03452 344.71938 265.23706 341.74023 264.16211 L 341.74023 255.4082 C 344.56581 257.03598 347.34664 258.2645 350.08008 259.09375 C 352.81352 259.89228 355.51548 260.29102 358.1875 260.29102 C 361.7809 260.29102 364.54556 259.61504 366.48047 258.26367 C 368.41538 256.88159 369.38281 254.94672 369.38281 252.45898 C 369.38281 250.15552 368.67646 248.39062 367.26367 247.16211 C 365.88159 245.9336 362.82548 244.75161 358.0957 243.61523 L 355.4707 242.92383 C 350.74093 241.81817 347.31645 240.12822 345.19727 237.85547 C 343.10879 235.55201 342.06445 232.40478 342.06445 228.41211 C 342.06445 223.55948 343.6148 219.81123 346.7168 217.16992 C 349.81879 214.52862 354.2107 213.20898 359.89258 213.20898 z M 82.371094 214.45312 L 89.972656 214.45312 L 89.972656 266.05078 L 82.371094 266.05078 L 82.371094 214.45312 z M 311.15039 220.39648 C 307.06558 220.39648 303.82529 222.17755 301.42969 225.74023 C 299.0648 229.27221 297.88281 234.1236 297.88281 240.29688 C 297.88281 246.47015 299.0648 251.33966 301.42969 254.90234 C 303.79458 258.43432 307.03487 260.19922 311.15039 260.19922 C 315.2352 260.19922 318.46128 258.41816 320.82617 254.85547 C 323.19106 251.29278 324.37305 246.43944 324.37305 240.29688 C 324.37305 234.18502 323.19106 229.34784 320.82617 225.78516 C 318.46128 222.19175 315.2352 220.39648 311.15039 220.39648 z M 423.79102 254.34961 L 432.54297 254.34961 L 432.54297 266.05078 L 423.79102 266.05078 L 423.79102 254.34961 z "
       transform="matrix(0.26458333,0,0,0.26458333,28.726189,63.410713)"
       id="rect815" />
  </g>
</svg>
