<?xml version="1.0" encoding="UTF-8" standalone="no"?>
<!-- Created with Inkscape (http://www.inkscape.org/) -->

<svg
   xmlns:dc="http://purl.org/dc/elements/1.1/"
   xmlns:cc="http://creativecommons.org/ns#"
   xmlns:rdf="http://www.w3.org/1999/02/22-rdf-syntax-ns#"
   xmlns:svg="http://www.w3.org/2000/svg"
   xmlns="http://www.w3.org/2000/svg"
   xmlns:sodipodi="http://sodipodi.sourceforge.net/DTD/sodipodi-0.dtd"
   xmlns:inkscape="http://www.inkscape.org/namespaces/inkscape"
   width="128.5119mm"
   height="78.619049mm"
   viewBox="0 0 128.5119 78.619049"
   version="1.1"
   id="svg8"
   inkscape:version="0.92.3 (2405546, 2018-03-11)"
   sodipodi:docname="sample_1.svg"
   inkscape:export-filename="C:\Users\boatl\Pictures\asset_share\first_post.png"
   inkscape:export-xdpi="6"
   inkscape:export-ydpi="6">
  <defs
     id="defs2" />
  <sodipodi:namedview
     id="base"
     pagecolor="#ffffff"
     bordercolor="#666666"
     borderopacity="1.0"
     inkscape:pageopacity="0.0"
     inkscape:pageshadow="2"
     inkscape:zoom="1.979899"
     inkscape:cx="257.54576"
     inkscape:cy="151.9208"
     inkscape:document-units="mm"
     inkscape:current-layer="layer1"
     showgrid="false"
     inkscape:window-width="2400"
     inkscape:window-height="1271"
     inkscape:window-x="3191"
     inkscape:window-y="-9"
     inkscape:window-maximized="1" />
  <metadata
     id="metadata5">
    <rdf:RDF>
      <cc:Work
         rdf:about="">
        <dc:format>image/svg+xml</dc:format>
        <dc:type
           rdf:resource="http://purl.org/dc/dcmitype/StillImage" />
        <dc:title />
      </cc:Work>
    </rdf:RDF>
  </metadata>
  <g
     inkscape:label="Layer 1"
     inkscape:groupmode="layer"
     id="layer1"
     transform="translate(-28.726189,-63.410713)">
    <g
       id="g883">
      <path
         style="fill:#ffffaa;fill-opacity:1;stroke:none;stroke-width:0.903;stroke-miterlimit:4;stroke-dasharray:none"
         d="M 28.592554,63.318886 H 157.14919 V 141.89612 H 28.592554 Z"
         id="rect818" />
      <g
         aria-label="Here's a sample.
Really."
         transform="matrix(0.33329472,0,0,0.33329472,21.056716,61.062625)"
         style="font-style:normal;font-weight:normal;font-size:40px;line-height:1.25;font-family:sans-serif;letter-spacing:0px;word-spacing:0px;fill:#000000;fill-opacity:1;stroke:none"
         id="flowRoot820">
        <path
           d="m 49.382812,41.238281 h 3.945313 V 53.191406 H 67.664062 V 41.238281 h 3.945313 V 70.398437 H 67.664062 V 56.511719 H 53.328125 v 13.886718 h -3.945313 z"
           style=""
           id="path886" />
        <path
           d="m 98.015625,58.5625 v 1.757812 H 81.492187 q 0.234375,3.710938 2.226563,5.664063 2.011719,1.933594 5.585937,1.933594 2.070313,0 4.003907,-0.507813 1.953125,-0.507812 3.867187,-1.523437 v 3.398437 q -1.933594,0.820313 -3.964844,1.25 -2.03125,0.429688 -4.121093,0.429688 -5.234375,0 -8.300782,-3.046875 -3.046875,-3.046875 -3.046875,-8.242188 0,-5.371094 2.890625,-8.515625 2.910157,-3.164062 7.832032,-3.164062 4.414062,0 6.972656,2.851562 2.578125,2.832031 2.578125,7.714844 z m -3.59375,-1.054688 q -0.03906,-2.949218 -1.660156,-4.707031 -1.601563,-1.757812 -4.257813,-1.757812 -3.007812,0 -4.824219,1.699218 -1.796875,1.699219 -2.070312,4.785157 z"
           style=""
           id="path888" />
        <path
           d="m 116.58984,51.882812 q -0.60546,-0.351562 -1.32812,-0.507812 -0.70313,-0.175781 -1.5625,-0.175781 -3.04688,0 -4.6875,1.992187 -1.62109,1.972656 -1.62109,5.683594 v 11.523437 h -3.61329 v -21.875 h 3.61329 v 3.398438 q 1.13281,-1.992188 2.94921,-2.949219 1.81641,-0.976562 4.41407,-0.976562 0.37109,0 0.82031,0.05859 0.44922,0.03906 0.99609,0.136719 z"
           style=""
           id="path890" />
        <path
           d="m 138.25,58.5625 v 1.757812 h -16.52344 q 0.23438,3.710938 2.22657,5.664063 2.01171,1.933594 5.58593,1.933594 2.07031,0 4.00391,-0.507813 1.95312,-0.507812 3.86719,-1.523437 v 3.398437 q -1.9336,0.820313 -3.96485,1.25 -2.03125,0.429688 -4.12109,0.429688 -5.23438,0 -8.30078,-3.046875 -3.04688,-3.046875 -3.04688,-8.242188 0,-5.371094 2.89063,-8.515625 2.91015,-3.164062 7.83203,-3.164062 4.41406,0 6.97265,2.851562 2.57813,2.832031 2.57813,7.714844 z m -3.59375,-1.054688 q -0.0391,-2.949218 -1.66016,-4.707031 -1.60156,-1.757812 -4.25781,-1.757812 -3.00781,0 -4.82422,1.699218 -1.79687,1.699219 -2.07031,4.785157 z"
           style=""
           id="path892" />
        <path
           d="m 147.54687,41.238281 v 10.839844 h -3.32031 V 41.238281 Z"
           style=""
           id="path894" />
        <path
           d="m 169.10937,49.167969 v 3.398437 q -1.52343,-0.78125 -3.16406,-1.171875 -1.64062,-0.390625 -3.39844,-0.390625 -2.67578,0 -4.02343,0.820313 -1.32813,0.820312 -1.32813,2.460937 0,1.25 0.95703,1.972656 0.95703,0.703125 3.84766,1.347657 l 1.23047,0.273437 q 3.82812,0.820313 5.42969,2.324219 1.62109,1.484375 1.62109,4.160156 0,3.046875 -2.42188,4.824219 -2.40234,1.777344 -6.62109,1.777344 -1.75781,0 -3.67187,-0.351563 -1.89454,-0.332031 -4.00391,-1.015625 v -3.710937 q 1.99219,1.035156 3.92578,1.5625 1.93359,0.507812 3.82813,0.507812 2.53906,0 3.90625,-0.859375 1.36718,-0.878906 1.36718,-2.460937 0,-1.464844 -0.99609,-2.246094 -0.97656,-0.78125 -4.31641,-1.503906 l -1.25,-0.292969 q -3.33984,-0.703125 -4.82422,-2.148438 -1.48437,-1.464843 -1.48437,-4.003906 0,-3.085937 2.1875,-4.765625 2.1875,-1.679687 6.21094,-1.679687 1.99218,0 3.75,0.292968 1.75781,0.292969 3.24218,0.878907 z"
           style=""
           id="path896" />
        <path
           d="m 198.69922,59.402344 q -4.35547,0 -6.03516,0.996093 -1.67969,0.996094 -1.67969,3.398438 0,1.914062 1.25,3.046875 1.26954,1.113281 3.4375,1.113281 2.98829,0 4.78516,-2.109375 1.81641,-2.128906 1.81641,-5.644531 v -0.800781 z m 7.16797,-1.484375 v 12.480468 h -3.59375 v -3.320312 q -1.23047,1.992187 -3.06641,2.949219 -1.83594,0.9375 -4.49219,0.9375 -3.35937,0 -5.35156,-1.875 -1.97266,-1.894532 -1.97266,-5.058594 0,-3.691406 2.46094,-5.566406 2.48047,-1.875 7.38281,-1.875 h 5.03907 v -0.351563 q 0,-2.480469 -1.64063,-3.828125 -1.62109,-1.367187 -4.57031,-1.367187 -1.875,0 -3.65234,0.449218 -1.77735,0.449219 -3.41797,1.347657 v -3.320313 q 1.97265,-0.761719 3.82812,-1.132812 1.85547,-0.390625 3.61328,-0.390625 4.7461,0 7.08985,2.460937 2.34375,2.460938 2.34375,7.460938 z"
           style=""
           id="path898" />
        <path
           d="m 239.96875,49.167969 v 3.398437 q -1.52344,-0.78125 -3.16406,-1.171875 -1.64063,-0.390625 -3.39844,-0.390625 -2.67578,0 -4.02344,0.820313 -1.32812,0.820312 -1.32812,2.460937 0,1.25 0.95703,1.972656 0.95703,0.703125 3.84765,1.347657 l 1.23047,0.273437 q 3.82813,0.820313 5.42969,2.324219 1.62109,1.484375 1.62109,4.160156 0,3.046875 -2.42187,4.824219 -2.40234,1.777344 -6.62109,1.777344 -1.75782,0 -3.67188,-0.351563 -1.89453,-0.332031 -4.00391,-1.015625 v -3.710937 q 1.99219,1.035156 3.92579,1.5625 1.93359,0.507812 3.82812,0.507812 2.53906,0 3.90625,-0.859375 1.36719,-0.878906 1.36719,-2.460937 0,-1.464844 -0.9961,-2.246094 -0.97656,-0.78125 -4.3164,-1.503906 l -1.25,-0.292969 q -3.33985,-0.703125 -4.82422,-2.148438 -1.48438,-1.464843 -1.48438,-4.003906 0,-3.085937 2.1875,-4.765625 2.1875,-1.679687 6.21094,-1.679687 1.99219,0 3.75,0.292968 1.75781,0.292969 3.24219,0.878907 z"
           style=""
           id="path900" />
        <path
           d="m 256.82422,59.402344 q -4.35547,0 -6.03516,0.996093 -1.67969,0.996094 -1.67969,3.398438 0,1.914062 1.25,3.046875 1.26954,1.113281 3.4375,1.113281 2.98829,0 4.78516,-2.109375 1.81641,-2.128906 1.81641,-5.644531 v -0.800781 z m 7.16797,-1.484375 v 12.480468 h -3.59375 v -3.320312 q -1.23047,1.992187 -3.06641,2.949219 -1.83594,0.9375 -4.49219,0.9375 -3.35937,0 -5.35156,-1.875 -1.97266,-1.894532 -1.97266,-5.058594 0,-3.691406 2.46094,-5.566406 2.48047,-1.875 7.38281,-1.875 h 5.03907 v -0.351563 q 0,-2.480469 -1.64063,-3.828125 -1.62109,-1.367187 -4.57031,-1.367187 -1.875,0 -3.65234,0.449218 -1.77735,0.449219 -3.41797,1.347657 v -3.320313 q 1.97265,-0.761719 3.82812,-1.132812 1.85547,-0.390625 3.61328,-0.390625 4.7461,0 7.08985,2.460937 2.34375,2.460938 2.34375,7.460938 z"
           style=""
           id="path902" />
        <path
           d="m 288.44531,52.722656 q 1.34766,-2.421875 3.22266,-3.574219 1.875,-1.152343 4.41406,-1.152343 3.41797,0 5.27344,2.402343 1.85547,2.382813 1.85547,6.796875 v 13.203125 h -3.61328 V 57.3125 q 0,-3.144531 -1.11329,-4.667969 -1.11328,-1.523437 -3.39843,-1.523437 -2.79297,0 -4.41407,1.855468 -1.62109,1.855469 -1.62109,5.058594 V 70.398437 H 285.4375 V 57.3125 q 0,-3.164063 -1.11328,-4.667969 -1.11328,-1.523437 -3.4375,-1.523437 -2.75391,0 -4.375,1.875 -1.6211,1.855468 -1.6211,5.039062 v 12.363281 h -3.61328 v -21.875 h 3.61328 v 3.398438 q 1.23047,-2.011719 2.94922,-2.96875 1.71875,-0.957031 4.08203,-0.957031 2.38282,0 4.04297,1.210937 1.67969,1.210938 2.48047,3.515625 z"
           style=""
           id="path904" />
        <path
           d="M 313.875,67.117187 V 78.71875 h -3.61328 V 48.523437 h 3.61328 v 3.320313 q 1.13281,-1.953125 2.85156,-2.890625 1.73828,-0.957031 4.14063,-0.957031 3.98437,0 6.46484,3.164062 2.5,3.164063 2.5,8.320313 0,5.15625 -2.5,8.320312 -2.48047,3.164063 -6.46484,3.164063 -2.40235,0 -4.14063,-0.9375 -1.71875,-0.957032 -2.85156,-2.910157 z m 12.22656,-7.636718 q 0,-3.964844 -1.64062,-6.210938 -1.6211,-2.265625 -4.47266,-2.265625 -2.85156,0 -4.49219,2.265625 -1.62109,2.246094 -1.62109,6.210938 0,3.964843 1.62109,6.230468 1.64063,2.246094 4.49219,2.246094 2.85156,0 4.47266,-2.246094 1.64062,-2.265625 1.64062,-6.230468 z"
           style=""
           id="path906" />
        <path
           d="m 335.78906,40.007812 h 3.59375 v 30.390625 h -3.59375 z"
           style=""
           id="path908" />
        <path
           d="m 365.59375,58.5625 v 1.757812 h -16.52344 q 0.23438,3.710938 2.22656,5.664063 2.01172,1.933594 5.58594,1.933594 2.07031,0 4.00391,-0.507813 1.95312,-0.507812 3.86719,-1.523437 v 3.398437 q -1.9336,0.820313 -3.96485,1.25 -2.03125,0.429688 -4.12109,0.429688 -5.23438,0 -8.30078,-3.046875 -3.04688,-3.046875 -3.04688,-8.242188 0,-5.371094 2.89063,-8.515625 2.91015,-3.164062 7.83203,-3.164062 4.41406,0 6.97265,2.851562 2.57813,2.832031 2.57813,7.714844 z M 362,57.507812 q -0.0391,-2.949218 -1.66016,-4.707031 -1.60156,-1.757812 -4.25781,-1.757812 -3.00781,0 -4.82422,1.699218 -1.79687,1.699219 -2.07031,4.785157 z"
           style=""
           id="path910" />
        <path
           d="m 372,65.4375 h 4.12109 v 4.960937 H 372 Z"
           style=""
           id="path912" />
        <path
           d="m 63.210937,106.72656 q 1.269532,0.42969 2.460938,1.83594 1.210937,1.40625 2.421875,3.86719 l 4.003906,7.96875 h -4.238281 l -3.730469,-7.48047 q -1.445312,-2.92969 -2.8125,-3.88672 -1.347656,-0.95703 -3.691406,-0.95703 h -4.296875 v 12.32422 H 49.382812 V 91.238281 h 8.90625 q 5,0 7.460938,2.089844 2.460937,2.089844 2.460937,6.308594 0,2.753911 -1.289062,4.570311 -1.269531,1.81641 -3.710938,2.51953 z M 53.328125,94.480469 v 10.351561 h 4.960937 q 2.851563,0 4.296875,-1.30859 1.464844,-1.32813 1.464844,-3.886721 0,-2.558594 -1.464844,-3.847657 -1.445312,-1.308593 -4.296875,-1.308593 z"
           style=""
           id="path914" />
        <path
           d="m 93.953125,108.5625 v 1.75781 H 77.429687 q 0.234375,3.71094 2.226563,5.66407 2.011719,1.93359 5.585937,1.93359 2.070313,0 4.003907,-0.50781 1.953125,-0.50782 3.867187,-1.52344 v 3.39844 q -1.933594,0.82031 -3.964844,1.25 -2.03125,0.42968 -4.121093,0.42968 -5.234375,0 -8.300782,-3.04687 -3.046875,-3.04688 -3.046875,-8.24219 0,-5.37109 2.890625,-8.51562 2.910157,-3.164066 7.832032,-3.164066 4.414062,0 6.972656,2.851566 2.578125,2.83203 2.578125,7.71484 z m -3.59375,-1.05469 q -0.03906,-2.94922 -1.660156,-4.70703 -1.601563,-1.75781 -4.257813,-1.75781 -3.007812,0 -4.824219,1.69922 -1.796875,1.69922 -2.070312,4.78515 z"
           style=""
           id="path916" />
        <path
           d="m 109.79297,109.40234 q -4.35547,0 -6.03516,0.9961 -1.67968,0.99609 -1.67968,3.39844 0,1.91406 1.25,3.04687 1.26953,1.11328 3.4375,1.11328 2.98828,0 4.78515,-2.10937 1.81641,-2.12891 1.81641,-5.64453 v -0.80079 z m 7.16797,-1.48437 v 12.48047 h -3.59375 v -3.32031 q -1.23047,1.99218 -3.06641,2.94921 -1.83594,0.9375 -4.49219,0.9375 -3.35937,0 -5.35156,-1.875 -1.972655,-1.89453 -1.972655,-5.05859 0,-3.69141 2.460935,-5.56641 2.48047,-1.875 7.38282,-1.875 h 5.03906 v -0.35156 q 0,-2.48047 -1.64063,-3.82812 -1.62109,-1.36719 -4.57031,-1.36719 -1.875,0 -3.65234,0.44922 -1.77735,0.44922 -3.41797,1.34765 v -3.320309 q 1.97265,-0.761719 3.82812,-1.132812 1.85547,-0.390625 3.61328,-0.390625 4.7461,0 7.08985,2.460936 2.34375,2.46094 2.34375,7.46094 z"
           style=""
           id="path918" />
        <path
           d="m 124.38281,90.007812 h 3.59375 v 30.390628 h -3.59375 z"
           style=""
           id="path920" />
        <path
           d="m 135.47656,90.007812 h 3.59375 v 30.390628 h -3.59375 z"
           style=""
           id="path922" />
        <path
           d="m 155.67187,122.42969 q -1.52343,3.90625 -2.96875,5.09765 -1.44531,1.19141 -3.86718,1.19141 h -2.8711 v -3.00781 h 2.10938 q 1.48437,0 2.30469,-0.70313 0.82031,-0.70312 1.8164,-3.32031 l 0.64453,-1.64062 -8.84765,-21.523443 h 3.80859 l 6.83594,17.109373 6.83594,-17.109373 h 3.80859 z"
           style=""
           id="path924" />
        <path
           d="m 165.04687,115.4375 h 4.1211 v 4.96094 h -4.1211 z"
           style=""
           id="path926" />
      </g>
    </g>
  </g>
</svg>
