<?xml version="1.0" encoding="UTF-8" standalone="no"?>
<!-- Created with Inkscape (http://www.inkscape.org/) -->

<svg
   xmlns:dc="http://purl.org/dc/elements/1.1/"
   xmlns:cc="http://creativecommons.org/ns#"
   xmlns:rdf="http://www.w3.org/1999/02/22-rdf-syntax-ns#"
   xmlns:svg="http://www.w3.org/2000/svg"
   xmlns="http://www.w3.org/2000/svg"
   xmlns:sodipodi="http://sodipodi.sourceforge.net/DTD/sodipodi-0.dtd"
   xmlns:inkscape="http://www.inkscape.org/namespaces/inkscape"
   width="128.5119mm"
   height="78.619049mm"
   viewBox="0 0 128.5119 78.619049"
   version="1.1"
   id="svg8"
   inkscape:version="0.92.3 (2405546, 2018-03-11)"
   sodipodi:docname="second_post.svg">
  <defs
     id="defs2" />
  <sodipodi:namedview
     id="base"
     pagecolor="#ffffff"
     bordercolor="#666666"
     borderopacity="1.0"
     inkscape:pageopacity="0.0"
     inkscape:pageshadow="2"
     inkscape:zoom="1.979899"
     inkscape:cx="194.30684"
     inkscape:cy="151.9208"
     inkscape:document-units="mm"
     inkscape:current-layer="layer1"
     showgrid="false"
     inkscape:window-width="2400"
     inkscape:window-height="1271"
     inkscape:window-x="3191"
     inkscape:window-y="-9"
     inkscape:window-maximized="1" />
  <metadata
     id="metadata5">
    <rdf:RDF>
      <cc:Work
         rdf:about="">
        <dc:format>image/svg+xml</dc:format>
        <dc:type
           rdf:resource="http://purl.org/dc/dcmitype/StillImage" />
        <dc:title></dc:title>
      </cc:Work>
    </rdf:RDF>
  </metadata>
  <g
     inkscape:label="Layer 1"
     inkscape:groupmode="layer"
     id="layer1"
     transform="translate(-28.726189,-63.410713)">
    <path
       style="fill:#00a55d;fill-opacity:1;stroke:none;stroke-width:3.41291332;stroke-miterlimit:4;stroke-dasharray:none"
       d="M 0 0 L 0 297.14258 L 485.71484 297.14258 L 485.71484 0 L 0 0 z M 202.65039 220.32031 L 207.45898 220.32031 L 207.45898 260.98438 L 202.65039 260.98438 L 202.65039 256.59375 C 201.63988 258.336 200.3592 259.63458 198.80859 260.48828 C 197.27541 261.32456 195.42797 261.74219 193.26758 261.74219 C 189.7308 261.74219 186.84727 260.33026 184.61719 257.50781 C 182.40452 254.68536 181.29883 250.97455 181.29883 246.375 C 181.29883 241.77545 182.40452 238.06464 184.61719 235.24219 C 186.84727 232.41974 189.7308 231.00977 193.26758 231.00977 C 195.42797 231.00977 197.27541 231.43536 198.80859 232.28906 C 200.3592 233.12534 201.63988 234.41595 202.65039 236.1582 L 202.65039 220.32031 z M 32.492188 221.26172 C 34.321554 221.26172 36.18688 221.42678 38.085938 221.75781 C 39.984995 222.08884 41.927893 222.58599 43.914062 223.24805 L 43.914062 228.39648 C 41.91047 227.43824 40.019287 226.72236 38.242188 226.25195 C 36.465088 225.78154 34.748891 225.54688 33.09375 225.54688 C 30.219031 225.54688 27.997716 226.10371 26.429688 227.21875 C 24.879081 228.33379 24.103516 229.9207 24.103516 231.97656 C 24.103516 233.70139 24.618554 235.00793 25.646484 235.89648 C 26.691837 236.76761 28.660593 237.47357 31.552734 238.01367 L 34.740234 238.66602 C 38.677729 239.41518 41.579147 240.73961 43.443359 242.63867 C 45.324994 244.52031 46.265625 247.04589 46.265625 250.2168 C 46.265625 253.99749 44.99291 256.86508 42.449219 258.81641 C 39.92295 260.76773 36.21214 261.74219 31.316406 261.74219 C 29.469617 261.74219 27.500861 261.53338 25.410156 261.11523 C 23.336874 260.69709 21.185163 260.07863 18.955078 259.25977 L 18.955078 253.82422 C 21.098051 255.02637 23.198046 255.93123 25.253906 256.54102 C 27.309766 257.1508 29.330237 257.45703 31.316406 257.45703 C 34.330506 257.45703 36.657203 256.86442 38.294922 255.67969 C 39.932641 254.49495 40.751953 252.80462 40.751953 250.60938 C 40.751953 248.6929 40.159342 247.19543 38.974609 246.11523 C 37.807299 245.03504 35.88229 244.22369 33.199219 243.68359 L 29.984375 243.05664 C 26.046881 242.27263 23.197177 241.04366 21.4375 239.37109 C 19.677823 237.69853 18.798828 235.37379 18.798828 232.39453 C 18.798828 228.94487 20.009907 226.2264 22.431641 224.24023 C 24.870796 222.25406 28.223665 221.26172 32.492188 221.26172 z M 234.61133 221.9668 L 246.5293 221.9668 C 250.90235 221.9668 254.20351 222.95914 256.43359 224.94531 C 258.6811 226.91406 259.80469 229.80751 259.80469 233.62305 C 259.80469 237.47343 258.6811 240.38282 256.43359 242.35156 C 254.20351 244.32031 250.90235 245.30469 246.5293 245.30469 L 239.89062 245.30469 L 239.89062 260.98438 L 234.61133 260.98438 L 234.61133 221.9668 z M 325.375 223.4043 L 330.20898 223.4043 L 330.20898 231.71484 L 340.11328 231.71484 L 340.11328 235.45117 L 330.20898 235.45117 L 330.20898 251.3418 C 330.20898 253.72869 330.53115 255.26193 331.17578 255.94141 C 331.83784 256.62089 333.17024 256.96094 335.17383 256.96094 L 340.11328 256.96094 L 340.11328 260.98438 L 335.17383 260.98438 C 331.46283 260.98437 328.90341 260.2963 327.49219 258.91992 C 326.08096 257.52612 325.375 255.00053 325.375 251.3418 L 325.375 235.45117 L 321.8457 235.45117 L 321.8457 231.71484 L 325.375 231.71484 L 325.375 223.4043 z M 239.89062 226.30469 L 239.89062 240.9668 L 246.5293 240.9668 C 248.98588 240.9668 250.88503 240.33044 252.22656 239.05859 C 253.5681 237.78675 254.23828 235.97509 254.23828 233.62305 C 254.23828 231.28843 253.5681 229.48474 252.22656 228.21289 C 250.88503 226.94105 248.98588 226.30469 246.5293 226.30469 L 239.89062 226.30469 z M 66.544922 231.00977 C 70.482416 231.00977 73.592647 232.28053 75.875 234.82422 C 78.174775 237.35049 79.324219 240.7928 79.324219 245.14844 L 79.324219 247.5 L 57.214844 247.5 C 57.423914 250.81028 58.418213 253.33587 60.195312 255.07812 C 61.989834 256.80296 64.481597 257.66602 67.669922 257.66602 C 69.516711 257.66602 71.302512 257.43931 73.027344 256.98633 C 74.769598 256.53334 76.493763 255.85324 78.201172 254.94727 L 78.201172 259.49414 C 76.47634 260.22589 74.708429 260.78467 72.896484 261.16797 C 71.08454 261.55126 69.245071 261.74219 67.380859 261.74219 C 62.711618 261.74219 59.01073 260.38393 56.275391 257.66602 C 53.557474 254.9481 52.197266 251.27111 52.197266 246.63672 C 52.197266 241.84552 53.48787 238.04722 56.066406 235.24219 C 58.662365 232.41974 62.154441 231.00977 66.544922 231.00977 z M 99.839844 231.00977 C 101.32076 231.00977 102.76651 231.16686 104.17773 231.48047 C 105.58896 231.77665 106.95714 232.2281 108.28125 232.83789 L 108.28125 237.33398 C 106.92229 236.58482 105.55412 236.02603 104.17773 235.66016 C 102.81878 235.27686 101.44263 235.08594 100.04883 235.08594 C 96.930193 235.08594 94.508035 236.07828 92.783203 238.06445 C 91.058372 240.0332 90.197266 242.80338 90.197266 246.375 C 90.197266 249.94662 91.058372 252.72672 92.783203 254.71289 C 94.508035 256.68164 96.930193 257.66602 100.04883 257.66602 C 101.44263 257.66602 102.81878 257.48306 104.17773 257.11719 C 105.55412 256.73389 106.92229 256.16714 108.28125 255.41797 L 108.28125 259.86133 C 106.93971 260.48854 105.54568 260.95788 104.09961 261.27148 C 102.67096 261.58509 101.14569 261.74219 99.525391 261.74219 C 95.117488 261.74219 91.61549 260.35807 89.019531 257.58789 C 86.423573 254.81771 85.126953 251.07909 85.126953 246.375 C 85.126953 241.60122 86.433494 237.84667 89.046875 235.11133 C 91.677679 232.37599 95.275138 231.00977 99.839844 231.00977 z M 128.03906 231.00977 C 132.22047 231.00977 135.50374 232.36802 137.89062 235.08594 C 140.27751 237.80385 141.4707 241.56638 141.4707 246.375 C 141.4707 251.1662 140.27751 254.93068 137.89062 257.66602 C 135.50374 260.38393 132.22047 261.74219 128.03906 261.74219 C 123.84023 261.74219 120.54704 260.38393 118.16016 257.66602 C 115.79069 254.93068 114.60547 251.1662 114.60547 246.375 C 114.60547 241.56638 115.79069 237.80385 118.16016 235.08594 C 120.54704 232.36802 123.84023 231.00977 128.03906 231.00977 z M 163.52734 231.00977 C 166.88989 231.00977 169.43337 232.05383 171.1582 234.14453 C 172.88303 236.21781 173.74609 239.27633 173.74609 243.31836 L 173.74609 260.98438 L 168.9375 260.98438 L 168.9375 243.47461 C 168.9375 240.70443 168.3966 238.63224 167.31641 237.25586 C 166.23621 235.87948 164.61743 235.19141 162.45703 235.19141 C 159.86107 235.19141 157.81279 236.01869 156.31445 237.67383 C 154.81611 239.32897 154.06836 241.58411 154.06836 244.44141 L 154.06836 260.98438 L 149.23242 260.98438 L 149.23242 231.71484 L 154.06836 231.71484 L 154.06836 236.26172 C 155.21825 234.50204 156.56853 233.18753 158.11914 232.31641 C 159.68717 231.44528 161.48891 231.00977 163.52734 231.00977 z M 276.16406 231.00977 C 280.34547 231.00977 283.63069 232.36802 286.01758 235.08594 C 288.40447 237.80385 289.59766 241.56638 289.59766 246.375 C 289.59766 251.1662 288.40447 254.93068 286.01758 257.66602 C 283.63069 260.38393 280.34547 261.74219 276.16406 261.74219 C 271.96523 261.74219 268.67204 260.38393 266.28516 257.66602 C 263.91569 254.93068 262.73242 251.1662 262.73242 246.375 C 262.73242 241.56638 263.91569 237.80385 266.28516 235.08594 C 268.67204 232.36802 271.96523 231.00977 276.16406 231.00977 z M 306.8457 231.00977 C 308.6228 231.00977 310.29525 231.13905 311.86328 231.40039 C 313.43131 231.66173 314.87706 232.0535 316.20117 232.57617 L 316.20117 237.125 C 314.84221 236.4281 313.43224 235.90509 311.96875 235.55664 C 310.50526 235.20819 308.98795 235.0332 307.41992 235.0332 C 305.03303 235.0332 303.23926 235.39911 302.03711 236.13086 C 300.85238 236.86261 300.25977 237.96033 300.25977 239.42383 C 300.25977 240.53887 300.68731 241.41982 301.54102 242.06445 C 302.39472 242.69166 304.11092 243.29224 306.68945 243.86719 L 308.33594 244.23242 C 311.75076 244.96417 314.17096 246.00026 315.59961 247.3418 C 317.04568 248.66591 317.76953 250.52327 317.76953 252.91016 C 317.76953 255.62807 316.68969 257.77978 314.5293 259.36523 C 312.38632 260.95069 309.43319 261.74219 305.66992 261.74219 C 304.10189 261.74219 302.46327 261.58509 300.75586 261.27148 C 299.06587 260.9753 297.28007 260.52385 295.39844 259.91406 L 295.39844 254.94727 C 297.17554 255.87066 298.92751 256.56865 300.65234 257.03906 C 302.37718 257.49205 304.08345 257.71875 305.77344 257.71875 C 308.03837 257.71875 309.78238 257.33495 311.00195 256.56836 C 312.22153 255.78435 312.83008 254.68662 312.83008 253.27539 C 312.83008 251.9687 312.3866 250.96643 311.49805 250.26953 C 310.62692 249.57263 308.70191 248.90245 305.72266 248.25781 L 304.04883 247.86523 C 301.06957 247.23802 298.91786 246.2795 297.59375 244.99023 C 296.26964 243.68354 295.60742 241.89774 295.60742 239.63281 C 295.60742 236.88005 296.58383 234.7542 298.53516 233.25586 C 300.48648 231.75752 303.25666 231.00977 306.8457 231.00977 z M 194.44336 235.0332 C 191.89967 235.0332 189.89709 236.04344 188.43359 238.06445 C 186.98752 240.06805 186.26367 242.83822 186.26367 246.375 C 186.26367 249.91178 186.98752 252.69188 188.43359 254.71289 C 189.89709 256.71648 191.89967 257.71875 194.44336 257.71875 C 196.98705 257.71875 198.99158 256.71648 200.45508 254.71289 C 201.91857 252.69188 202.65039 249.91178 202.65039 246.375 C 202.65039 242.83822 201.91857 240.06805 200.45508 238.06445 C 198.99158 236.04344 196.98705 235.0332 194.44336 235.0332 z M 66.597656 235.08594 C 63.914585 235.08594 61.762874 235.84361 60.142578 237.35938 C 58.539704 238.87514 57.616962 241.00896 57.373047 243.76172 L 74.515625 243.73633 C 74.48078 241.10552 73.740993 239.00553 72.294922 237.4375 C 70.866273 235.86947 68.967122 235.08594 66.597656 235.08594 z M 128.03906 235.08594 C 125.46053 235.08594 123.42217 236.09617 121.92383 238.11719 C 120.42549 240.12078 119.67578 242.87307 119.67578 246.375 C 119.67578 249.87693 120.41557 252.63914 121.89648 254.66016 C 123.39482 256.66375 125.4431 257.66602 128.03906 257.66602 C 130.60018 257.66602 132.62861 256.65578 134.12695 254.63477 C 135.62529 252.61375 136.375 249.85951 136.375 246.375 C 136.375 242.90791 135.62529 240.16555 134.12695 238.14453 C 132.62861 236.10609 130.60018 235.08594 128.03906 235.08594 z M 276.16406 235.08594 C 273.58553 235.08594 271.54717 236.09617 270.04883 238.11719 C 268.55049 240.12078 267.80273 242.87307 267.80273 246.375 C 267.80273 249.87693 268.54252 252.63914 270.02344 254.66016 C 271.52178 256.66375 273.5681 257.66602 276.16406 257.66602 C 278.72518 257.66602 280.75557 256.65578 282.25391 254.63477 C 283.75224 252.61375 284.50195 249.85951 284.50195 246.375 C 284.50195 242.90791 283.75224 240.16555 282.25391 238.14453 C 280.75557 236.10609 278.72518 235.08594 276.16406 235.08594 z M 347.14453 254.3457 L 352.6582 254.3457 L 352.6582 260.98438 L 347.14453 260.98438 L 347.14453 254.3457 z "
       transform="matrix(0.26458333,0,0,0.26458333,28.726189,63.410713)"
       id="path862" />
  </g>
</svg>
