<?xml version="1.0" encoding="UTF-8"?>
<svg viewBox="0 0 612 792" xmlns="http://www.w3.org/2000/svg" xmlns:xlink="http://www.w3.org/1999/xlink" version="1.1" height="792pt" width="612pt" xmlns:inkscape="http://www.inkscape.org/namespaces/inkscape">
 <defs>
  <linearGradient x2="613.499" x1="0" y2="395.75" id="Grad0" gradientUnits="userSpaceOnUse" y1="395.75" gradientTransform="matrix(1 0 0 1 0 0)">
   <stop offset="0%" stop-opacity="1" stop-color="#300e49"/>
   <stop offset="100%" stop-opacity="1" stop-color="#806099"/>
  </linearGradient>
  <path d="M0.085 2.925 L0.51 2.925 C0.51 2.925 0.655 2.925 0.695 3.06 L2.48 8.875 C2.48 8.875 2.51 8.975 2.5325 9.09 C2.5325 9.09 2.555 9.205 2.58 9.33 C2.58 9.33 2.605 9.205 2.63 9.09 C2.63 9.09 2.655 8.975 2.69 8.875 L4.69 3.06 C4.69 3.06 4.71 3.005 4.76 2.965 C4.76 2.965 4.81 2.925 4.88 2.925 L5.02 2.925 C5.02 2.925 5.09 2.925 5.135 2.9625 C5.135 2.9625 5.18 3 5.205 3.06 L7.205 8.875 C7.205 8.875 7.24 8.975 7.2675 9.085 C7.2675 9.085 7.295 9.195 7.32 9.32 C7.32 9.32 7.345 9.2 7.365 9.0875 C7.365 9.0875 7.385 8.975 7.415 8.875 L9.2 3.06 C9.2 3.06 9.215 3.005 9.2675 2.965 C9.2675 2.965 9.32 2.925 9.39 2.925 L9.78 2.925 L7.555 10 L7.095 10 L5.005 3.86 C5.005 3.86 4.965 3.74 4.935 3.605 C4.935 3.605 4.905 3.74 4.865 3.86 L2.77 10 L2.315 10 L0.085 2.925 Z" id="GlLato-Light58"/>
  <path d="M2.685 4.945 C2.685 4.945 3.105 4.945 3.4625 5.09 C3.4625 5.09 3.82 5.235 4.0825 5.5125 C4.0825 5.5125 4.345 5.79 4.4925 6.195 C4.4925 6.195 4.64 6.6 4.64 7.125 C4.64 7.125 4.64 7.235 4.6075 7.275 C4.6075 7.275 4.575 7.315 4.505 7.315 L0.91 7.315 L0.91 7.41 C0.91 7.41 0.91 7.97 1.04 8.395 C1.04 8.395 1.17 8.82 1.41 9.1075 C1.41 9.1075 1.65 9.395 1.99 9.54 C1.99 9.54 2.33 9.685 2.75 9.685 C2.75 9.685 3.125 9.685 3.4 9.6025 C3.4 9.6025 3.675 9.52 3.8625 9.4175 C3.8625 9.4175 4.05 9.315 4.16 9.2325 C4.16 9.2325 4.27 9.15 4.32 9.15 C4.32 9.15 4.385 9.15 4.42 9.2 L4.55 9.36 C4.55 9.36 4.43 9.51 4.2325 9.64 C4.2325 9.64 4.035 9.77 3.7925 9.8625 C3.7925 9.8625 3.55 9.955 3.2725 10.01 C3.2725 10.01 2.995 10.065 2.715 10.065 C2.715 10.065 2.205 10.065 1.785 9.8875 C1.785 9.8875 1.365 9.71 1.065 9.37 C1.065 9.37 0.765 9.03 0.6025 8.5375 C0.6025 8.5375 0.44 8.045 0.44 7.41 C0.44 7.41 0.44 6.875 0.5925 6.4225 C0.5925 6.4225 0.745 5.97 1.0325 5.6425 C1.0325 5.6425 1.32 5.315 1.7375 5.13 C1.7375 5.13 2.155 4.945 2.685 4.945 L2.685 4.945 Z M2.69 5.3 C2.69 5.3 2.305 5.3 2 5.42 C2 5.42 1.695 5.54 1.4725 5.765 C1.4725 5.765 1.25 5.99 1.1125 6.305 C1.1125 6.305 0.975 6.62 0.93 7.01 L4.21 7.01 C4.21 7.01 4.21 6.61 4.1 6.2925 C4.1 6.2925 3.99 5.975 3.79 5.755 C3.79 5.755 3.59 5.535 3.31 5.4175 C3.31 5.4175 3.03 5.3 2.69 5.3 Z" id="GlLato-Light72"/>
  <path d="M0.86 10 L0.86 2.725 L1.34 2.725 L1.34 5.895 C1.34 5.895 1.67 5.455 2.105 5.2 C2.105 5.2 2.54 4.945 3.085 4.945 C3.085 4.945 4 4.945 4.5125 5.5775 C4.5125 5.5775 5.025 6.21 5.025 7.48 C5.025 7.48 5.025 8.025 4.8825 8.4975 C4.8825 8.4975 4.74 8.97 4.4625 9.3175 C4.4625 9.3175 4.185 9.665 3.7825 9.865 C3.7825 9.865 3.38 10.065 2.855 10.065 C2.855 10.065 2.335 10.065 1.96 9.8625 C1.96 9.8625 1.585 9.66 1.315 9.265 L1.285 9.875 C1.285 9.875 1.27 10 1.15 10 L0.86 10 L0.86 10 Z M2.95 5.325 C2.95 5.325 2.455 5.325 2.055 5.58 C2.055 5.58 1.655 5.835 1.34 6.29 L1.34 8.915 C1.34 8.915 1.625 9.345 1.97 9.5175 C1.97 9.5175 2.315 9.69 2.765 9.69 C2.765 9.69 3.205 9.69 3.535 9.53 C3.535 9.53 3.865 9.37 4.0875 9.0775 C4.0875 9.0775 4.31 8.785 4.4225 8.3775 C4.4225 8.3775 4.535 7.97 4.535 7.48 C4.535 7.48 4.535 6.37 4.125 5.8475 C4.125 5.8475 3.715 5.325 2.95 5.325 Z" id="GlLato-Light69"/>
  <path d="M0.81 10 L0.81 5.025 L1.06 5.025 C1.06 5.025 1.145 5.025 1.1825 5.06 C1.1825 5.06 1.22 5.095 1.225 5.18 L1.265 6.23 C1.265 6.23 1.505 5.625 1.905 5.2825 C1.905 5.2825 2.305 4.94 2.89 4.94 C2.89 4.94 3.115 4.94 3.305 4.9875 C3.305 4.9875 3.495 5.035 3.665 5.125 L3.6 5.455 C3.6 5.455 3.585 5.535 3.5 5.535 C3.5 5.535 3.47 5.535 3.415 5.515 C3.415 5.515 3.36 5.495 3.2775 5.47 C3.2775 5.47 3.195 5.445 3.075 5.425 C3.075 5.425 2.955 5.405 2.8 5.405 C2.8 5.405 2.235 5.405 1.8725 5.755 C1.8725 5.755 1.51 6.105 1.285 6.765 L1.285 10 L0.81 10 Z" id="GlLato-Light85"/>
  <path d="" id="GlLato-Light3"/>
  <path d="M4.47 3.785 C4.47 3.785 4.425 3.87 4.34 3.87 C4.34 3.87 4.275 3.87 4.1725 3.7775 C4.1725 3.7775 4.07 3.685 3.895 3.5725 C3.895 3.5725 3.72 3.46 3.4575 3.365 C3.4575 3.365 3.195 3.27 2.81 3.27 C2.81 3.27 2.425 3.27 2.1325 3.38 C2.1325 3.38 1.84 3.49 1.6425 3.68 C1.6425 3.68 1.445 3.87 1.3425 4.12 C1.3425 4.12 1.24 4.37 1.24 4.645 C1.24 4.645 1.24 5.005 1.3925 5.24 C1.3925 5.24 1.545 5.475 1.795 5.64 C1.795 5.64 2.045 5.805 2.3625 5.9175 C2.3625 5.9175 2.68 6.03 3.015 6.14 C3.015 6.14 3.35 6.25 3.6675 6.3825 C3.6675 6.3825 3.985 6.515 4.235 6.715 C4.235 6.715 4.485 6.915 4.6375 7.2075 C4.6375 7.2075 4.79 7.5 4.79 7.935 C4.79 7.935 4.79 8.38 4.6375 8.7725 C4.6375 8.7725 4.485 9.165 4.195 9.455 C4.195 9.455 3.905 9.745 3.485 9.9125 C3.485 9.9125 3.065 10.08 2.525 10.08 C2.525 10.08 1.825 10.08 1.32 9.8325 C1.32 9.8325 0.815 9.585 0.435 9.155 L0.575 8.935 C0.575 8.935 0.635 8.86 0.715 8.86 C0.715 8.86 0.76 8.86 0.83 8.92 C0.83 8.92 0.9 8.98 1 9.0675 C1 9.0675 1.1 9.155 1.24 9.2575 C1.24 9.2575 1.38 9.36 1.565 9.4475 C1.565 9.4475 1.75 9.535 1.99 9.595 C1.99 9.595 2.23 9.655 2.535 9.655 C2.535 9.655 2.955 9.655 3.285 9.5275 C3.285 9.5275 3.615 9.4 3.8425 9.18 C3.8425 9.18 4.07 8.96 4.19 8.6575 C4.19 8.6575 4.31 8.355 4.31 8.01 C4.31 8.01 4.31 7.635 4.1575 7.3925 C4.1575 7.3925 4.005 7.15 3.755 6.9875 C3.755 6.9875 3.505 6.825 3.1875 6.715 C3.1875 6.715 2.87 6.605 2.535 6.5 C2.535 6.5 2.2 6.395 1.8825 6.265 C1.8825 6.265 1.565 6.135 1.315 5.9325 C1.315 5.9325 1.065 5.73 0.9125 5.4275 C0.9125 5.4275 0.76 5.125 0.76 4.67 C0.76 4.67 0.76 4.315 0.895 3.985 C0.895 3.985 1.03 3.655 1.29 3.4025 C1.29 3.4025 1.55 3.15 1.9325 2.9975 C1.9325 2.9975 2.315 2.845 2.805 2.845 C2.805 2.845 3.355 2.845 3.7925 3.02 C3.7925 3.02 4.23 3.195 4.59 3.555 L4.47 3.785 Z" id="GlLato-Light54"/>
  <path d="M2.17 10.08 C2.17 10.08 1.665 10.08 1.3825 9.8 C1.3825 9.8 1.1 9.52 1.1 8.935 L1.1 5.535 L0.385 5.535 C0.385 5.535 0.33 5.535 0.295 5.505 C0.295 5.505 0.26 5.475 0.26 5.42 L0.26 5.235 L1.11 5.175 L1.23 3.395 C1.23 3.395 1.235 3.35 1.2675 3.315 C1.2675 3.315 1.3 3.28 1.355 3.28 L1.58 3.28 L1.58 5.18 L3.145 5.18 L3.145 5.535 L1.58 5.535 L1.58 8.91 C1.58 8.91 1.58 9.115 1.6325 9.2625 C1.6325 9.2625 1.685 9.41 1.7775 9.505 C1.7775 9.505 1.87 9.6 1.995 9.645 C1.995 9.645 2.12 9.69 2.265 9.69 C2.265 9.69 2.445 9.69 2.575 9.6375 C2.575 9.6375 2.705 9.585 2.8 9.5225 C2.8 9.5225 2.895 9.46 2.955 9.4075 C2.955 9.4075 3.015 9.355 3.05 9.355 C3.05 9.355 3.09 9.355 3.13 9.405 L3.26 9.615 C3.26 9.615 3.07 9.825 2.7775 9.9525 C2.7775 9.9525 2.485 10.08 2.17 10.08 Z" id="GlLato-Light87"/>
  <path d="M3.985 10 C3.985 10 3.835 10 3.8 9.86 L3.73 9.225 C3.73 9.225 3.525 9.425 3.3225 9.585 C3.3225 9.585 3.12 9.745 2.9 9.855 C2.9 9.855 2.68 9.965 2.425 10.0225 C2.425 10.0225 2.17 10.08 1.865 10.08 C1.865 10.08 1.61 10.08 1.37 10.005 C1.37 10.005 1.13 9.93 0.945 9.775 C0.945 9.775 0.76 9.62 0.6475 9.3775 C0.6475 9.3775 0.535 9.135 0.535 8.795 C0.535 8.795 0.535 8.48 0.715 8.21 C0.715 8.21 0.895 7.94 1.2775 7.74 C1.2775 7.74 1.66 7.54 2.2625 7.42 C2.2625 7.42 2.865 7.3 3.71 7.28 L3.71 6.76 C3.71 6.76 3.71 6.07 3.4125 5.6975 C3.4125 5.6975 3.115 5.325 2.53 5.325 C2.53 5.325 2.17 5.325 1.9175 5.425 C1.9175 5.425 1.665 5.525 1.49 5.645 C1.49 5.645 1.315 5.765 1.205 5.865 C1.205 5.865 1.095 5.965 1.02 5.965 C1.02 5.965 0.92 5.965 0.87 5.875 L0.785 5.73 C0.785 5.73 1.175 5.34 1.605 5.14 C1.605 5.14 2.035 4.94 2.58 4.94 C2.58 4.94 2.98 4.94 3.28 5.0675 C3.28 5.0675 3.58 5.195 3.7775 5.4325 C3.7775 5.4325 3.975 5.67 4.075 6.0075 C4.075 6.0075 4.175 6.345 4.175 6.76 L4.175 10 L3.985 10 L3.985 10 Z M1.985 9.735 C1.985 9.735 2.275 9.735 2.5175 9.6725 C2.5175 9.6725 2.76 9.61 2.9675 9.4975 C2.9675 9.4975 3.175 9.385 3.355 9.23 C3.355 9.23 3.535 9.075 3.71 8.895 L3.71 7.6 C3.71 7.6 3 7.62 2.4875 7.7075 C2.4875 7.7075 1.975 7.795 1.6425 7.945 C1.6425 7.945 1.31 8.095 1.1525 8.3025 C1.1525 8.3025 0.995 8.51 0.995 8.775 C0.995 8.775 0.995 9.025 1.0775 9.2075 C1.0775 9.2075 1.16 9.39 1.295 9.5075 C1.295 9.5075 1.43 9.625 1.61 9.68 C1.61 9.68 1.79 9.735 1.985 9.735 Z" id="GlLato-Light68"/>
  <path d="M3.665 9.635 C3.665 9.635 4.175 9.635 4.5775 9.4575 C4.5775 9.4575 4.98 9.28 5.26 8.965 C5.26 8.965 5.54 8.65 5.6875 8.2225 C5.6875 8.2225 5.835 7.795 5.835 7.3 L5.835 2.925 L6.345 2.925 L6.345 7.3 C6.345 7.3 6.345 7.885 6.16 8.3925 C6.16 8.3925 5.975 8.9 5.6275 9.2775 C5.6275 9.2775 5.28 9.655 4.7825 9.87 C4.7825 9.87 4.285 10.085 3.665 10.085 C3.665 10.085 3.045 10.085 2.5475 9.87 C2.5475 9.87 2.05 9.655 1.7025 9.2775 C1.7025 9.2775 1.355 8.9 1.17 8.3925 C1.17 8.3925 0.985 7.885 0.985 7.3 L0.985 2.925 L1.5 2.925 L1.5 7.295 C1.5 7.295 1.5 7.79 1.6475 8.2175 C1.6475 8.2175 1.795 8.645 2.0725 8.96 C2.0725 8.96 2.35 9.275 2.7525 9.455 C2.7525 9.455 3.155 9.635 3.665 9.635 Z" id="GlLato-Light56"/>
  <path d="M0.81 10 L0.81 5.025 L1.07 5.025 C1.07 5.025 1.2 5.025 1.22 5.15 L1.265 5.9 C1.265 5.9 1.605 5.47 2.0575 5.2075 C2.0575 5.2075 2.51 4.945 3.065 4.945 C3.065 4.945 3.475 4.945 3.7875 5.075 C3.7875 5.075 4.1 5.205 4.305 5.45 C4.305 5.45 4.51 5.695 4.615 6.04 C4.615 6.04 4.72 6.385 4.72 6.82 L4.72 10 L4.245 10 L4.245 6.82 C4.245 6.82 4.245 6.12 3.925 5.7225 C3.925 5.7225 3.605 5.325 2.945 5.325 C2.945 5.325 2.455 5.325 2.035 5.5775 C2.035 5.5775 1.615 5.83 1.285 6.27 L1.285 10 L0.81 10 Z" id="GlLato-Light81"/>
  <path d="M1.425 5.025 L1.425 10 L0.95 10 L0.95 5.025 L1.425 5.025 L1.425 5.025 Z M1.635 3.31 C1.635 3.31 1.635 3.4 1.5975 3.4775 C1.5975 3.4775 1.56 3.555 1.5 3.615 C1.5 3.615 1.44 3.675 1.36 3.71 C1.36 3.71 1.28 3.745 1.19 3.745 C1.19 3.745 1.1 3.745 1.02 3.71 C1.02 3.71 0.94 3.675 0.88 3.615 C0.88 3.615 0.82 3.555 0.785 3.4775 C0.785 3.4775 0.75 3.4 0.75 3.31 C0.75 3.31 0.75 3.22 0.785 3.1375 C0.785 3.1375 0.82 3.055 0.88 2.995 C0.88 2.995 0.94 2.935 1.02 2.9 C1.02 2.9 1.1 2.865 1.19 2.865 C1.19 2.865 1.28 2.865 1.36 2.9 C1.36 2.9 1.44 2.935 1.5 2.995 C1.5 2.995 1.56 3.055 1.5975 3.1375 C1.5975 3.1375 1.635 3.22 1.635 3.31 Z" id="GlLato-Light76"/>
  <path d="M2.645 10 L2.225 10 L0.125 5.025 L0.5 5.025 C0.5 5.025 0.57 5.025 0.6125 5.0625 C0.6125 5.0625 0.655 5.1 0.675 5.145 L2.315 9.07 C2.315 9.07 2.365 9.185 2.39 9.29 C2.39 9.29 2.415 9.395 2.44 9.5 C2.44 9.5 2.465 9.395 2.4925 9.2875 C2.4925 9.2875 2.52 9.18 2.565 9.07 L4.215 5.145 C4.215 5.145 4.24 5.09 4.2825 5.0575 C4.2825 5.0575 4.325 5.025 4.385 5.025 L4.745 5.025 L2.645 10 Z" id="GlLato-Light89"/>
  <path d="M3.55 5.64 C3.55 5.64 3.515 5.71 3.44 5.71 C3.44 5.71 3.385 5.71 3.2975 5.6475 C3.2975 5.6475 3.21 5.585 3.0675 5.5075 C3.0675 5.5075 2.925 5.43 2.7175 5.3675 C2.7175 5.3675 2.51 5.305 2.21 5.305 C2.21 5.305 1.94 5.305 1.7175 5.3825 C1.7175 5.3825 1.495 5.46 1.3375 5.59 C1.3375 5.59 1.18 5.72 1.0925 5.8925 C1.0925 5.8925 1.005 6.065 1.005 6.255 C1.005 6.255 1.005 6.49 1.125 6.645 C1.125 6.645 1.245 6.8 1.44 6.91 C1.44 6.91 1.635 7.02 1.8825 7.1 C1.8825 7.1 2.13 7.18 2.39 7.26 C2.39 7.26 2.65 7.34 2.8975 7.4375 C2.8975 7.4375 3.145 7.535 3.34 7.68 C3.34 7.68 3.535 7.825 3.655 8.035 C3.655 8.035 3.775 8.245 3.775 8.545 C3.775 8.545 3.775 8.87 3.6575 9.15 C3.6575 9.15 3.54 9.43 3.3175 9.635 C3.3175 9.635 3.095 9.84 2.77 9.96 C2.77 9.96 2.445 10.08 2.03 10.08 C2.03 10.08 1.505 10.08 1.125 9.9125 C1.125 9.9125 0.745 9.745 0.445 9.475 L0.56 9.305 C0.56 9.305 0.585 9.265 0.615 9.245 C0.615 9.245 0.645 9.225 0.7 9.225 C0.7 9.225 0.765 9.225 0.86 9.305 C0.86 9.305 0.955 9.385 1.1075 9.4775 C1.1075 9.4775 1.26 9.57 1.4875 9.65 C1.4875 9.65 1.715 9.73 2.05 9.73 C2.05 9.73 2.365 9.73 2.605 9.6425 C2.605 9.6425 2.845 9.555 3.005 9.405 C3.005 9.405 3.165 9.255 3.2475 9.0525 C3.2475 9.0525 3.33 8.85 3.33 8.625 C3.33 8.625 3.33 8.375 3.21 8.21 C3.21 8.21 3.09 8.045 2.895 7.93 C2.895 7.93 2.7 7.815 2.4525 7.735 C2.4525 7.735 2.205 7.655 1.9425 7.575 C1.9425 7.575 1.68 7.495 1.4325 7.4 C1.4325 7.4 1.185 7.305 0.99 7.16 C0.99 7.16 0.795 7.015 0.675 6.8075 C0.675 6.8075 0.555 6.6 0.555 6.29 C0.555 6.29 0.555 6.025 0.67 5.78 C0.67 5.78 0.785 5.535 0.9975 5.35 C0.9975 5.35 1.21 5.165 1.515 5.055 C1.515 5.055 1.82 4.945 2.2 4.945 C2.2 4.945 2.655 4.945 3.0075 5.075 C3.0075 5.075 3.36 5.205 3.655 5.475 L3.55 5.64 Z" id="GlLato-Light86"/>
  <path d="M1.895 11.6 C1.895 11.6 1.865 11.67 1.8175 11.715 C1.8175 11.715 1.77 11.76 1.68 11.76 L1.34 11.76 L2.215 9.815 L0.11 5.025 L0.505 5.025 C0.505 5.025 0.58 5.025 0.6225 5.0625 C0.6225 5.0625 0.665 5.1 0.685 5.145 L2.36 9.015 C2.36 9.015 2.39 9.09 2.4125 9.1675 C2.4125 9.1675 2.435 9.245 2.455 9.325 C2.455 9.325 2.48 9.245 2.5075 9.1675 C2.5075 9.1675 2.535 9.09 2.565 9.015 L4.22 5.145 C4.22 5.145 4.245 5.09 4.29 5.0575 C4.29 5.0575 4.335 5.025 4.39 5.025 L4.755 5.025 L1.895 11.6 Z" id="GlLato-Light92"/>
  <path d="M0.81 10 L0.81 2.725 L1.285 2.725 L1.285 5.875 C1.285 5.875 1.63 5.45 2.0725 5.1975 C2.0725 5.1975 2.515 4.945 3.065 4.945 C3.065 4.945 3.475 4.945 3.7875 5.075 C3.7875 5.075 4.1 5.205 4.305 5.45 C4.305 5.45 4.51 5.695 4.615 6.04 C4.615 6.04 4.72 6.385 4.72 6.82 L4.72 10 L4.245 10 L4.245 6.82 C4.245 6.82 4.245 6.12 3.925 5.7225 C3.925 5.7225 3.605 5.325 2.945 5.325 C2.945 5.325 2.455 5.325 2.035 5.5775 C2.035 5.5775 1.615 5.83 1.285 6.27 L1.285 10 L0.81 10 Z" id="GlLato-Light75"/>
  <path d="M0.81 11.76 L0.81 5.025 L1.07 5.025 C1.07 5.025 1.135 5.025 1.175 5.0525 C1.175 5.0525 1.215 5.08 1.22 5.15 L1.265 5.92 C1.265 5.92 1.595 5.47 2.0375 5.205 C2.0375 5.205 2.48 4.94 3.03 4.94 C3.03 4.94 3.95 4.94 4.46 5.575 C4.46 5.575 4.97 6.21 4.97 7.48 C4.97 7.48 4.97 8.025 4.8275 8.4975 C4.8275 8.4975 4.685 8.97 4.41 9.3175 C4.41 9.3175 4.135 9.665 3.7325 9.865 C3.7325 9.865 3.33 10.065 2.805 10.065 C2.805 10.065 2.295 10.065 1.925 9.88 C1.925 9.88 1.555 9.695 1.285 9.33 L1.285 11.76 L0.81 11.76 L0.81 11.76 Z M2.895 5.325 C2.895 5.325 2.4 5.325 1.9975 5.5825 C1.9975 5.5825 1.595 5.84 1.285 6.3 L1.285 8.91 C1.285 8.91 1.57 9.34 1.9175 9.515 C1.9175 9.515 2.265 9.69 2.71 9.69 C2.71 9.69 3.15 9.69 3.48 9.53 C3.48 9.53 3.81 9.37 4.0325 9.0775 C4.0325 9.0775 4.255 8.785 4.3675 8.3775 C4.3675 8.3775 4.48 7.97 4.48 7.48 C4.48 7.48 4.48 6.37 4.0725 5.8475 C4.0725 5.8475 3.665 5.325 2.895 5.325 Z" id="GlLato-Light83"/>
  <path d="M4.335 10 C4.335 10 4.21 10 4.19 9.87 L4.14 9.085 C4.14 9.085 3.81 9.535 3.3675 9.8 C3.3675 9.8 2.925 10.065 2.375 10.065 C2.375 10.065 1.46 10.065 0.9475 9.43 C0.9475 9.43 0.435 8.795 0.435 7.525 C0.435 7.525 0.435 6.98 0.5775 6.5075 C0.5775 6.5075 0.72 6.035 0.9975 5.6875 C0.9975 5.6875 1.275 5.34 1.6775 5.14 C1.6775 5.14 2.08 4.94 2.605 4.94 C2.605 4.94 3.11 4.94 3.48 5.1275 C3.48 5.1275 3.85 5.315 4.12 5.675 L4.12 2.725 L4.6 2.725 L4.6 10 L4.335 10 L4.335 10 Z M2.51 9.68 C2.51 9.68 3.005 9.68 3.405 9.425 C3.405 9.425 3.805 9.17 4.12 8.715 L4.12 6.09 C4.12 6.09 3.83 5.665 3.4825 5.49 C3.4825 5.49 3.135 5.315 2.695 5.315 C2.695 5.315 2.255 5.315 1.925 5.475 C1.925 5.475 1.595 5.635 1.3725 5.9275 C1.3725 5.9275 1.15 6.22 1.0375 6.6275 C1.0375 6.6275 0.925 7.035 0.925 7.525 C0.925 7.525 0.925 8.635 1.335 9.1575 C1.335 9.1575 1.745 9.68 2.51 9.68 Z" id="GlLato-Light71"/>
  <path d="M2.705 4.945 C2.705 4.945 3.24 4.945 3.6625 5.1275 C3.6625 5.1275 4.085 5.31 4.375 5.645 C4.375 5.645 4.665 5.98 4.8175 6.4525 C4.8175 6.4525 4.97 6.925 4.97 7.51 C4.97 7.51 4.97 8.095 4.8175 8.565 C4.8175 8.565 4.665 9.035 4.375 9.37 C4.375 9.37 4.085 9.705 3.6625 9.885 C3.6625 9.885 3.24 10.065 2.705 10.065 C2.705 10.065 2.17 10.065 1.7475 9.885 C1.7475 9.885 1.325 9.705 1.0325 9.37 C1.0325 9.37 0.74 9.035 0.5875 8.565 C0.5875 8.565 0.435 8.095 0.435 7.51 C0.435 7.51 0.435 6.925 0.5875 6.4525 C0.5875 6.4525 0.74 5.98 1.0325 5.645 C1.0325 5.645 1.325 5.31 1.7475 5.1275 C1.7475 5.1275 2.17 4.945 2.705 4.945 L2.705 4.945 Z M2.705 9.69 C2.705 9.69 3.15 9.69 3.4825 9.5375 C3.4825 9.5375 3.815 9.385 4.0375 9.1 C4.0375 9.1 4.26 8.815 4.37 8.4125 C4.37 8.4125 4.48 8.01 4.48 7.51 C4.48 7.51 4.48 7.015 4.37 6.61 C4.37 6.61 4.26 6.205 4.0375 5.9175 C4.0375 5.9175 3.815 5.63 3.4825 5.475 C3.4825 5.475 3.15 5.32 2.705 5.32 C2.705 5.32 2.26 5.32 1.9275 5.475 C1.9275 5.475 1.595 5.63 1.3725 5.9175 C1.3725 5.9175 1.15 6.205 1.0375 6.61 C1.0375 6.61 0.925 7.015 0.925 7.51 C0.925 7.51 0.925 8.01 1.0375 8.4125 C1.0375 8.4125 1.15 8.815 1.3725 9.1 C1.3725 9.1 1.595 9.385 1.9275 9.5375 C1.9275 9.5375 2.26 9.69 2.705 9.69 Z" id="GlLato-Light82"/>
  <path d="M1.05 10 L1.05 2.925 L3.085 2.925 C3.085 2.925 3.69 2.925 4.1325 3.045 C4.1325 3.045 4.575 3.165 4.865 3.3975 C4.865 3.3975 5.155 3.63 5.2975 3.965 C5.2975 3.965 5.44 4.3 5.44 4.725 C5.44 4.725 5.44 5.005 5.3425 5.265 C5.3425 5.265 5.245 5.525 5.06 5.745 C5.06 5.745 4.875 5.965 4.6075 6.1275 C4.6075 6.1275 4.34 6.29 3.995 6.375 C3.995 6.375 4.83 6.5 5.28 6.93 C5.28 6.93 5.73 7.36 5.73 8.065 C5.73 8.065 5.73 8.515 5.57 8.875 C5.57 8.875 5.41 9.235 5.105 9.485 C5.105 9.485 4.8 9.735 4.355 9.8675 C4.355 9.8675 3.91 10 3.345 10 L1.05 10 L1.05 10 Z M1.56 6.61 L1.56 9.59 L3.335 9.59 C3.335 9.59 4.27 9.59 4.745 9.1875 C4.745 9.1875 5.22 8.785 5.22 8.055 C5.22 8.055 5.22 7.72 5.0925 7.4525 C5.0925 7.4525 4.965 7.185 4.725 6.9975 C4.725 6.9975 4.485 6.81 4.135 6.71 C4.135 6.71 3.785 6.61 3.34 6.61 L1.56 6.61 L1.56 6.61 Z M1.56 6.235 L3.095 6.235 C3.095 6.235 3.585 6.235 3.9325 6.11 C3.9325 6.11 4.28 5.985 4.5025 5.78 C4.5025 5.78 4.725 5.575 4.83 5.315 C4.83 5.315 4.935 5.055 4.935 4.78 C4.935 4.78 4.935 4.065 4.4825 3.6975 C4.4825 3.6975 4.03 3.33 3.085 3.33 L1.56 3.33 L1.56 6.235 Z" id="GlLato-Light37"/>
  <path d="M1.165 5.025 L1.165 8.205 C1.165 8.205 1.165 8.905 1.485 9.3025 C1.485 9.3025 1.805 9.7 2.46 9.7 C2.46 9.7 2.945 9.7 3.365 9.4525 C3.365 9.4525 3.785 9.205 4.12 8.765 L4.12 5.025 L4.6 5.025 L4.6 10 L4.335 10 C4.335 10 4.195 10 4.19 9.87 L4.145 9.13 C4.145 9.13 3.8 9.56 3.3475 9.82 C3.3475 9.82 2.895 10.08 2.34 10.08 C2.34 10.08 1.925 10.08 1.615 9.95 C1.615 9.95 1.305 9.82 1.1 9.575 C1.1 9.575 0.895 9.33 0.79 8.985 C0.79 8.985 0.685 8.64 0.685 8.205 L0.685 5.025 L1.165 5.025 Z" id="GlLato-Light88"/>
  <path d="M1.425 2.725 L1.425 10 L0.95 10 L0.95 2.725 L1.425 2.725 Z" id="GlLato-Light79"/>
  <path d="M2.45 4.94 C2.45 4.94 2.775 4.94 3.0525 5.02 C3.0525 5.02 3.33 5.1 3.55 5.245 L4.825 5.245 L4.825 5.41 C4.825 5.41 4.825 5.535 4.685 5.545 L3.93 5.6 C3.93 5.6 4.07 5.79 4.145 6.0275 C4.145 6.0275 4.22 6.265 4.22 6.535 C4.22 6.535 4.22 6.895 4.09 7.1875 C4.09 7.1875 3.96 7.48 3.7275 7.6875 C3.7275 7.6875 3.495 7.895 3.17 8.01 C3.17 8.01 2.845 8.125 2.45 8.125 C2.45 8.125 2.02 8.125 1.67 7.995 C1.67 7.995 1.46 8.115 1.34 8.28 C1.34 8.28 1.22 8.445 1.22 8.6 C1.22 8.6 1.22 8.815 1.37 8.93 C1.37 8.93 1.52 9.045 1.7675 9.0975 C1.7675 9.0975 2.015 9.15 2.3325 9.165 C2.3325 9.165 2.65 9.18 2.9775 9.1975 C2.9775 9.1975 3.305 9.215 3.6225 9.26 C3.6225 9.26 3.94 9.305 4.1875 9.4175 C4.1875 9.4175 4.435 9.53 4.585 9.7325 C4.585 9.7325 4.735 9.935 4.735 10.27 C4.735 10.27 4.735 10.58 4.58 10.865 C4.58 10.865 4.425 11.15 4.1325 11.37 C4.1325 11.37 3.84 11.59 3.425 11.7225 C3.425 11.7225 3.01 11.855 2.495 11.855 C2.495 11.855 1.97 11.855 1.575 11.7475 C1.575 11.7475 1.18 11.64 0.9125 11.4575 C0.9125 11.4575 0.645 11.275 0.51 11.035 C0.51 11.035 0.375 10.795 0.375 10.525 C0.375 10.525 0.375 10.13 0.635 9.845 C0.635 9.845 0.895 9.56 1.35 9.405 C1.35 9.405 1.1 9.32 0.9525 9.16 C0.9525 9.16 0.805 9 0.805 8.715 C0.805 8.715 0.805 8.61 0.845 8.495 C0.845 8.495 0.885 8.38 0.965 8.2675 C0.965 8.2675 1.045 8.155 1.1575 8.055 C1.1575 8.055 1.27 7.955 1.42 7.875 C1.42 7.875 1.065 7.67 0.8675 7.33 C0.8675 7.33 0.67 6.99 0.67 6.535 C0.67 6.535 0.67 6.175 0.7975 5.8825 C0.7975 5.8825 0.925 5.59 1.1575 5.38 C1.1575 5.38 1.39 5.17 1.72 5.055 C1.72 5.055 2.05 4.94 2.45 4.94 L2.45 4.94 Z M4.295 10.335 C4.295 10.335 4.295 10.1 4.1725 9.9575 C4.1725 9.9575 4.05 9.815 3.845 9.735 C3.845 9.735 3.64 9.655 3.3725 9.6225 C3.3725 9.6225 3.105 9.59 2.8125 9.575 C2.8125 9.575 2.52 9.56 2.225 9.545 C2.225 9.545 1.93 9.53 1.675 9.485 C1.675 9.485 1.485 9.56 1.3225 9.6575 C1.3225 9.6575 1.16 9.755 1.045 9.8775 C1.045 9.8775 0.93 10 0.865 10.1475 C0.865 10.1475 0.8 10.295 0.8 10.47 C0.8 10.47 0.8 10.69 0.9125 10.8775 C0.9125 10.8775 1.025 11.065 1.2425 11.2025 C1.2425 11.2025 1.46 11.34 1.775 11.42 C1.775 11.42 2.09 11.5 2.5 11.5 C2.5 11.5 2.88 11.5 3.2075 11.415 C3.2075 11.415 3.535 11.33 3.7775 11.175 C3.7775 11.175 4.02 11.02 4.1575 10.805 C4.1575 10.805 4.295 10.59 4.295 10.335 L4.295 10.335 Z M2.45 7.8 C2.45 7.8 2.77 7.8 3.02 7.7075 C3.02 7.7075 3.27 7.615 3.44 7.45 C3.44 7.45 3.61 7.285 3.6975 7.055 C3.6975 7.055 3.785 6.825 3.785 6.545 C3.785 6.545 3.785 6.265 3.695 6.0325 C3.695 6.0325 3.605 5.8 3.4325 5.635 C3.4325 5.635 3.26 5.47 3.0125 5.38 C3.0125 5.38 2.765 5.29 2.45 5.29 C2.45 5.29 2.135 5.29 1.885 5.38 C1.885 5.38 1.635 5.47 1.4625 5.635 C1.4625 5.635 1.29 5.8 1.2 6.0325 C1.2 6.0325 1.11 6.265 1.11 6.545 C1.11 6.545 1.11 6.825 1.2 7.055 C1.2 7.055 1.29 7.285 1.4625 7.45 C1.4625 7.45 1.635 7.615 1.885 7.7075 C1.885 7.7075 2.135 7.8 2.45 7.8 Z" id="GlLato-Light74"/>
  <path d="M4.45 7.94 C4.45 7.94 4.525 8.08 4.58 8.24 C4.58 8.24 4.61 8.16 4.6425 8.0825 C4.6425 8.0825 4.675 8.005 4.715 7.935 L7.495 3.02 C7.495 3.02 7.535 2.955 7.575 2.94 C7.575 2.94 7.615 2.925 7.685 2.925 L8.04 2.925 L8.04 10 L7.59 10 L7.59 3.97 C7.59 3.97 7.59 3.84 7.605 3.695 L4.82 8.64 C4.82 8.64 4.75 8.77 4.62 8.77 L4.54 8.77 C4.54 8.77 4.415 8.77 4.34 8.64 L1.48 3.69 C1.48 3.69 1.495 3.835 1.495 3.97 L1.495 10 L1.05 10 L1.05 2.925 L1.4 2.925 C1.4 2.925 1.47 2.925 1.5125 2.94 C1.5125 2.94 1.555 2.955 1.595 3.02 L4.45 7.94 Z" id="GlLato-Light48"/>
  <path d="M6.51 10 L5.995 10 L5.995 6.61 L1.565 6.61 L1.565 10 L1.05 10 L1.05 2.925 L1.565 2.925 L1.565 6.225 L5.995 6.225 L5.995 2.925 L6.51 2.925 L6.51 10 Z" id="GlLato-Light43"/>
  <path d="M1.34 2.725 L1.34 7.16 L1.57 7.16 C1.57 7.16 1.64 7.16 1.7025 7.14 C1.7025 7.14 1.765 7.12 1.84 7.045 L3.835 5.15 C3.835 5.15 3.89 5.095 3.9475 5.06 C3.9475 5.06 4.005 5.025 4.095 5.025 L4.515 5.025 L2.32 7.11 C2.32 7.11 2.27 7.16 2.225 7.2025 C2.225 7.2025 2.18 7.245 2.125 7.275 C2.125 7.275 2.205 7.315 2.26 7.37 C2.26 7.37 2.315 7.425 2.375 7.49 L4.68 10 L4.265 10 C4.265 10 4.195 10 4.14 9.9725 C4.14 9.9725 4.085 9.945 4.03 9.885 L1.94 7.645 C1.94 7.645 1.855 7.555 1.785 7.5225 C1.785 7.5225 1.715 7.49 1.565 7.49 L1.34 7.49 L1.34 10 L0.86 10 L0.86 2.725 L1.34 2.725 Z" id="GlLato-Light78"/>
  <path d="M1.71 6.8 L1.71 10 L1.2 10 L1.2 2.925 L3.005 2.925 C3.005 2.925 4.23 2.925 4.835 3.3975 C4.835 3.3975 5.44 3.87 5.44 4.785 C5.44 4.785 5.44 5.19 5.3 5.525 C5.3 5.525 5.16 5.86 4.8975 6.1125 C4.8975 6.1125 4.635 6.365 4.265 6.5275 C4.265 6.5275 3.895 6.69 3.43 6.74 C3.43 6.74 3.55 6.815 3.645 6.94 L6.08 10 L5.635 10 C5.635 10 5.555 10 5.4975 9.97 C5.4975 9.97 5.44 9.94 5.385 9.87 L3.12 7 C3.12 7 3.035 6.89 2.9375 6.845 C2.9375 6.845 2.84 6.8 2.635 6.8 L1.71 6.8 L1.71 6.8 Z M1.71 6.42 L2.94 6.42 C2.94 6.42 3.41 6.42 3.7825 6.3075 C3.7825 6.3075 4.155 6.195 4.4125 5.985 C4.4125 5.985 4.67 5.775 4.805 5.48 C4.805 5.48 4.94 5.185 4.94 4.815 C4.94 4.815 4.94 4.06 4.445 3.695 C4.445 3.695 3.95 3.33 3.005 3.33 L1.71 3.33 L1.71 6.42 Z" id="GlLato-Light53"/>
  <path d="M0.5 6.83 L2.825 6.83 L2.825 7.235 L0.5 7.235 L0.5 6.83 Z" id="GlLato-Light16"/>
  <path d="M0.55 9.575 C0.55 9.575 0.55 9.4 0.67 9.275 C0.67 9.275 0.79 9.15 0.985 9.15 C0.985 9.15 1.2 9.15 1.3175 9.2975 C1.3175 9.2975 1.435 9.445 1.435 9.685 C1.435 9.685 1.435 9.89 1.3825 10.1025 C1.3825 10.1025 1.33 10.315 1.23 10.52 C1.23 10.52 1.13 10.725 0.99 10.915 C0.99 10.915 0.85 11.105 0.68 11.265 L0.605 11.19 C0.605 11.19 0.565 11.15 0.565 11.105 C0.565 11.105 0.565 11.08 0.58 11.055 C0.58 11.055 0.595 11.03 0.615 11.01 C0.615 11.01 0.665 10.96 0.7425 10.8625 C0.7425 10.8625 0.82 10.765 0.8975 10.6325 C0.8975 10.6325 0.975 10.5 1.0375 10.34 C1.0375 10.34 1.1 10.18 1.12 10 C1.12 10 1.09 10.01 1.0525 10.015 C1.0525 10.015 1.015 10.02 0.97 10.02 C0.97 10.02 0.785 10.02 0.6675 9.895 C0.6675 9.895 0.55 9.77 0.55 9.575 Z" id="GlLato-Light15"/>
  <path d="M3.01 2.845 C3.01 2.845 3.415 2.845 3.7825 2.9625 C3.7825 2.9625 4.15 3.08 4.43 3.3175 C4.43 3.3175 4.71 3.555 4.875 3.9125 C4.875 3.9125 5.04 4.27 5.04 4.75 C5.04 4.75 5.04 5.15 4.9175 5.4925 C4.9175 5.4925 4.795 5.835 4.585 6.15 C4.585 6.15 4.375 6.465 4.0975 6.7625 C4.0975 6.7625 3.82 7.06 3.515 7.37 L1.3 9.63 C1.3 9.63 1.46 9.59 1.6325 9.57 C1.6325 9.57 1.805 9.55 1.98 9.55 L5.035 9.55 C5.035 9.55 5.115 9.55 5.1625 9.5975 C5.1625 9.5975 5.21 9.645 5.21 9.72 L5.21 10 L0.645 10 L0.645 9.83 C0.645 9.83 0.645 9.775 0.6725 9.7175 C0.6725 9.7175 0.7 9.66 0.74 9.62 L3.155 7.175 C3.155 7.175 3.455 6.87 3.71 6.585 C3.71 6.585 3.965 6.3 4.1525 6.01 C4.1525 6.01 4.34 5.72 4.4475 5.415 C4.4475 5.415 4.555 5.11 4.555 4.765 C4.555 4.765 4.555 4.375 4.425 4.0875 C4.425 4.0875 4.295 3.8 4.0775 3.615 C4.0775 3.615 3.86 3.43 3.5775 3.34 C3.5775 3.34 3.295 3.25 2.985 3.25 C2.985 3.25 2.65 3.25 2.3675 3.3525 C2.3675 3.3525 2.085 3.455 1.8675 3.6375 C1.8675 3.6375 1.65 3.82 1.5075 4.0725 C1.5075 4.0725 1.365 4.325 1.31 4.625 C1.31 4.625 1.26 4.8 1.11 4.8 C1.11 4.8 1.1 4.8 1.085 4.7975 C1.085 4.7975 1.07 4.795 1.06 4.795 L0.82 4.755 C0.82 4.755 0.88 4.3 1.0675 3.945 C1.0675 3.945 1.255 3.59 1.54 3.345 C1.54 3.345 1.825 3.1 2.2 2.9725 C2.2 2.9725 2.575 2.845 3.01 2.845 Z" id="GlLato-Light21"/>
  <path d="M5.435 6.46 C5.435 6.46 5.435 7.39 5.235 8.07 C5.235 8.07 5.035 8.75 4.69 9.195 C4.69 9.195 4.345 9.64 3.8825 9.8575 C3.8825 9.8575 3.42 10.075 2.895 10.075 C2.895 10.075 2.37 10.075 1.91 9.8575 C1.91 9.8575 1.45 9.64 1.105 9.195 C1.105 9.195 0.76 8.75 0.5625 8.07 C0.5625 8.07 0.365 7.39 0.365 6.46 C0.365 6.46 0.365 5.53 0.5625 4.85 C0.5625 4.85 0.76 4.17 1.105 3.725 C1.105 3.725 1.45 3.28 1.91 3.0625 C1.91 3.0625 2.37 2.845 2.895 2.845 C2.895 2.845 3.42 2.845 3.8825 3.0625 C3.8825 3.0625 4.345 3.28 4.69 3.725 C4.69 3.725 5.035 4.17 5.235 4.85 C5.235 4.85 5.435 5.53 5.435 6.46 L5.435 6.46 Z M4.935 6.46 C4.935 6.46 4.935 5.6 4.77 4.99 C4.77 4.99 4.605 4.38 4.3275 3.9925 C4.3275 3.9925 4.05 3.605 3.6775 3.425 C3.6775 3.425 3.305 3.245 2.895 3.245 C2.895 3.245 2.485 3.245 2.115 3.425 C2.115 3.425 1.745 3.605 1.465 3.9925 C1.465 3.9925 1.185 4.38 1.02 4.99 C1.02 4.99 0.855 5.6 0.855 6.46 C0.855 6.46 0.855 7.325 1.02 7.9325 C1.02 7.9325 1.185 8.54 1.465 8.9275 C1.465 8.9275 1.745 9.315 2.115 9.4925 C2.115 9.4925 2.485 9.67 2.895 9.67 C2.895 9.67 3.305 9.67 3.6775 9.4925 C3.6775 9.4925 4.05 9.315 4.3275 8.9275 C4.3275 8.9275 4.605 8.54 4.77 7.9325 C4.77 7.9325 4.935 7.325 4.935 6.46 Z" id="GlLato-Light19"/>
  <path d="M1.545 9.63 L3.17 9.63 L3.17 3.89 C3.17 3.89 3.17 3.72 3.185 3.53 L1.625 4.915 C1.625 4.915 1.575 4.96 1.505 4.96 C1.505 4.96 1.42 4.96 1.375 4.9 L1.23 4.7 L3.275 2.895 L3.645 2.895 L3.645 9.63 L5.19 9.63 L5.19 10 L1.545 10 L1.545 9.63 Z" id="GlLato-Light20"/>
  <path d="M2.9 10.08 C2.9 10.08 2.39 10.08 1.9675 9.945 C1.9675 9.945 1.545 9.81 1.2425 9.555 C1.2425 9.555 0.94 9.3 0.77 8.94 C0.77 8.94 0.6 8.58 0.6 8.13 C0.6 8.13 0.6 7.74 0.7125 7.435 C0.7125 7.435 0.825 7.13 1.03 6.905 C1.03 6.905 1.235 6.68 1.5175 6.53 C1.5175 6.53 1.8 6.38 2.14 6.305 C2.14 6.305 1.83 6.215 1.59 6.06 C1.59 6.06 1.35 5.905 1.1875 5.69 C1.1875 5.69 1.025 5.475 0.94 5.2125 C0.94 5.2125 0.855 4.95 0.855 4.65 C0.855 4.65 0.855 4.275 0.9975 3.945 C0.9975 3.945 1.14 3.615 1.405 3.37 C1.405 3.37 1.67 3.125 2.0475 2.985 C2.0475 2.985 2.425 2.845 2.9 2.845 C2.9 2.845 3.37 2.845 3.7475 2.985 C3.7475 2.985 4.125 3.125 4.3925 3.37 C4.3925 3.37 4.66 3.615 4.8025 3.945 C4.8025 3.945 4.945 4.275 4.945 4.65 C4.945 4.65 4.945 4.95 4.86 5.2125 C4.86 5.2125 4.775 5.475 4.61 5.69 C4.61 5.69 4.445 5.905 4.205 6.06 C4.205 6.06 3.965 6.215 3.655 6.305 C3.655 6.305 3.995 6.38 4.2775 6.53 C4.2775 6.53 4.56 6.68 4.765 6.905 C4.765 6.905 4.97 7.13 5.085 7.435 C5.085 7.435 5.2 7.74 5.2 8.13 C5.2 8.13 5.2 8.58 5.03 8.94 C5.03 8.94 4.86 9.3 4.5575 9.555 C4.5575 9.555 4.255 9.81 3.8325 9.945 C3.8325 9.945 3.41 10.08 2.9 10.08 L2.9 10.08 Z M2.9 9.7 C2.9 9.7 3.305 9.7 3.6375 9.5875 C3.6375 9.5875 3.97 9.475 4.21 9.2675 C4.21 9.2675 4.45 9.06 4.58 8.77 C4.58 8.77 4.71 8.48 4.71 8.125 C4.71 8.125 4.71 7.66 4.54 7.35 C4.54 7.35 4.37 7.04 4.105 6.855 C4.105 6.855 3.84 6.67 3.52 6.5925 C3.52 6.5925 3.2 6.515 2.9 6.515 C2.9 6.515 2.6 6.515 2.28 6.5925 C2.28 6.5925 1.96 6.67 1.695 6.855 C1.695 6.855 1.43 7.04 1.26 7.35 C1.26 7.35 1.09 7.66 1.09 8.125 C1.09 8.125 1.09 8.48 1.22 8.77 C1.22 8.77 1.35 9.06 1.5875 9.2675 C1.5875 9.2675 1.825 9.475 2.16 9.5875 C2.16 9.5875 2.495 9.7 2.9 9.7 L2.9 9.7 Z M2.9 6.13 C2.9 6.13 3.305 6.13 3.6025 6.0075 C3.6025 6.0075 3.9 5.885 4.095 5.6775 C4.095 5.6775 4.29 5.47 4.3825 5.205 C4.3825 5.205 4.475 4.94 4.475 4.655 C4.475 4.655 4.475 4.35 4.37 4.0875 C4.37 4.0875 4.265 3.825 4.0625 3.63 C4.0625 3.63 3.86 3.435 3.5675 3.325 C3.5675 3.325 3.275 3.215 2.9 3.215 C2.9 3.215 2.525 3.215 2.23 3.325 C2.23 3.325 1.935 3.435 1.7325 3.63 C1.7325 3.63 1.53 3.825 1.425 4.0875 C1.425 4.0875 1.32 4.35 1.32 4.655 C1.32 4.655 1.32 4.94 1.4125 5.205 C1.4125 5.205 1.505 5.47 1.7 5.6775 C1.7 5.6775 1.895 5.885 2.1925 6.0075 C2.1925 6.0075 2.49 6.13 2.9 6.13 Z" id="GlLato-Light27"/>
 </defs>
 <g inkscape:groupmode="layer" id="Background" inkscape:label="Background">
  <path d="M0 0 L613.499 0 L613.499 791.5 L0 791.5 L0 0 Z" transform="translate(0, 0)" style="fill:url(#Grad0); fill-rule:evenodd;stroke:none;"/>
  <g transform="translate(0, 95.998)">
   <use transform="matrix(3.2 0 0 3.2 145.925 -8.71)" style="fill:#ffffff;stroke:none;" xlink:href="#GlLato-Light58"/>
   <use transform="matrix(3.2 0 0 3.2 177.225 -8.71)" style="fill:#ffffff;stroke:none;" xlink:href="#GlLato-Light72"/>
   <use transform="matrix(3.2 0 0 3.2 193.625 -8.71)" style="fill:#ffffff;stroke:none;" xlink:href="#GlLato-Light69"/>
   <use transform="matrix(3.2 0 0 3.2 211.125 -8.71)" style="fill:#ffffff;stroke:none;" xlink:href="#GlLato-Light72"/>
   <use transform="matrix(3.2 0 0 3.2 227.525 -8.71)" style="fill:#ffffff;stroke:none;" xlink:href="#GlLato-Light85"/>
   <use transform="matrix(3.2 0 0 3.2 240.225 -8.71)" style="fill:#ffffff;stroke:none;" xlink:href="#GlLato-Light3"/>
   <use transform="matrix(3.2 0 0 3.2 246.425 -8.71)" style="fill:#ffffff;stroke:none;" xlink:href="#GlLato-Light54"/>
   <use transform="matrix(3.2 0 0 3.2 263.125 -8.71)" style="fill:#ffffff;stroke:none;" xlink:href="#GlLato-Light87"/>
   <use transform="matrix(3.2 0 0 3.2 274.525 -8.71)" style="fill:#ffffff;stroke:none;" xlink:href="#GlLato-Light68"/>
   <use transform="matrix(3.2 0 0 3.2 290.125 -8.71)" style="fill:#ffffff;stroke:none;" xlink:href="#GlLato-Light87"/>
   <use transform="matrix(3.2 0 0 3.2 301.525 -8.71)" style="fill:#ffffff;stroke:none;" xlink:href="#GlLato-Light72"/>
   <use transform="matrix(3.2 0 0 3.2 317.925 -8.71)" style="fill:#ffffff;stroke:none;" xlink:href="#GlLato-Light3"/>
   <use transform="matrix(3.2 0 0 3.2 324.125 -8.71)" style="fill:#ffffff;stroke:none;" xlink:href="#GlLato-Light56"/>
   <use transform="matrix(3.2 0 0 3.2 347.625 -8.71)" style="fill:#ffffff;stroke:none;" xlink:href="#GlLato-Light81"/>
   <use transform="matrix(3.2 0 0 3.2 364.925 -8.71)" style="fill:#ffffff;stroke:none;" xlink:href="#GlLato-Light76"/>
   <use transform="matrix(3.2 0 0 3.2 372.525 -8.71)" style="fill:#ffffff;stroke:none;" xlink:href="#GlLato-Light89"/>
   <use transform="matrix(3.2 0 0 3.2 387.825 -8.71)" style="fill:#ffffff;stroke:none;" xlink:href="#GlLato-Light72"/>
   <use transform="matrix(3.2 0 0 3.2 404.225 -8.71)" style="fill:#ffffff;stroke:none;" xlink:href="#GlLato-Light85"/>
   <use transform="matrix(3.2 0 0 3.2 416.925 -8.71)" style="fill:#ffffff;stroke:none;" xlink:href="#GlLato-Light86"/>
   <use transform="matrix(3.2 0 0 3.2 430.725 -8.71)" style="fill:#ffffff;stroke:none;" xlink:href="#GlLato-Light76"/>
   <use transform="matrix(3.2 0 0 3.2 438.325 -8.71)" style="fill:#ffffff;stroke:none;" xlink:href="#GlLato-Light87"/>
   <use transform="matrix(3.2 0 0 3.2 449.725 -8.71)" style="fill:#ffffff;stroke:none;" xlink:href="#GlLato-Light92"/>
   <path d="M0 0 L612 0 L612 49.3353 L0 49.3353 L0 0 Z" style="fill:none; stroke:none;"/>
  </g>
  <g transform="translate(0, 145.333)">
   <use transform="matrix(2.4 0 0 2.4 178.775 -6.53)" style="fill:#ffffff;stroke:none;" xlink:href="#GlLato-Light54"/>
   <use transform="matrix(2.4 0 0 2.4 191.275 -6.53)" style="fill:#ffffff;stroke:none;" xlink:href="#GlLato-Light75"/>
   <use transform="matrix(2.4 0 0 2.4 204.275 -6.53)" style="fill:#ffffff;stroke:none;" xlink:href="#GlLato-Light72"/>
   <use transform="matrix(2.4 0 0 2.4 216.575 -6.53)" style="fill:#ffffff;stroke:none;" xlink:href="#GlLato-Light83"/>
   <use transform="matrix(2.4 0 0 2.4 229.375 -6.53)" style="fill:#ffffff;stroke:none;" xlink:href="#GlLato-Light75"/>
   <use transform="matrix(2.4 0 0 2.4 242.375 -6.53)" style="fill:#ffffff;stroke:none;" xlink:href="#GlLato-Light72"/>
   <use transform="matrix(2.4 0 0 2.4 254.675 -6.53)" style="fill:#ffffff;stroke:none;" xlink:href="#GlLato-Light85"/>
   <use transform="matrix(2.4 0 0 2.4 264.175 -6.53)" style="fill:#ffffff;stroke:none;" xlink:href="#GlLato-Light71"/>
   <use transform="matrix(2.4 0 0 2.4 277.275 -6.53)" style="fill:#ffffff;stroke:none;" xlink:href="#GlLato-Light3"/>
   <use transform="matrix(2.4 0 0 2.4 281.875 -6.53)" style="fill:#ffffff;stroke:none;" xlink:href="#GlLato-Light56"/>
   <use transform="matrix(2.4 0 0 2.4 299.475 -6.53)" style="fill:#ffffff;stroke:none;" xlink:href="#GlLato-Light81"/>
   <use transform="matrix(2.4 0 0 2.4 312.475 -6.53)" style="fill:#ffffff;stroke:none;" xlink:href="#GlLato-Light76"/>
   <use transform="matrix(2.4 0 0 2.4 318.175 -6.53)" style="fill:#ffffff;stroke:none;" xlink:href="#GlLato-Light82"/>
   <use transform="matrix(2.4 0 0 2.4 331.175 -6.53)" style="fill:#ffffff;stroke:none;" xlink:href="#GlLato-Light81"/>
   <use transform="matrix(2.4 0 0 2.4 344.175 -6.53)" style="fill:#ffffff;stroke:none;" xlink:href="#GlLato-Light3"/>
   <use transform="matrix(2.4 0 0 2.4 348.775 -6.53)" style="fill:#ffffff;stroke:none;" xlink:href="#GlLato-Light37"/>
   <use transform="matrix(2.4 0 0 2.4 364.175 -6.53)" style="fill:#ffffff;stroke:none;" xlink:href="#GlLato-Light88"/>
   <use transform="matrix(2.4 0 0 2.4 377.175 -6.53)" style="fill:#ffffff;stroke:none;" xlink:href="#GlLato-Light76"/>
   <use transform="matrix(2.4 0 0 2.4 382.875 -6.53)" style="fill:#ffffff;stroke:none;" xlink:href="#GlLato-Light79"/>
   <use transform="matrix(2.4 0 0 2.4 388.575 -6.53)" style="fill:#ffffff;stroke:none;" xlink:href="#GlLato-Light71"/>
   <use transform="matrix(2.4 0 0 2.4 401.675 -6.53)" style="fill:#ffffff;stroke:none;" xlink:href="#GlLato-Light76"/>
   <use transform="matrix(2.4 0 0 2.4 407.375 -6.53)" style="fill:#ffffff;stroke:none;" xlink:href="#GlLato-Light81"/>
   <use transform="matrix(2.4 0 0 2.4 420.375 -6.53)" style="fill:#ffffff;stroke:none;" xlink:href="#GlLato-Light74"/>
   <path d="M0 0 L612 0 L612 49.3353 L0 49.3353 L0 0 Z" style="fill:none; stroke:none;"/>
  </g>
  <g transform="translate(115.333, 396)">
   <use transform="matrix(4.8 0 0 4.8 9.675 -13.07)" style="fill:#ffffff;stroke:none;" xlink:href="#GlLato-Light37"/>
   <use transform="matrix(4.8 0 0 4.8 40.475 -13.07)" style="fill:#ffffff;stroke:none;" xlink:href="#GlLato-Light88"/>
   <use transform="matrix(4.8 0 0 4.8 66.475 -13.07)" style="fill:#ffffff;stroke:none;" xlink:href="#GlLato-Light76"/>
   <use transform="matrix(4.8 0 0 4.8 77.875 -13.07)" style="fill:#ffffff;stroke:none;" xlink:href="#GlLato-Light79"/>
   <use transform="matrix(4.8 0 0 4.8 89.275 -13.07)" style="fill:#ffffff;stroke:none;" xlink:href="#GlLato-Light71"/>
   <use transform="matrix(4.8 0 0 4.8 115.475 -13.07)" style="fill:#ffffff;stroke:none;" xlink:href="#GlLato-Light76"/>
   <use transform="matrix(4.8 0 0 4.8 126.875 -13.07)" style="fill:#ffffff;stroke:none;" xlink:href="#GlLato-Light81"/>
   <use transform="matrix(4.8 0 0 4.8 152.875 -13.07)" style="fill:#ffffff;stroke:none;" xlink:href="#GlLato-Light74"/>
   <use transform="matrix(4.8 0 0 4.8 177.075 -13.07)" style="fill:#ffffff;stroke:none;" xlink:href="#GlLato-Light3"/>
   <use transform="matrix(4.8 0 0 4.8 186.375 -13.07)" style="fill:#ffffff;stroke:none;" xlink:href="#GlLato-Light48"/>
   <use transform="matrix(4.8 0 0 4.8 229.975 -13.07)" style="fill:#ffffff;stroke:none;" xlink:href="#GlLato-Light68"/>
   <use transform="matrix(4.8 0 0 4.8 253.375 -13.07)" style="fill:#ffffff;stroke:none;" xlink:href="#GlLato-Light81"/>
   <use transform="matrix(4.8 0 0 4.8 279.375 -13.07)" style="fill:#ffffff;stroke:none;" xlink:href="#GlLato-Light68"/>
   <use transform="matrix(4.8 0 0 4.8 302.775 -13.07)" style="fill:#ffffff;stroke:none;" xlink:href="#GlLato-Light74"/>
   <use transform="matrix(4.8 0 0 4.8 326.975 -13.07)" style="fill:#ffffff;stroke:none;" xlink:href="#GlLato-Light72"/>
   <use transform="matrix(4.8 0 0 4.8 351.475 -13.07)" style="fill:#ffffff;stroke:none;" xlink:href="#GlLato-Light85"/>
   <use transform="matrix(4.8 0 0 4.8 370.575 -13.07)" style="fill:#ffffff;stroke:none;" xlink:href="#GlLato-Light3"/>
   <use transform="matrix(4.8 0 0 4.8 83.275 44.53)" style="fill:#ffffff;stroke:none;" xlink:href="#GlLato-Light43"/>
   <use transform="matrix(4.8 0 0 4.8 119.575 44.53)" style="fill:#ffffff;stroke:none;" xlink:href="#GlLato-Light68"/>
   <use transform="matrix(4.8 0 0 4.8 142.975 44.53)" style="fill:#ffffff;stroke:none;" xlink:href="#GlLato-Light81"/>
   <use transform="matrix(4.8 0 0 4.8 168.975 44.53)" style="fill:#ffffff;stroke:none;" xlink:href="#GlLato-Light71"/>
   <use transform="matrix(4.8 0 0 4.8 195.175 44.53)" style="fill:#ffffff;stroke:none;" xlink:href="#GlLato-Light69"/>
   <use transform="matrix(4.8 0 0 4.8 221.375 44.53)" style="fill:#ffffff;stroke:none;" xlink:href="#GlLato-Light82"/>
   <use transform="matrix(4.8 0 0 4.8 247.375 44.53)" style="fill:#ffffff;stroke:none;" xlink:href="#GlLato-Light82"/>
   <use transform="matrix(4.8 0 0 4.8 273.375 44.53)" style="fill:#ffffff;stroke:none;" xlink:href="#GlLato-Light78"/>
   <path d="M0 0 L381.333 0 L381.333 125.333 L0 125.333 L0 0 Z" style="fill:none; stroke:none;"/>
  </g>
  <g transform="translate(0, 660)">
   <use transform="matrix(1.4 0 0 1.4 235.575 -3.805)" style="fill:#ffffff;stroke:none;" xlink:href="#GlLato-Light53"/>
   <use transform="matrix(1.4 0 0 1.4 244.375 -3.805)" style="fill:#ffffff;stroke:none;" xlink:href="#GlLato-Light72"/>
   <use transform="matrix(1.4 0 0 1.4 251.575 -3.805)" style="fill:#ffffff;stroke:none;" xlink:href="#GlLato-Light16"/>
   <use transform="matrix(1.4 0 0 1.4 256.275 -3.805)" style="fill:#ffffff;stroke:none;" xlink:href="#GlLato-Light71"/>
   <use transform="matrix(1.4 0 0 1.4 263.875 -3.805)" style="fill:#ffffff;stroke:none;" xlink:href="#GlLato-Light72"/>
   <use transform="matrix(1.4 0 0 1.4 271.075 -3.805)" style="fill:#ffffff;stroke:none;" xlink:href="#GlLato-Light86"/>
   <use transform="matrix(1.4 0 0 1.4 277.075 -3.805)" style="fill:#ffffff;stroke:none;" xlink:href="#GlLato-Light76"/>
   <use transform="matrix(1.4 0 0 1.4 280.375 -3.805)" style="fill:#ffffff;stroke:none;" xlink:href="#GlLato-Light74"/>
   <use transform="matrix(1.4 0 0 1.4 287.475 -3.805)" style="fill:#ffffff;stroke:none;" xlink:href="#GlLato-Light81"/>
   <use transform="matrix(1.4 0 0 1.4 295.075 -3.805)" style="fill:#ffffff;stroke:none;" xlink:href="#GlLato-Light72"/>
   <use transform="matrix(1.4 0 0 1.4 302.275 -3.805)" style="fill:#ffffff;stroke:none;" xlink:href="#GlLato-Light71"/>
   <use transform="matrix(1.4 0 0 1.4 309.875 -3.805)" style="fill:#ffffff;stroke:none;" xlink:href="#GlLato-Light3"/>
   <use transform="matrix(1.4 0 0 1.4 312.575 -3.805)" style="fill:#ffffff;stroke:none;" xlink:href="#GlLato-Light48"/>
   <use transform="matrix(1.4 0 0 1.4 325.275 -3.805)" style="fill:#ffffff;stroke:none;" xlink:href="#GlLato-Light68"/>
   <use transform="matrix(1.4 0 0 1.4 331.875 -3.805)" style="fill:#ffffff;stroke:none;" xlink:href="#GlLato-Light92"/>
   <use transform="matrix(1.4 0 0 1.4 337.775 -3.805)" style="fill:#ffffff;stroke:none;" xlink:href="#GlLato-Light15"/>
   <use transform="matrix(1.4 0 0 1.4 340.575 -3.805)" style="fill:#ffffff;stroke:none;" xlink:href="#GlLato-Light3"/>
   <use transform="matrix(1.4 0 0 1.4 343.275 -3.805)" style="fill:#ffffff;stroke:none;" xlink:href="#GlLato-Light21"/>
   <use transform="matrix(1.4 0 0 1.4 351.375 -3.805)" style="fill:#ffffff;stroke:none;" xlink:href="#GlLato-Light19"/>
   <use transform="matrix(1.4 0 0 1.4 359.475 -3.805)" style="fill:#ffffff;stroke:none;" xlink:href="#GlLato-Light20"/>
   <use transform="matrix(1.4 0 0 1.4 367.575 -3.805)" style="fill:#ffffff;stroke:none;" xlink:href="#GlLato-Light27"/>
   <path d="M0 0 L612 0 L612 49.3353 L0 49.3353 L0 0 Z" style="fill:none; stroke:none;"/>
  </g>
 </g>
</svg>
