<?xml version="1.0" encoding="UTF-8"?>
<svg xmlns:xlink="http://www.w3.org/1999/xlink" xmlns:inkscape="http://www.inkscape.org/namespaces/inkscape" viewBox="0 0 612 792" width="612pt" height="792pt" version="1.1" xmlns="http://www.w3.org/2000/svg">
 <defs>
  <path d="M2.68 10.12 C2.68 10.12 1.5 10.12 0.995 9.395 C0.995 9.395 0.49 8.67 0.49 7.32 L0.49 4.61 C0.49 4.61 0.49 3.23 1.025 2.515 C1.025 2.515 1.56 1.8 2.86 1.8 C2.86 1.8 4.11 1.8 4.64 2.41 C4.64 2.41 5.17 3.02 5.17 4.17 L5.17 4.64 L3.57 4.64 L3.57 4.07 C3.57 4.07 3.57 3.51 3.445 3.245 C3.445 3.245 3.32 2.98 2.88 2.98 C2.88 2.98 2.43 2.98 2.3 3.28 C2.3 3.28 2.17 3.58 2.17 4.15 L2.17 7.75 C2.17 7.75 2.17 8.32 2.33 8.625 C2.33 8.625 2.49 8.93 2.93 8.93 C2.93 8.93 3.36 8.93 3.535 8.605 C3.535 8.605 3.71 8.28 3.71 7.7 L3.71 6.84 L2.92 6.84 L2.92 5.84 L5.2 5.84 L5.2 10 L4.12 10 L4.01 9.28 C4.01 9.28 3.64 10.12 2.68 10.12 Z" id="GlOswald-SemiBold73"/>
  <path d="M0.53 2.14 L2.05 2.14 L2.05 3.27 L0.53 3.27 L0.53 2.14 L0.53 2.14 Z M0.54 4.22 L2.05 4.22 L2.05 10 L0.54 10 L0.54 4.22 Z" id="GlOswald-SemiBold301"/>
  <path d="M0.52 4.22 L1.99 4.22 L1.99 4.7 C1.99 4.7 2.57 4.11 3.35 4.11 C3.35 4.11 3.69 4.11 3.945 4.285 C3.945 4.285 4.2 4.46 4.33 4.81 C4.33 4.81 4.95 4.11 5.8 4.11 C5.8 4.11 6.3 4.11 6.595 4.475 C6.595 4.475 6.89 4.84 6.89 5.5 L6.89 10 L5.43 10 L5.43 5.65 C5.43 5.65 5.43 5.37 5.335 5.255 C5.335 5.255 5.24 5.14 5.05 5.14 C5.05 5.14 4.92 5.14 4.755 5.21 C4.755 5.21 4.59 5.28 4.44 5.41 L4.44 5.5 L4.44 10 L2.98 10 L2.98 5.65 C2.98 5.65 2.98 5.37 2.885 5.255 C2.885 5.255 2.79 5.14 2.6 5.14 C2.6 5.14 2.47 5.14 2.305 5.21 C2.305 5.21 2.14 5.28 1.99 5.41 L1.99 10 L0.52 10 L0.52 4.22 Z" id="GlOswald-SemiBold331"/>
  <path d="M2.35 10.1 C2.35 10.1 1.41 10.1 0.905 9.6 C0.905 9.6 0.4 9.1 0.4 8.15 L0.4 6.07 C0.4 6.07 0.4 5.12 0.905 4.62 C0.905 4.62 1.41 4.12 2.35 4.12 C2.35 4.12 3.29 4.12 3.795 4.62 C3.795 4.62 4.3 5.12 4.3 6.07 L4.3 8.15 C4.3 8.15 4.3 9.1 3.795 9.6 C3.795 9.6 3.29 10.1 2.35 10.1 L2.35 10.1 Z M2.36 9.08 C2.36 9.08 2.62 9.08 2.715 8.875 C2.715 8.875 2.81 8.67 2.81 8.26 L2.81 5.97 C2.81 5.97 2.81 5.56 2.715 5.35 C2.715 5.35 2.62 5.14 2.36 5.14 C2.36 5.14 2.09 5.14 1.99 5.355 C1.99 5.355 1.89 5.57 1.89 5.97 L1.89 8.26 C1.89 8.26 1.89 8.66 1.99 8.87 C1.99 8.87 2.09 9.08 2.36 9.08 Z" id="GlOswald-SemiBold341"/>
  <path d="" id="GlOswald-SemiBold3"/>
  <path d="M1.68 10.1 C1.68 10.1 1.28 10.1 0.98 9.9 C0.98 9.9 0.68 9.7 0.525 9.375 C0.525 9.375 0.37 9.05 0.37 8.7 C0.37 8.7 0.37 8.03 0.7 7.6 C0.7 7.6 1.03 7.17 1.495 6.93 C1.495 6.93 1.96 6.69 2.73 6.41 L2.73 5.87 C2.73 5.87 2.73 5.56 2.645 5.4 C2.645 5.4 2.56 5.24 2.34 5.24 C2.34 5.24 2.12 5.24 2.03 5.38 C2.03 5.38 1.94 5.52 1.92 5.78 L1.89 6.18 L0.47 6.12 C0.47 6.12 0.51 5.09 1 4.605 C1 4.605 1.49 4.12 2.47 4.12 C2.47 4.12 3.32 4.12 3.75 4.59 C3.75 4.59 4.18 5.06 4.18 5.88 L4.18 8.57 C4.18 8.57 4.18 9.25 4.28 10 L2.93 10 C2.93 10 2.89 9.71 2.8 9.17 C2.8 9.17 2.68 9.57 2.395 9.835 C2.395 9.835 2.11 10.1 1.68 10.1 L1.68 10.1 Z M2.22 9.03 C2.22 9.03 2.37 9.03 2.505 8.93 C2.505 8.93 2.64 8.83 2.73 8.7 L2.73 7.11 C2.73 7.11 2.26 7.38 2.01 7.67 C2.01 7.67 1.76 7.96 1.76 8.38 C1.76 8.38 1.76 8.69 1.88 8.86 C1.88 8.86 2 9.03 2.22 9.03 Z" id="GlOswald-SemiBold221"/>
  <path d="M2.34 10.1 C2.34 10.1 1.39 10.1 0.895 9.58 C0.895 9.58 0.4 9.06 0.4 8.08 L0.4 6.14 C0.4 6.14 0.4 5.16 0.9 4.64 C0.9 4.64 1.4 4.12 2.34 4.12 C2.34 4.12 3.31 4.12 3.76 4.64 C3.76 4.64 4.21 5.16 4.21 6.18 L4.21 7.19 L1.9 7.19 L1.9 8.31 C1.9 8.31 1.9 8.68 2.015 8.85 C2.015 8.85 2.13 9.02 2.35 9.02 C2.35 9.02 2.8 9.02 2.8 8.37 L2.8 7.81 L4.2 7.81 L4.2 8.31 C4.2 8.31 4.2 9.18 3.72 9.64 C3.72 9.64 3.24 10.1 2.34 10.1 L2.34 10.1 Z M2.8 6.47 L2.8 5.91 C2.8 5.91 2.8 5.53 2.69 5.365 C2.69 5.365 2.58 5.2 2.34 5.2 C2.34 5.2 2.11 5.2 2.005 5.38 C2.005 5.38 1.9 5.56 1.9 6.02 L1.9 6.47 L2.8 6.47 Z" id="GlOswald-SemiBold264"/>
  <path d="M2.2 10.1 C2.2 10.1 1.45 10.1 0.96 9.735 C0.96 9.735 0.47 9.37 0.21 8.61 L1.27 8.17 C1.27 8.17 1.57 9.06 2.12 9.06 C2.12 9.06 2.33 9.06 2.435 8.965 C2.435 8.965 2.54 8.87 2.54 8.7 C2.54 8.7 2.54 8.47 2.395 8.29 C2.395 8.29 2.25 8.11 1.82 7.74 L1.28 7.28 C1.28 7.28 0.8 6.87 0.57 6.52 C0.57 6.52 0.34 6.17 0.34 5.68 C0.34 5.68 0.34 5.22 0.57 4.865 C0.57 4.865 0.8 4.51 1.195 4.315 C1.195 4.315 1.59 4.12 2.06 4.12 C2.06 4.12 2.76 4.12 3.215 4.515 C3.215 4.515 3.67 4.91 3.84 5.62 L2.86 6.06 C2.86 6.06 2.77 5.7 2.57 5.445 C2.57 5.445 2.37 5.19 2.1 5.19 C2.1 5.19 1.92 5.19 1.81 5.295 C1.81 5.295 1.7 5.4 1.7 5.57 C1.7 5.57 1.7 5.74 1.87 5.935 C1.87 5.935 2.04 6.13 2.4 6.44 L2.94 6.92 C2.94 6.92 3.41 7.32 3.675 7.69 C3.675 7.69 3.94 8.06 3.94 8.55 C3.94 8.55 3.94 9.03 3.705 9.38 C3.705 9.38 3.47 9.73 3.07 9.915 C3.07 9.915 2.67 10.1 2.2 10.1 Z" id="GlOswald-SemiBold382"/>
  <path d="M2.7 10.11 C2.7 10.11 1.58 10.11 1.02 9.495 C1.02 9.495 0.46 8.88 0.41 7.59 L1.83 7.35 C1.83 7.35 1.85 8.12 2.045 8.485 C2.045 8.485 2.24 8.85 2.63 8.85 C2.63 8.85 2.92 8.85 3.05 8.665 C3.05 8.665 3.18 8.48 3.18 8.19 C3.18 8.19 3.18 7.71 2.965 7.375 C2.965 7.375 2.75 7.04 2.29 6.64 L1.45 5.91 C1.45 5.91 0.95 5.49 0.685 5.01 C0.685 5.01 0.42 4.53 0.42 3.86 C0.42 3.86 0.42 2.87 1.005 2.335 C1.005 2.335 1.59 1.8 2.62 1.8 C2.62 1.8 3.72 1.8 4.15 2.435 C4.15 2.435 4.58 3.07 4.64 4.05 L3.21 4.26 C3.21 4.26 3.19 3.62 3.065 3.315 C3.065 3.315 2.94 3.01 2.57 3.01 C2.57 3.01 2.3 3.01 2.15 3.215 C2.15 3.215 2 3.42 2 3.7 C2 3.7 2 4.1 2.175 4.375 C2.175 4.375 2.35 4.65 2.73 4.98 L3.55 5.7 C3.55 5.7 4.13 6.21 4.46 6.775 C4.46 6.775 4.79 7.34 4.79 8.1 C4.79 8.1 4.79 8.68 4.53 9.135 C4.53 9.135 4.27 9.59 3.795 9.85 C3.795 9.85 3.32 10.11 2.7 10.11 Z" id="GlOswald-SemiBold164"/>
  <path d="M2.25 10.07 C2.25 10.07 1.38 10.07 1.045 9.68 C1.045 9.68 0.71 9.29 0.71 8.49 L0.71 5.21 L0.14 5.21 L0.14 4.22 L0.71 4.22 L0.71 2.48 L2.24 2.48 L2.24 4.22 L3.08 4.22 L3.08 5.21 L2.24 5.21 L2.24 8.34 C2.24 8.34 2.24 8.85 2.75 8.85 C2.75 8.85 3.02 8.85 3.18 8.81 L3.18 9.99 C3.18 9.99 2.65 10.07 2.25 10.07 Z" id="GlOswald-SemiBold391"/>
  <path d="M0.62 10.57 C0.62 10.57 1.13 10.57 1.355 10.465 C1.355 10.465 1.58 10.36 1.58 10.09 C1.58 10.09 1.58 9.96 1.515 9.68 C1.515 9.68 1.45 9.4 1.37 9.1 L0.05 4.22 L1.49 4.22 L2.22 7.77 L2.82 4.22 L4.26 4.22 L2.92 10.18 C2.92 10.18 2.74 10.98 2.25 11.305 C2.25 11.305 1.76 11.63 0.94 11.63 L0.62 11.63 L0.62 10.57 Z" id="GlOswald-SemiBold426"/>
  <path d="M0.59 1.9 L2.09 1.9 L2.09 10 L0.59 10 L0.59 1.9 Z" id="GlOswald-SemiBold324"/>
  <path d="M1.49 10.1 C1.49 10.1 0.99 10.1 0.725 9.73 C0.725 9.73 0.46 9.36 0.46 8.78 L0.46 4.22 L1.97 4.22 L1.97 8.57 C1.97 8.57 1.97 8.81 2.055 8.93 C2.055 8.93 2.14 9.05 2.34 9.05 C2.34 9.05 2.55 9.05 2.87 8.83 L2.87 4.22 L4.38 4.22 L4.38 10 L2.87 10 L2.87 9.46 C2.87 9.46 2.18 10.1 1.49 10.1 Z" id="GlOswald-SemiBold397"/>
  <path d="M1.78 10.1 C1.78 10.1 0.42 10.1 0.42 8.19 L0.42 6.07 C0.42 6.07 0.42 5.18 0.76 4.65 C0.76 4.65 1.1 4.12 1.78 4.12 C1.78 4.12 2.35 4.12 2.88 4.58 L2.88 1.9 L4.39 1.9 L4.39 10 L2.88 10 L2.88 9.57 C2.88 9.57 2.35 10.1 1.78 10.1 L1.78 10.1 Z M2.4 9.1 C2.4 9.1 2.62 9.1 2.88 8.93 L2.88 5.25 C2.88 5.25 2.62 5.1 2.4 5.1 C2.4 5.1 2.16 5.1 2.05 5.305 C2.05 5.305 1.94 5.51 1.94 5.85 L1.94 8.3 C1.94 8.3 1.94 9.1 2.4 9.1 Z" id="GlOswald-SemiBold257"/>
  <path d="M1.78 1.9 L3.61 1.9 L5.17 10 L3.65 10 L3.35 8.22 L2.07 8.22 L1.76 10 L0.21 10 L1.78 1.9 L1.78 1.9 Z M3.19 7.2 L2.7 3.94 L2.22 7.2 L3.19 7.2 Z" id="GlOswald-SemiBold4"/>
  <path d="M0.54 4.22 L2.05 4.22 L2.05 5.15 C2.05 5.15 2.35 4.63 2.635 4.39 C2.635 4.39 2.92 4.15 3.3 4.15 C3.3 4.15 3.39 4.15 3.53 4.17 L3.53 5.71 C3.53 5.71 3.27 5.59 2.99 5.59 C2.99 5.59 2.44 5.59 2.05 6.15 L2.05 10 L0.54 10 L0.54 4.22 Z" id="GlOswald-SemiBold376"/>
  <path d="M2.33 10.1 C2.33 10.1 1.38 10.1 0.89 9.57 C0.89 9.57 0.4 9.04 0.4 8.08 L0.4 6.13 C0.4 6.13 0.4 5.16 0.89 4.64 C0.89 4.64 1.38 4.12 2.33 4.12 C2.33 4.12 3.26 4.12 3.735 4.56 C3.735 4.56 4.21 5 4.21 5.88 L4.21 6.43 L2.76 6.43 L2.76 5.84 C2.76 5.84 2.76 5.46 2.66 5.315 C2.66 5.315 2.56 5.17 2.34 5.17 C2.34 5.17 2.1 5.17 2.005 5.35 C2.005 5.35 1.91 5.53 1.91 5.98 L1.91 8.26 C1.91 8.26 1.91 8.71 2.015 8.88 C2.015 8.88 2.12 9.05 2.34 9.05 C2.34 9.05 2.57 9.05 2.665 8.89 C2.665 8.89 2.76 8.73 2.76 8.38 L2.76 7.68 L4.21 7.68 L4.21 8.32 C4.21 8.32 4.21 9.19 3.73 9.645 C3.73 9.645 3.25 10.1 2.33 10.1 Z" id="GlOswald-SemiBold251"/>
  <path d="M0.75 5.25 L0.17 5.25 L0.17 4.22 L0.75 4.22 L0.75 3.82 C0.75 3.82 0.75 3.24 0.86 2.88 C0.86 2.88 0.97 2.52 1.295 2.32 C1.295 2.32 1.62 2.12 2.26 2.12 C2.26 2.12 2.67 2.12 3.03 2.17 L3.03 3.29 C3.03 3.29 2.78 3.24 2.67 3.24 C2.67 3.24 2.26 3.24 2.26 3.75 L2.26 4.22 L3.03 4.22 L3.03 5.25 L2.26 5.25 L2.26 10 L0.75 10 L0.75 5.25 Z" id="GlOswald-SemiBold287"/>
  <path d="M0.52 4.22 L2.02 4.22 L2.02 4.8 C2.02 4.8 2.72 4.12 3.42 4.12 C3.42 4.12 3.92 4.12 4.185 4.49 C4.185 4.49 4.45 4.86 4.45 5.44 L4.45 10 L2.94 10 L2.94 5.68 C2.94 5.68 2.94 5.44 2.86 5.325 C2.86 5.325 2.78 5.21 2.59 5.21 C2.59 5.21 2.36 5.21 2.02 5.45 L2.02 10 L0.52 10 L0.52 4.22 Z" id="GlOswald-SemiBold333"/>
  <path d="M2.31 11.95 C2.31 11.95 1.35 11.95 0.795 11.66 C0.795 11.66 0.24 11.37 0.24 10.8 C0.24 10.8 0.24 10.04 1.13 9.65 C1.13 9.65 0.37 9.45 0.37 8.8 C0.37 8.8 0.37 8.48 0.525 8.23 C0.525 8.23 0.68 7.98 1.01 7.69 C1.01 7.69 0.72 7.44 0.575 7.065 C0.575 7.065 0.43 6.69 0.43 6.15 C0.43 6.15 0.43 5.16 0.935 4.64 C0.935 4.64 1.44 4.12 2.4 4.12 C2.4 4.12 3.29 4.12 3.73 4.62 C3.73 4.62 3.83 4.45 4.02 4.29 C4.02 4.29 4.21 4.13 4.45 4.02 L4.65 3.92 L5.01 4.68 C5.01 4.68 4.86 4.73 4.56 4.855 C4.56 4.855 4.26 4.98 4.09 5.08 C4.09 5.08 4.19 5.29 4.245 5.58 C4.245 5.58 4.3 5.87 4.3 6.16 C4.3 6.16 4.3 7.11 3.825 7.63 C3.825 7.63 3.35 8.15 2.4 8.15 C2.4 8.15 1.9 8.15 1.51 8.01 C1.51 8.01 1.35 8.21 1.35 8.38 C1.35 8.38 1.35 8.5 1.47 8.57 C1.47 8.57 1.59 8.64 1.88 8.67 L3.27 8.82 C3.27 8.82 4.69 8.98 4.69 10.31 C4.69 10.31 4.69 11.14 4.125 11.545 C4.125 11.545 3.56 11.95 2.31 11.95 L2.31 11.95 Z M2.4 7.23 C2.4 7.23 2.7 7.23 2.8 6.995 C2.8 6.995 2.9 6.76 2.9 6.15 C2.9 6.15 2.9 5.53 2.8 5.285 C2.8 5.285 2.7 5.04 2.4 5.04 C2.4 5.04 2.1 5.04 1.995 5.29 C1.995 5.29 1.89 5.54 1.89 6.15 C1.89 6.15 1.89 6.73 1.995 6.98 C1.995 6.98 2.1 7.23 2.4 7.23 L2.4 7.23 Z M2.5 10.85 C2.5 10.85 3.08 10.85 3.355 10.745 C3.355 10.745 3.63 10.64 3.63 10.37 C3.63 10.37 3.63 10.14 3.45 10.035 C3.45 10.035 3.27 9.93 2.78 9.89 L1.74 9.78 C1.74 9.78 1.57 9.93 1.475 10.065 C1.475 10.065 1.38 10.2 1.38 10.36 C1.38 10.36 1.38 10.61 1.64 10.73 C1.64 10.73 1.9 10.85 2.5 10.85 Z" id="GlOswald-SemiBold289"/>
  <path d="M5.86 9.04 C5.86 9.04 4.92 10.05 3.7 10.05 C3.7 10.05 2.99 10.05 2.385 9.74 C2.385 9.74 1.78 9.43 1.34 8.925 C1.34 8.925 0.9 8.42 0.645 7.77 C0.645 7.77 0.39 7.12 0.39 6.43 C0.39 6.43 0.39 5.71 0.64 5.065 C0.64 5.065 0.89 4.42 1.33 3.925 C1.33 3.925 1.77 3.43 2.38 3.14 C2.38 3.14 2.99 2.85 3.7 2.85 C3.7 2.85 4.73 2.85 5.395 3.28 C5.395 3.28 6.06 3.71 6.41 4.4 L5.72 4.88 C5.72 4.88 5.4 4.26 4.87 3.96 C4.87 3.96 4.34 3.66 3.68 3.66 C3.68 3.66 3.14 3.66 2.7 3.895 C2.7 3.895 2.26 4.13 1.95 4.515 C1.95 4.515 1.64 4.9 1.47 5.405 C1.47 5.405 1.3 5.91 1.3 6.45 C1.3 6.45 1.3 7.02 1.49 7.525 C1.49 7.525 1.68 8.03 2.01 8.415 C2.01 8.415 2.34 8.8 2.79 9.02 C2.79 9.02 3.24 9.24 3.77 9.24 C3.77 9.24 4.93 9.24 5.86 8.12 L5.86 7.14 L4.33 7.14 L4.33 6.46 L6.62 6.46 L6.62 10 L5.86 10 L5.86 9.04 Z" id="GlRaleway-Medium58"/>
  <path d="M0.71 10 L0.71 4.78 L1.59 4.78 L1.59 10 L0.71 10 L0.71 10 Z M0.71 3.8 L0.71 2.7 L1.59 2.7 L1.59 3.8 L0.71 3.8 Z" id="GlRaleway-Medium284"/>
  <path d="M8.58 10 L7.7 10 L7.7 7.08 C7.7 7.08 7.7 6.26 7.435 5.87 C7.435 5.87 7.17 5.48 6.65 5.48 C6.65 5.48 6.11 5.48 5.685 5.865 C5.685 5.865 5.26 6.25 5.08 6.86 L5.08 10 L4.2 10 L4.2 7.08 C4.2 7.08 4.2 6.24 3.94 5.86 C3.94 5.86 3.68 5.48 3.16 5.48 C3.16 5.48 2.63 5.48 2.2 5.855 C2.2 5.855 1.77 6.23 1.59 6.85 L1.59 10 L0.71 10 L0.71 4.78 L1.51 4.78 L1.51 5.9 C1.51 5.9 1.83 5.32 2.34 5.005 C2.34 5.005 2.85 4.69 3.49 4.69 C3.49 4.69 4.15 4.69 4.535 5.045 C4.535 5.045 4.92 5.4 5.01 5.96 C5.01 5.96 5.71 4.69 7 4.69 C7 4.69 7.45 4.69 7.755 4.855 C7.755 4.855 8.06 5.02 8.24 5.315 C8.24 5.315 8.42 5.61 8.5 6.01 C8.5 6.01 8.58 6.41 8.58 6.88 L8.58 10 Z" id="GlRaleway-Medium309"/>
  <path d="M2.99 10.1 C2.99 10.1 2.4 10.1 1.915 9.88 C1.915 9.88 1.43 9.66 1.085 9.29 C1.085 9.29 0.74 8.92 0.55 8.43 C0.55 8.43 0.36 7.94 0.36 7.4 C0.36 7.4 0.36 6.85 0.555 6.36 C0.555 6.36 0.75 5.87 1.095 5.5 C1.095 5.5 1.44 5.13 1.925 4.91 C1.925 4.91 2.41 4.69 2.99 4.69 C2.99 4.69 3.57 4.69 4.06 4.91 C4.06 4.91 4.55 5.13 4.895 5.5 C4.895 5.5 5.24 5.87 5.435 6.36 C5.435 6.36 5.63 6.85 5.63 7.4 C5.63 7.4 5.63 7.94 5.44 8.43 C5.44 8.43 5.25 8.92 4.9 9.29 C4.9 9.29 4.55 9.66 4.065 9.88 C4.065 9.88 3.58 10.1 2.99 10.1 L2.99 10.1 Z M1.26 7.41 C1.26 7.41 1.26 7.82 1.395 8.17 C1.395 8.17 1.53 8.52 1.765 8.78 C1.765 8.78 2 9.04 2.315 9.19 C2.315 9.19 2.63 9.34 2.99 9.34 C2.99 9.34 3.35 9.34 3.665 9.19 C3.665 9.19 3.98 9.04 4.22 8.775 C4.22 8.775 4.46 8.51 4.595 8.155 C4.595 8.155 4.73 7.8 4.73 7.39 C4.73 7.39 4.73 6.99 4.595 6.635 C4.595 6.635 4.46 6.28 4.22 6.015 C4.22 6.015 3.98 5.75 3.665 5.6 C3.665 5.6 3.35 5.45 2.99 5.45 C2.99 5.45 2.63 5.45 2.315 5.605 C2.315 5.605 2 5.76 1.765 6.025 C1.765 6.025 1.53 6.29 1.395 6.645 C1.395 6.645 1.26 7 1.26 7.41 Z" id="GlRaleway-Medium325"/>
  <path d="" id="GlRaleway-Medium3"/>
  <path d="M2.05 10.1 C2.05 10.1 1.68 10.1 1.36 9.975 C1.36 9.975 1.04 9.85 0.805 9.63 C0.805 9.63 0.57 9.41 0.435 9.115 C0.435 9.115 0.3 8.82 0.3 8.47 C0.3 8.47 0.3 8.11 0.46 7.815 C0.46 7.815 0.62 7.52 0.915 7.31 C0.915 7.31 1.21 7.1 1.615 6.98 C1.615 6.98 2.02 6.86 2.5 6.86 C2.5 6.86 2.88 6.86 3.27 6.93 C3.27 6.93 3.66 7 3.96 7.12 L3.96 6.7 C3.96 6.7 3.96 6.06 3.6 5.695 C3.6 5.695 3.24 5.33 2.58 5.33 C2.58 5.33 1.79 5.33 0.92 5.94 L0.63 5.37 C0.63 5.37 1.64 4.69 2.66 4.69 C2.66 4.69 3.69 4.69 4.265 5.24 C4.265 5.24 4.84 5.79 4.84 6.79 L4.84 8.92 C4.84 8.92 4.84 9.23 5.12 9.24 L5.12 10 C5.12 10 4.98 10.02 4.89 10.03 C4.89 10.03 4.8 10.04 4.7 10.04 C4.7 10.04 4.44 10.04 4.285 9.885 C4.285 9.885 4.13 9.73 4.1 9.51 L4.08 9.14 C4.08 9.14 3.73 9.61 3.195 9.855 C3.195 9.855 2.66 10.1 2.05 10.1 L2.05 10.1 Z M2.28 9.44 C2.28 9.44 2.75 9.44 3.155 9.265 C3.155 9.265 3.56 9.09 3.77 8.8 C3.77 8.8 3.96 8.61 3.96 8.41 L3.96 7.64 C3.96 7.64 3.32 7.39 2.63 7.39 C2.63 7.39 1.97 7.39 1.555 7.67 C1.555 7.67 1.14 7.95 1.14 8.4 C1.14 8.4 1.14 8.62 1.225 8.81 C1.225 8.81 1.31 9 1.465 9.14 C1.465 9.14 1.62 9.28 1.83 9.36 C1.83 9.36 2.04 9.44 2.28 9.44 Z" id="GlRaleway-Medium177"/>
  <path d="M3.02 10.1 C3.02 10.1 2.43 10.1 1.94 9.885 C1.94 9.885 1.45 9.67 1.1 9.3 C1.1 9.3 0.75 8.93 0.555 8.435 C0.555 8.435 0.36 7.94 0.36 7.39 C0.36 7.39 0.36 6.84 0.555 6.35 C0.555 6.35 0.75 5.86 1.105 5.49 C1.105 5.49 1.46 5.12 1.95 4.905 C1.95 4.905 2.44 4.69 3.03 4.69 C3.03 4.69 3.62 4.69 4.105 4.91 C4.105 4.91 4.59 5.13 4.93 5.495 C4.93 5.495 5.27 5.86 5.455 6.345 C5.455 6.345 5.64 6.83 5.64 7.35 C5.64 7.35 5.64 7.46 5.635 7.55 C5.635 7.55 5.63 7.64 5.62 7.69 L1.29 7.69 C1.29 7.69 1.32 8.08 1.47 8.4 C1.47 8.4 1.62 8.72 1.86 8.95 C1.86 8.95 2.1 9.18 2.405 9.31 C2.405 9.31 2.71 9.44 3.05 9.44 C3.05 9.44 3.29 9.44 3.52 9.375 C3.52 9.375 3.75 9.31 3.95 9.2 C3.95 9.2 4.15 9.09 4.305 8.93 C4.305 8.93 4.46 8.77 4.54 8.57 L5.3 8.78 C5.3 8.78 5.17 9.07 4.945 9.31 C4.945 9.31 4.72 9.55 4.425 9.725 C4.425 9.725 4.13 9.9 3.77 10 C3.77 10 3.41 10.1 3.02 10.1 L3.02 10.1 Z M4.81 7.04 C4.81 7.04 4.78 6.67 4.625 6.355 C4.625 6.355 4.47 6.04 4.235 5.82 C4.235 5.82 4 5.6 3.69 5.475 C3.69 5.475 3.38 5.35 3.03 5.35 C3.03 5.35 2.68 5.35 2.37 5.475 C2.37 5.475 2.06 5.6 1.825 5.825 C1.825 5.825 1.59 6.05 1.445 6.36 C1.445 6.36 1.3 6.67 1.27 7.04 L4.81 7.04 Z" id="GlRaleway-Medium229"/>
  <path d="M2.54 10.1 C2.54 10.1 1.91 10.1 1.3 9.905 C1.3 9.905 0.69 9.71 0.25 9.34 L0.63 8.75 C0.63 8.75 1.09 9.1 1.55 9.275 C1.55 9.275 2.01 9.45 2.52 9.45 C2.52 9.45 3.09 9.45 3.425 9.225 C3.425 9.225 3.76 9 3.76 8.59 C3.76 8.59 3.76 8.4 3.67 8.265 C3.67 8.265 3.58 8.13 3.4 8.03 C3.4 8.03 3.22 7.93 2.94 7.85 C2.94 7.85 2.66 7.77 2.29 7.68 C2.29 7.68 1.82 7.56 1.48 7.45 C1.48 7.45 1.14 7.34 0.92 7.19 C0.92 7.19 0.7 7.04 0.6 6.83 C0.6 6.83 0.5 6.62 0.5 6.31 C0.5 6.31 0.5 5.92 0.655 5.615 C0.655 5.615 0.81 5.31 1.08 5.105 C1.08 5.105 1.35 4.9 1.715 4.795 C1.715 4.795 2.08 4.69 2.5 4.69 C2.5 4.69 3.09 4.69 3.6 4.88 C3.6 4.88 4.11 5.07 4.46 5.38 L4.06 5.91 C4.06 5.91 3.73 5.62 3.32 5.475 C3.32 5.475 2.91 5.33 2.48 5.33 C2.48 5.33 2 5.33 1.665 5.535 C1.665 5.535 1.33 5.74 1.33 6.19 C1.33 6.19 1.33 6.37 1.395 6.49 C1.395 6.49 1.46 6.61 1.61 6.7 C1.61 6.7 1.76 6.79 1.995 6.86 C1.995 6.86 2.23 6.93 2.56 7.01 C2.56 7.01 3.08 7.13 3.465 7.255 C3.465 7.255 3.85 7.38 4.105 7.55 C4.105 7.55 4.36 7.72 4.485 7.95 C4.485 7.95 4.61 8.18 4.61 8.51 C4.61 8.51 4.61 9.24 4.05 9.67 C4.05 9.67 3.49 10.1 2.54 10.1 Z" id="GlRaleway-Medium376"/>
  <path d="M0.85 10 L0.85 2.91 L1.75 2.91 L1.75 6.83 L5.41 2.9 L6.38 2.9 L3.53 6.03 L6.54 10 L5.56 10 L2.98 6.55 L1.75 7.83 L1.75 10 L0.85 10 Z" id="GlRaleway-Medium85"/>
  <path d="M0.95 11.42 C0.95 11.42 1.08 11.44 1.21 11.45 C1.21 11.45 1.34 11.46 1.41 11.46 C1.41 11.46 1.53 11.46 1.625 11.405 C1.625 11.405 1.72 11.35 1.815 11.19 C1.815 11.19 1.91 11.03 2.03 10.745 C2.03 10.745 2.15 10.46 2.33 10 L0.12 4.78 L1.03 4.78 L2.81 9.21 L4.43 4.78 L5.27 4.78 L2.73 11.37 C2.73 11.37 2.59 11.72 2.265 11.985 C2.265 11.985 1.94 12.25 1.37 12.25 C1.37 12.25 1.28 12.25 1.185 12.24 C1.185 12.24 1.09 12.23 0.95 12.2 L0.95 11.42 Z" id="GlRaleway-Medium444"/>
  <path d="M0.73 2.7 L1.61 2.7 L1.61 8.65 C1.61 8.65 1.61 8.94 1.765 9.105 C1.765 9.105 1.92 9.27 2.2 9.27 C2.2 9.27 2.31 9.27 2.46 9.235 C2.46 9.235 2.61 9.2 2.74 9.15 L2.88 9.86 C2.88 9.86 2.66 9.95 2.36 10.01 C2.36 10.01 2.06 10.07 1.83 10.07 C1.83 10.07 1.32 10.07 1.025 9.78 C1.025 9.78 0.73 9.49 0.73 8.97 L0.73 2.7 Z" id="GlRaleway-Medium300"/>
  <path d="M0.85 10 L0.85 2.9 L3.89 2.9 C3.89 2.9 4.36 2.9 4.755 3.095 C4.755 3.095 5.15 3.29 5.435 3.615 C5.435 3.615 5.72 3.94 5.88 4.345 C5.88 4.345 6.04 4.75 6.04 5.17 C6.04 5.17 6.04 5.54 5.935 5.885 C5.935 5.885 5.83 6.23 5.635 6.51 C5.635 6.51 5.44 6.79 5.165 6.99 C5.165 6.99 4.89 7.19 4.55 7.28 L6.27 10 L5.25 10 L3.63 7.45 L1.75 7.45 L1.75 10 L0.85 10 L0.85 10 Z M1.75 6.65 L3.9 6.65 C3.9 6.65 4.18 6.65 4.405 6.53 C4.405 6.53 4.63 6.41 4.79 6.205 C4.79 6.205 4.95 6 5.04 5.73 C5.04 5.73 5.13 5.46 5.13 5.17 C5.13 5.17 5.13 4.87 5.025 4.605 C5.025 4.605 4.92 4.34 4.745 4.135 C4.745 4.135 4.57 3.93 4.335 3.815 C4.335 3.815 4.1 3.7 3.84 3.7 L1.75 3.7 L1.75 6.65 Z" id="GlRaleway-Medium127"/>
  <path d="M5.24 10 L4.36 10 L4.36 7.08 C4.36 7.08 4.36 6.24 4.105 5.86 C4.105 5.86 3.85 5.48 3.33 5.48 C3.33 5.48 3.06 5.48 2.79 5.585 C2.79 5.585 2.52 5.69 2.28 5.87 C2.28 5.87 2.04 6.05 1.86 6.3 C1.86 6.3 1.68 6.55 1.59 6.85 L1.59 10 L0.71 10 L0.71 4.78 L1.51 4.78 L1.51 5.9 C1.51 5.9 1.82 5.35 2.405 5.02 C2.405 5.02 2.99 4.69 3.68 4.69 C3.68 4.69 4.13 4.69 4.43 4.855 C4.43 4.855 4.73 5.02 4.91 5.315 C4.91 5.315 5.09 5.61 5.165 6.01 C5.165 6.01 5.24 6.41 5.24 6.88 L5.24 10 Z" id="GlRaleway-Medium313"/>
 </defs>
 <g inkscape:groupmode="layer" id="Background" inkscape:label="Background">
  <path d="M0 0 L612 792 L0 792 L0 0 Z" style="fill:#246c60; fill-rule:evenodd;stroke:none;" transform="translate(0, 0)"/>
  <g transform="translate(210.667, 145.333)">
   <use xlink:href="#GlOswald-SemiBold73" style="fill:#4a4a4a;stroke:none;" transform="matrix(3.2 0 0 3.2 0 87.5733)"/>
   <use xlink:href="#GlOswald-SemiBold301" style="fill:#4a4a4a;stroke:none;" transform="matrix(3.2 0 0 3.2 18.3 87.5733)"/>
   <use xlink:href="#GlOswald-SemiBold331" style="fill:#4a4a4a;stroke:none;" transform="matrix(3.2 0 0 3.2 26.6 87.5733)"/>
   <use xlink:href="#GlOswald-SemiBold341" style="fill:#4a4a4a;stroke:none;" transform="matrix(3.2 0 0 3.2 50.2 87.5733)"/>
   <use xlink:href="#GlOswald-SemiBold3" style="fill:#4a4a4a;stroke:none;" transform="matrix(3.2 0 0 3.2 65.3 87.5733)"/>
   <use xlink:href="#GlOswald-SemiBold73" style="fill:#4a4a4a;stroke:none;" transform="matrix(3.2 0 0 3.2 73.3 87.5733)"/>
   <use xlink:href="#GlOswald-SemiBold221" style="fill:#4a4a4a;stroke:none;" transform="matrix(3.2 0 0 3.2 91.6 87.5733)"/>
   <use xlink:href="#GlOswald-SemiBold331" style="fill:#4a4a4a;stroke:none;" transform="matrix(3.2 0 0 3.2 106.5 87.5733)"/>
   <use xlink:href="#GlOswald-SemiBold264" style="fill:#4a4a4a;stroke:none;" transform="matrix(3.2 0 0 3.2 130.1 87.5733)"/>
   <use xlink:href="#GlOswald-SemiBold382" style="fill:#4a4a4a;stroke:none;" transform="matrix(3.2 0 0 3.2 144.8 87.5733)"/>
   <use xlink:href="#GlOswald-SemiBold3" style="fill:#4a4a4a;stroke:none;" transform="matrix(3.2 0 0 3.2 158 87.5733)"/>
   <use xlink:href="#GlOswald-SemiBold164" style="fill:#4a4a4a;stroke:none;" transform="matrix(3.2 0 0 3.2 166 87.5733)"/>
   <use xlink:href="#GlOswald-SemiBold391" style="fill:#4a4a4a;stroke:none;" transform="matrix(3.2 0 0 3.2 182.2 87.5733)"/>
   <use xlink:href="#GlOswald-SemiBold426" style="fill:#4a4a4a;stroke:none;" transform="matrix(3.2 0 0 3.2 193.2 87.5733)"/>
   <use xlink:href="#GlOswald-SemiBold324" style="fill:#4a4a4a;stroke:none;" transform="matrix(3.2 0 0 3.2 207.2 87.5733)"/>
   <use xlink:href="#GlOswald-SemiBold264" style="fill:#4a4a4a;stroke:none;" transform="matrix(3.2 0 0 3.2 215.6 87.5733)"/>
   <use xlink:href="#GlOswald-SemiBold3" style="fill:#4a4a4a;stroke:none;" transform="matrix(3.2 0 0 3.2 230.3 87.5733)"/>
   <use xlink:href="#GlOswald-SemiBold73" style="fill:#4a4a4a;stroke:none;" transform="matrix(3.2 0 0 3.2 238.3 87.5733)"/>
   <use xlink:href="#GlOswald-SemiBold397" style="fill:#4a4a4a;stroke:none;" transform="matrix(3.2 0 0 3.2 256.6 87.5733)"/>
   <use xlink:href="#GlOswald-SemiBold301" style="fill:#4a4a4a;stroke:none;" transform="matrix(3.2 0 0 3.2 272.3 87.5733)"/>
   <use xlink:href="#GlOswald-SemiBold257" style="fill:#4a4a4a;stroke:none;" transform="matrix(3.2 0 0 3.2 280.6 87.5733)"/>
   <use xlink:href="#GlOswald-SemiBold264" style="fill:#4a4a4a;stroke:none;" transform="matrix(3.2 0 0 3.2 296.3 87.5733)"/>
   <path d="M0 0 L381.333 0 L381.333 125.333 L0 125.333 L0 0 Z" style="fill:none; stroke:none;"/>
  </g>
  <g transform="translate(115.333, 521.333)">
   <use xlink:href="#GlOswald-SemiBold4" style="fill:#ffffff;stroke:none;" transform="matrix(2.4 0 0 2.4 0 95.7733)"/>
   <use xlink:href="#GlOswald-SemiBold3" style="fill:#ffffff;stroke:none;" transform="matrix(2.4 0 0 2.4 12.9 95.7733)"/>
   <use xlink:href="#GlOswald-SemiBold376" style="fill:#ffffff;stroke:none;" transform="matrix(2.4 0 0 2.4 18.9 95.7733)"/>
   <use xlink:href="#GlOswald-SemiBold264" style="fill:#ffffff;stroke:none;" transform="matrix(2.4 0 0 2.4 27.8 95.7733)"/>
   <use xlink:href="#GlOswald-SemiBold382" style="fill:#ffffff;stroke:none;" transform="matrix(2.4 0 0 2.4 38.8 95.7733)"/>
   <use xlink:href="#GlOswald-SemiBold341" style="fill:#ffffff;stroke:none;" transform="matrix(2.4 0 0 2.4 48.7 95.7733)"/>
   <use xlink:href="#GlOswald-SemiBold397" style="fill:#ffffff;stroke:none;" transform="matrix(2.4 0 0 2.4 60 95.7733)"/>
   <use xlink:href="#GlOswald-SemiBold376" style="fill:#ffffff;stroke:none;" transform="matrix(2.4 0 0 2.4 71.8 95.7733)"/>
   <use xlink:href="#GlOswald-SemiBold251" style="fill:#ffffff;stroke:none;" transform="matrix(2.4 0 0 2.4 80.7 95.7733)"/>
   <use xlink:href="#GlOswald-SemiBold264" style="fill:#ffffff;stroke:none;" transform="matrix(2.4 0 0 2.4 91.6 95.7733)"/>
   <use xlink:href="#GlOswald-SemiBold3" style="fill:#ffffff;stroke:none;" transform="matrix(2.4 0 0 2.4 102.6 95.7733)"/>
   <use xlink:href="#GlOswald-SemiBold287" style="fill:#ffffff;stroke:none;" transform="matrix(2.4 0 0 2.4 108.6 95.7733)"/>
   <use xlink:href="#GlOswald-SemiBold341" style="fill:#ffffff;stroke:none;" transform="matrix(2.4 0 0 2.4 116.1 95.7733)"/>
   <use xlink:href="#GlOswald-SemiBold376" style="fill:#ffffff;stroke:none;" transform="matrix(2.4 0 0 2.4 127.4 95.7733)"/>
   <use xlink:href="#GlOswald-SemiBold3" style="fill:#ffffff;stroke:none;" transform="matrix(2.4 0 0 2.4 136.3 95.7733)"/>
   <use xlink:href="#GlOswald-SemiBold257" style="fill:#ffffff;stroke:none;" transform="matrix(2.4 0 0 2.4 142.3 95.7733)"/>
   <use xlink:href="#GlOswald-SemiBold341" style="fill:#ffffff;stroke:none;" transform="matrix(2.4 0 0 2.4 154.1 95.7733)"/>
   <use xlink:href="#GlOswald-SemiBold251" style="fill:#ffffff;stroke:none;" transform="matrix(2.4 0 0 2.4 165.4 95.7733)"/>
   <use xlink:href="#GlOswald-SemiBold397" style="fill:#ffffff;stroke:none;" transform="matrix(2.4 0 0 2.4 176.3 95.7733)"/>
   <use xlink:href="#GlOswald-SemiBold331" style="fill:#ffffff;stroke:none;" transform="matrix(2.4 0 0 2.4 188.1 95.7733)"/>
   <use xlink:href="#GlOswald-SemiBold264" style="fill:#ffffff;stroke:none;" transform="matrix(2.4 0 0 2.4 205.8 95.7733)"/>
   <use xlink:href="#GlOswald-SemiBold333" style="fill:#ffffff;stroke:none;" transform="matrix(2.4 0 0 2.4 216.8 95.7733)"/>
   <use xlink:href="#GlOswald-SemiBold391" style="fill:#ffffff;stroke:none;" transform="matrix(2.4 0 0 2.4 228.6 95.7733)"/>
   <use xlink:href="#GlOswald-SemiBold3" style="fill:#ffffff;stroke:none;" transform="matrix(2.4 0 0 2.4 236.9 95.7733)"/>
   <use xlink:href="#GlOswald-SemiBold287" style="fill:#ffffff;stroke:none;" transform="matrix(2.4 0 0 2.4 242.9 95.7733)"/>
   <use xlink:href="#GlOswald-SemiBold341" style="fill:#ffffff;stroke:none;" transform="matrix(2.4 0 0 2.4 250.4 95.7733)"/>
   <use xlink:href="#GlOswald-SemiBold376" style="fill:#ffffff;stroke:none;" transform="matrix(2.4 0 0 2.4 261.7 95.7733)"/>
   <use xlink:href="#GlOswald-SemiBold331" style="fill:#ffffff;stroke:none;" transform="matrix(2.4 0 0 2.4 270.6 95.7733)"/>
   <use xlink:href="#GlOswald-SemiBold221" style="fill:#ffffff;stroke:none;" transform="matrix(2.4 0 0 2.4 288.3 95.7733)"/>
   <use xlink:href="#GlOswald-SemiBold391" style="fill:#ffffff;stroke:none;" transform="matrix(2.4 0 0 2.4 299.4 95.7733)"/>
   <use xlink:href="#GlOswald-SemiBold391" style="fill:#ffffff;stroke:none;" transform="matrix(2.4 0 0 2.4 307.7 95.7733)"/>
   <use xlink:href="#GlOswald-SemiBold301" style="fill:#ffffff;stroke:none;" transform="matrix(2.4 0 0 2.4 316 95.7733)"/>
   <use xlink:href="#GlOswald-SemiBold333" style="fill:#ffffff;stroke:none;" transform="matrix(2.4 0 0 2.4 322.2 95.7733)"/>
   <use xlink:href="#GlOswald-SemiBold289" style="fill:#ffffff;stroke:none;" transform="matrix(2.4 0 0 2.4 334 95.7733)"/>
   <path d="M0 0 L381.333 0 L381.333 125.333 L0 125.333 L0 0 Z" style="fill:none; stroke:none;"/>
  </g>
  <g transform="translate(115.333, 721.6)">
   <use xlink:href="#GlRaleway-Medium58" style="fill:#ffffff;stroke:none;" transform="matrix(1.2 0 0 1.2 0 8.97)"/>
   <use xlink:href="#GlRaleway-Medium284" style="fill:#ffffff;stroke:none;" transform="matrix(1.2 0 0 1.2 8.6 8.97)"/>
   <use xlink:href="#GlRaleway-Medium309" style="fill:#ffffff;stroke:none;" transform="matrix(1.2 0 0 1.2 11.4 8.97)"/>
   <use xlink:href="#GlRaleway-Medium325" style="fill:#ffffff;stroke:none;" transform="matrix(1.2 0 0 1.2 22.5 8.97)"/>
   <use xlink:href="#GlRaleway-Medium3" style="fill:#ffffff;stroke:none;" transform="matrix(1.2 0 0 1.2 29.7 8.97)"/>
   <use xlink:href="#GlRaleway-Medium58" style="fill:#ffffff;stroke:none;" transform="matrix(1.2 0 0 1.2 32.7 8.97)"/>
   <use xlink:href="#GlRaleway-Medium177" style="fill:#ffffff;stroke:none;" transform="matrix(1.2 0 0 1.2 41.3 8.97)"/>
   <use xlink:href="#GlRaleway-Medium309" style="fill:#ffffff;stroke:none;" transform="matrix(1.2 0 0 1.2 47.9 8.97)"/>
   <use xlink:href="#GlRaleway-Medium229" style="fill:#ffffff;stroke:none;" transform="matrix(1.2 0 0 1.2 59 8.97)"/>
   <use xlink:href="#GlRaleway-Medium376" style="fill:#ffffff;stroke:none;" transform="matrix(1.2 0 0 1.2 66.1 8.97)"/>
   <use xlink:href="#GlRaleway-Medium85" style="fill:#ffffff;stroke:none;" transform="matrix(1.2 0 0 1.2 0 22.97)"/>
   <use xlink:href="#GlRaleway-Medium444" style="fill:#ffffff;stroke:none;" transform="matrix(1.2 0 0 1.2 7.3 22.97)"/>
   <use xlink:href="#GlRaleway-Medium300" style="fill:#ffffff;stroke:none;" transform="matrix(1.2 0 0 1.2 13.8 22.97)"/>
   <use xlink:href="#GlRaleway-Medium229" style="fill:#ffffff;stroke:none;" transform="matrix(1.2 0 0 1.2 17.2 22.97)"/>
   <use xlink:href="#GlRaleway-Medium3" style="fill:#ffffff;stroke:none;" transform="matrix(1.2 0 0 1.2 24.3 22.97)"/>
   <use xlink:href="#GlRaleway-Medium127" style="fill:#ffffff;stroke:none;" transform="matrix(1.2 0 0 1.2 27.3 22.97)"/>
   <use xlink:href="#GlRaleway-Medium325" style="fill:#ffffff;stroke:none;" transform="matrix(1.2 0 0 1.2 35 22.97)"/>
   <use xlink:href="#GlRaleway-Medium300" style="fill:#ffffff;stroke:none;" transform="matrix(1.2 0 0 1.2 42.2 22.97)"/>
   <use xlink:href="#GlRaleway-Medium300" style="fill:#ffffff;stroke:none;" transform="matrix(1.2 0 0 1.2 45.6 22.97)"/>
   <use xlink:href="#GlRaleway-Medium284" style="fill:#ffffff;stroke:none;" transform="matrix(1.2 0 0 1.2 49 22.97)"/>
   <use xlink:href="#GlRaleway-Medium313" style="fill:#ffffff;stroke:none;" transform="matrix(1.2 0 0 1.2 51.8 22.97)"/>
   <use xlink:href="#GlRaleway-Medium376" style="fill:#ffffff;stroke:none;" transform="matrix(1.2 0 0 1.2 58.9 22.97)"/>
   <path d="M0 0 L95.3333 0 L95.3333 50.4 L0 50.4 L0 0 Z" style="fill:none; stroke:none;"/>
  </g>
 </g>
</svg>
