<?xml version="1.0" encoding="UTF-8" standalone="no"?>
<!-- Created with Inkscape (http://www.inkscape.org/) -->

<svg
   xmlns:dc="http://purl.org/dc/elements/1.1/"
   xmlns:cc="http://creativecommons.org/ns#"
   xmlns:rdf="http://www.w3.org/1999/02/22-rdf-syntax-ns#"
   xmlns:svg="http://www.w3.org/2000/svg"
   xmlns="http://www.w3.org/2000/svg"
   xmlns:sodipodi="http://sodipodi.sourceforge.net/DTD/sodipodi-0.dtd"
   xmlns:inkscape="http://www.inkscape.org/namespaces/inkscape"
   width="5.9055119in"
   height="2.9027374in"
   viewBox="0 0 149.99999 73.729533"
   version="1.1"
   id="svg8"
   inkscape:version="0.92.3 (2405546, 2018-03-11)"
   sodipodi:docname="WTD_logo_large.svg"
   inkscape:export-filename="C:\Users\a73m1zz\Documents\a_Scribus Projects\WTD\Docs\Logo\WTD_SLC_Logo_Landscape.png"
   inkscape:export-xdpi="160"
   inkscape:export-ydpi="160">
  <defs
     id="defs2">
    <marker
       inkscape:stockid="Arrow1Lend"
       orient="auto"
       refY="0"
       refX="0"
       id="Arrow1Lend"
       style="overflow:visible"
       inkscape:isstock="true">
      <path
         id="path850"
         d="M 0,0 5,-5 -12.5,0 5,5 Z"
         style="fill-rule:evenodd;stroke:#000000;stroke-width:1.00000003pt"
         transform="matrix(-0.8,0,0,-0.8,-10,0)"
         inkscape:connector-curvature="0" />
    </marker>
    <marker
       inkscape:stockid="Arrow1Lstart"
       orient="auto"
       refY="0"
       refX="0"
       id="Arrow1Lstart"
       style="overflow:visible"
       inkscape:isstock="true">
      <path
         id="path847"
         d="M 0,0 5,-5 -12.5,0 5,5 Z"
         style="fill-rule:evenodd;stroke:#000000;stroke-width:1.00000003pt"
         transform="matrix(0.8,0,0,0.8,10,0)"
         inkscape:connector-curvature="0" />
    </marker>
  </defs>
  <sodipodi:namedview
     id="base"
     pagecolor="#ffffff"
     bordercolor="#666666"
     borderopacity="1.0"
     inkscape:pageopacity="1"
     inkscape:pageshadow="2"
     inkscape:zoom="0.81199999"
     inkscape:cx="639.46002"
     inkscape:cy="109.38959"
     inkscape:document-units="mm"
     inkscape:current-layer="layer1"
     showgrid="false"
     inkscape:window-width="2400"
     inkscape:window-height="1271"
     inkscape:window-x="3191"
     inkscape:window-y="-9"
     inkscape:window-maximized="1"
     units="in"
     inkscape:pagecheckerboard="false" />
  <metadata
     id="metadata5">
    <rdf:RDF>
      <cc:Work
         rdf:about="">
        <dc:format>image/svg+xml</dc:format>
        <dc:type
           rdf:resource="http://purl.org/dc/dcmitype/StillImage" />
        <dc:title />
      </cc:Work>
    </rdf:RDF>
  </metadata>
  <g
     inkscape:label="Layer 1"
     inkscape:groupmode="layer"
     id="layer1"
     transform="translate(-55.384021,-20.209017)">
    <g
       id="g1003"
       transform="translate(-155.0015,59.140242)">
      <g
         aria-label="WRITE THE DOCS"
         transform="matrix(0.41567875,0,0,0.41567875,203.0001,-66.544928)"
         style="font-style:normal;font-variant:normal;font-weight:900;font-stretch:normal;font-size:40px;line-height:1.25;font-family:Lato;-inkscape-font-specification:'Lato, Heavy';font-variant-ligatures:normal;font-variant-caps:normal;font-variant-numeric:normal;font-feature-settings:normal;text-align:end;letter-spacing:0px;word-spacing:0px;writing-mode:lr-tb;text-anchor:end;fill:#4a4a4a;fill-opacity:1;stroke:none"
         id="flowRoot815">
        <path
           d="m 56.931715,83.204776 h 7.194667 q 1.114666,0 1.849333,0.506667 0.76,0.506666 0.988,1.342666 l 5.066667,19.253331 q 0.253333,0.93734 0.506666,2.00134 0.253334,1.064 0.38,2.22933 0.253334,-1.19067 0.557334,-2.22933 0.304,-1.064 0.582666,-2.00134 l 5.978667,-19.253331 q 0.228,-0.709333 0.962667,-1.266666 0.76,-0.582667 1.824,-0.582667 h 2.533333 q 1.114667,0 1.824,0.506667 0.734667,0.481333 1.013334,1.342666 l 5.928,19.253331 q 0.278667,0.88667 0.582667,1.9 0.304,0.988 0.532,2.128 0.202666,-1.11466 0.405333,-2.128 0.228,-1.01333 0.456,-1.9 l 5.066671,-19.253331 q 0.20266,-0.734666 0.96266,-1.292 0.76,-0.557333 1.824,-0.557333 h 6.73867 L 99.289049,120.11544 h -7.752 L 84.595715,97.239443 q -0.177333,-0.532 -0.38,-1.165333 -0.177333,-0.633334 -0.354666,-1.342667 -0.177334,0.709333 -0.38,1.342667 -0.177334,0.633333 -0.354667,1.165333 l -7.042667,22.875997 h -7.752 z"
           style="font-style:normal;font-variant:normal;font-weight:900;font-stretch:normal;font-size:50.66666794px;line-height:50px;font-family:Lato;-inkscape-font-specification:'Lato, Heavy';font-variant-ligatures:normal;font-variant-caps:normal;font-variant-numeric:normal;font-feature-settings:normal;text-align:end;writing-mode:lr-tb;text-anchor:end;fill:#4a4a4a;fill-opacity:1"
           id="path1005" />
        <path
           d="m 122.51022,106.46078 v 13.65466 h -8.56267 V 83.204776 h 12.008 q 4.00267,0 6.81467,0.836 2.83733,0.810667 4.61066,2.28 1.79867,1.469333 2.60934,3.470667 0.81066,2.001333 0.81066,4.357333 0,1.798667 -0.48133,3.394667 -0.48133,1.596 -1.444,2.963997 -0.93733,1.34267 -2.33067,2.40667 -1.368,1.064 -3.16666,1.748 0.86133,0.43067 1.596,1.064 0.76,0.63333 1.31733,1.54533 l 7.85333,12.844 h -7.752 q -2.15333,0 -3.09066,-1.62133 l -6.13067,-10.716 q -0.40533,-0.70933 -0.96267,-1.01333 -0.532,-0.304 -1.52,-0.304 z m 0,-5.90267 h 3.44533 q 1.748,0 2.964,-0.43067 1.24133,-0.455997 2.02667,-1.24133 0.78533,-0.785334 1.14,-1.824 0.35466,-1.064 0.35466,-2.28 0,-2.432001 -1.596,-3.800001 -1.57066,-1.368 -4.88933,-1.368 h -3.44533 z"
           style="font-style:normal;font-variant:normal;font-weight:900;font-stretch:normal;font-size:50.66666794px;line-height:50px;font-family:Lato;-inkscape-font-specification:'Lato, Heavy';font-variant-ligatures:normal;font-variant-caps:normal;font-variant-numeric:normal;font-feature-settings:normal;text-align:end;writing-mode:lr-tb;text-anchor:end;fill:#4a4a4a;fill-opacity:1"
           id="path1007" />
        <path
           d="m 156.96671,120.11544 h -8.61333 V 83.204776 h 8.61333 z"
           style="font-style:normal;font-variant:normal;font-weight:900;font-stretch:normal;font-size:50.66666794px;line-height:50px;font-family:Lato;-inkscape-font-specification:'Lato, Heavy';font-variant-ligatures:normal;font-variant-caps:normal;font-variant-numeric:normal;font-feature-settings:normal;text-align:end;writing-mode:lr-tb;text-anchor:end;fill:#4a4a4a;fill-opacity:1"
           id="path1009" />
        <path
           d="m 190.62522,83.204776 v 6.789333 h -10.38667 v 30.121331 h -8.56266 V 89.994109 h -10.38667 v -6.789333 z"
           style="font-style:normal;font-variant:normal;font-weight:900;font-stretch:normal;font-size:50.66666794px;line-height:50px;font-family:Lato;-inkscape-font-specification:'Lato, Heavy';font-variant-ligatures:normal;font-variant-caps:normal;font-variant-numeric:normal;font-feature-settings:normal;text-align:end;writing-mode:lr-tb;text-anchor:end;fill:#4a4a4a;fill-opacity:1"
           id="path1011" />
        <path
           d="m 217.96542,83.204776 v 6.586667 h -15.14933 v 8.613333 h 11.60267 v 6.333334 h -11.60267 v 8.79067 h 15.14933 v 6.58666 H 194.20276 V 83.204776 Z"
           style="font-style:normal;font-variant:normal;font-weight:900;font-stretch:normal;font-size:50.66666794px;line-height:50px;font-family:Lato;-inkscape-font-specification:'Lato, Heavy';font-variant-ligatures:normal;font-variant-caps:normal;font-variant-numeric:normal;font-feature-settings:normal;text-align:end;writing-mode:lr-tb;text-anchor:end;fill:#4a4a4a;fill-opacity:1"
           id="path1013" />
        <path
           d="m 152.32834,136.4581 v 6.78934 h -10.38666 v 30.12133 h -8.56267 v -30.12133 h -10.38667 v -6.78934 z"
           style="font-style:normal;font-variant:normal;font-weight:900;font-stretch:normal;font-size:50.66666794px;line-height:50px;font-family:Lato;-inkscape-font-specification:'Lato, Heavy';font-variant-ligatures:normal;font-variant-caps:normal;font-variant-numeric:normal;font-feature-settings:normal;text-align:end;writing-mode:lr-tb;text-anchor:end;fill:#4a4a4a;fill-opacity:1"
           id="path1015" />
        <path
           d="m 188.12988,173.36877 h -8.61333 v -15.60533 h -14.99733 v 15.60533 h -8.61334 V 136.4581 h 8.61334 v 15.428 h 14.99733 v -15.428 h 8.61333 z"
           style="font-style:normal;font-variant:normal;font-weight:900;font-stretch:normal;font-size:50.66666794px;line-height:50px;font-family:Lato;-inkscape-font-specification:'Lato, Heavy';font-variant-ligatures:normal;font-variant-caps:normal;font-variant-numeric:normal;font-feature-settings:normal;text-align:end;writing-mode:lr-tb;text-anchor:end;fill:#4a4a4a;fill-opacity:1"
           id="path1017" />
        <path
           d="m 217.96543,136.4581 v 6.58667 h -15.14934 v 8.61333 h 11.60267 v 6.33334 h -11.60267 v 8.79066 h 15.14934 v 6.58667 H 194.20276 V 136.4581 Z"
           style="font-style:normal;font-variant:normal;font-weight:900;font-stretch:normal;font-size:50.66666794px;line-height:50px;font-family:Lato;-inkscape-font-specification:'Lato, Heavy';font-variant-ligatures:normal;font-variant-caps:normal;font-variant-numeric:normal;font-feature-settings:normal;text-align:end;writing-mode:lr-tb;text-anchor:end;fill:#4a4a4a;fill-opacity:1"
           id="path1019" />
        <path
           d="m 117.35488,208.1541 q 0,4.00266 -1.39333,7.39733 -1.368,3.36933 -3.876,5.852 -2.508,2.45733 -6.05467,3.85067 -3.52133,1.368 -7.827998,1.368 H 83.864215 v -36.91067 h 14.338667 q 4.306668,0 7.827998,1.39333 3.54667,1.39334 6.05467,3.85067 2.508,2.45733 3.876,5.852 1.39333,3.36933 1.39333,7.34667 z m -8.76533,0 q 0,-2.736 -0.70933,-4.94 -0.70934,-2.204 -2.052,-3.724 -1.31734,-1.54534 -3.24267,-2.356 -1.92533,-0.836 -4.382668,-0.836 h -5.725333 v 23.73733 h 5.725333 q 2.457338,0 4.382668,-0.81067 1.92533,-0.836 3.24267,-2.356 1.34266,-1.54533 2.052,-3.74933 0.70933,-2.204 0.70933,-4.96533 z"
           style="font-style:normal;font-variant:normal;font-weight:900;font-stretch:normal;font-size:50.66666794px;line-height:50px;font-family:Lato;-inkscape-font-specification:'Lato, Heavy';font-variant-ligatures:normal;font-variant-caps:normal;font-variant-numeric:normal;font-feature-settings:normal;text-align:end;writing-mode:lr-tb;text-anchor:end;fill:#4a4a4a;fill-opacity:1"
           id="path1021" />
        <path
           d="m 157.89772,208.1541 q 0,4.00266 -1.39334,7.448 -1.368,3.44533 -3.876,6.004 -2.508,2.53333 -6.05466,3.97733 -3.52134,1.444 -7.828,1.444 -4.30667,0 -7.85334,-1.444 -3.54666,-1.444 -6.08,-3.97733 -2.508,-2.55867 -3.90133,-6.004 -1.368,-3.44534 -1.368,-7.448 0,-4.00267 1.368,-7.448 1.39333,-3.44534 3.90133,-5.97867 2.53334,-2.53333 6.08,-3.97733 3.54667,-1.444 7.85334,-1.444 4.30666,0 7.828,1.46933 3.54666,1.444 6.05466,3.97733 2.508,2.53334 3.876,5.97867 1.39334,3.44533 1.39334,7.42267 z m -8.76534,0 q 0,-2.736 -0.70933,-4.91467 -0.70933,-2.204 -2.052,-3.724 -1.31733,-1.52 -3.24267,-2.33067 -1.92533,-0.81066 -4.38266,-0.81066 -2.48267,0 -4.43334,0.81066 -1.92533,0.81067 -3.268,2.33067 -1.31733,1.52 -2.02666,3.724 -0.70934,2.17867 -0.70934,4.91467 0,2.76133 0.70934,4.96533 0.70933,2.17867 2.02666,3.69867 1.34267,1.52 3.268,2.33066 1.95067,0.78534 4.43334,0.78534 2.45733,0 4.38266,-0.78534 1.92534,-0.81066 3.24267,-2.33066 1.34267,-1.52 2.052,-3.69867 0.70933,-2.204 0.70933,-4.96533 z"
           style="font-style:normal;font-variant:normal;font-weight:900;font-stretch:normal;font-size:50.66666794px;line-height:50px;font-family:Lato;-inkscape-font-specification:'Lato, Heavy';font-variant-ligatures:normal;font-variant-caps:normal;font-variant-numeric:normal;font-feature-settings:normal;text-align:end;writing-mode:lr-tb;text-anchor:end;fill:#4a4a4a;fill-opacity:1"
           id="path1023" />
        <path
           d="m 186.84264,217.07143 q 0.304,0 0.608,0.12667 0.304,0.10133 0.58266,0.38 l 3.39467,3.572 q -2.22933,2.91333 -5.59867,4.408 -3.344,1.46933 -7.92933,1.46933 -4.20534,0 -7.54934,-1.41867 -3.31866,-1.444 -5.64933,-3.952 -2.30533,-2.53333 -3.54667,-5.97866 -1.24133,-3.47067 -1.24133,-7.524 0,-4.12934 1.41867,-7.57467 1.41866,-3.47067 3.952,-5.97867 2.55866,-2.508 6.10533,-3.90133 3.54667,-1.39333 7.828,-1.39333 2.07734,0 3.90134,0.38 1.84933,0.35466 3.44533,1.01333 1.596,0.63333 2.93867,1.54533 1.34266,0.88667 2.38133,1.976 l -2.888,3.876 q -0.27867,0.35467 -0.65867,0.65867 -0.38,0.27867 -1.064,0.27867 -0.456,0 -0.86133,-0.20267 -0.40533,-0.20267 -0.86133,-0.48133 -0.456,-0.304 -1.01334,-0.63334 -0.532,-0.35466 -1.292,-0.63333 -0.73466,-0.304 -1.748,-0.50667 -0.988,-0.20266 -2.33067,-0.20266 -2.33066,0 -4.256,0.836 -1.92533,0.81066 -3.31866,2.356 -1.368,1.52 -2.15334,3.69866 -0.76,2.17867 -0.76,4.88934 0,2.83733 0.76,5.04133 0.78534,2.204 2.10267,3.724 1.34267,1.49467 3.116,2.28 1.77333,0.78533 3.8,0.78533 1.16533,0 2.128,-0.10133 0.96267,-0.12667 1.77334,-0.40533 0.836,-0.27867 1.57066,-0.70934 0.76,-0.456 1.52,-1.11466 0.304,-0.25334 0.65867,-0.40534 0.35467,-0.17733 0.73467,-0.17733 z"
           style="font-style:normal;font-variant:normal;font-weight:900;font-stretch:normal;font-size:50.66666794px;line-height:50px;font-family:Lato;-inkscape-font-specification:'Lato, Heavy';font-variant-ligatures:normal;font-variant-caps:normal;font-variant-numeric:normal;font-feature-settings:normal;text-align:end;writing-mode:lr-tb;text-anchor:end;fill:#4a4a4a;fill-opacity:1"
           id="path1025" />
        <path
           d="m 215.86197,197.2101 q -0.38,0.608 -0.81067,0.912 -0.40533,0.304 -1.064,0.304 -0.58266,0 -1.26667,-0.35467 -0.65866,-0.38 -1.52,-0.836 -0.836,-0.456 -1.92533,-0.81067 -1.08933,-0.38 -2.48267,-0.38 -2.40666,0 -3.59733,1.03867 -1.16533,1.01333 -1.16533,2.76133 0,1.11467 0.70933,1.84934 0.70933,0.73466 1.84933,1.26666 1.16534,0.532 2.63467,0.988 1.49467,0.43067 3.04,0.988 1.54533,0.532 3.01467,1.26667 1.49467,0.73467 2.63467,1.87467 1.16533,1.14 1.87466,2.78666 0.70934,1.62134 0.70934,3.92667 0,2.55867 -0.88667,4.788 -0.88667,2.22933 -2.584,3.90133 -1.672,1.64667 -4.15467,2.60934 -2.45733,0.93733 -5.59867,0.93733 -1.72266,0 -3.52133,-0.35467 -1.77333,-0.35466 -3.44533,-0.988 -1.672,-0.65866 -3.14134,-1.54533 -1.46933,-0.88667 -2.55866,-1.976 l 2.53333,-4.00267 q 0.27867,-0.456 0.78533,-0.73466 0.50667,-0.27867 1.08934,-0.27867 0.76,0 1.52,0.48133 0.78533,0.48134 1.748,1.064 0.988,0.58267 2.25466,1.064 1.26667,0.48134 2.98934,0.48134 2.33066,0 3.62266,-1.01334 1.292,-1.03866 1.292,-3.268 0,-1.292 -0.70933,-2.10266 -0.70933,-0.81067 -1.87467,-1.34267 -1.14,-0.532 -2.60933,-0.93733 -1.46933,-0.40534 -3.01467,-0.88667 -1.54533,-0.50667 -3.01466,-1.216 -1.46934,-0.73467 -2.63467,-1.9 -1.14,-1.19067 -1.84933,-2.93867 -0.70934,-1.77333 -0.70934,-4.35733 0,-2.07733 0.836,-4.05333 0.836,-1.976 2.45734,-3.52134 1.62133,-1.54533 3.97733,-2.45733 2.356,-0.93733 5.396,-0.93733 1.69733,0 3.29333,0.27866 1.62134,0.25334 3.06534,0.78534 1.444,0.50666 2.68533,1.24133 1.26667,0.70933 2.25467,1.62133 z"
           style="font-style:normal;font-variant:normal;font-weight:900;font-stretch:normal;font-size:50.66666794px;line-height:50px;font-family:Lato;-inkscape-font-specification:'Lato, Heavy';font-variant-ligatures:normal;font-variant-caps:normal;font-variant-numeric:normal;font-feature-settings:normal;text-align:end;writing-mode:lr-tb;text-anchor:end;fill:#4a4a4a;fill-opacity:1"
           id="path1027" />
      </g>
      <g
         aria-label="SALT LAKE CITY"
         transform="matrix(0.41567875,0,0,0.41567875,280.36335,-66.925138)"
         style="font-style:normal;font-variant:normal;font-weight:normal;font-stretch:normal;font-size:40px;line-height:1.25;font-family:Lato;-inkscape-font-specification:'Lato, Normal';font-variant-ligatures:normal;font-variant-caps:normal;font-variant-numeric:normal;font-feature-settings:normal;text-align:start;letter-spacing:0px;word-spacing:0px;writing-mode:lr-tb;text-anchor:start;fill:#138bff;fill-opacity:1;stroke:none"
         id="flowRoot815-7">
        <path
           d="m 78.920178,89.487443 q -0.228,0.38 -0.506667,0.582666 -0.253333,0.177334 -0.633333,0.177334 -0.430667,0 -1.013334,-0.430667 -0.582666,-0.430667 -1.469333,-0.937333 -0.861333,-0.532 -2.102667,-0.962667 -1.216,-0.430667 -2.964,-0.430667 -1.646667,0 -2.913333,0.456 -1.241334,0.430667 -2.102667,1.190667 -0.836,0.76 -1.266667,1.798667 -0.430666,1.013333 -0.430666,2.204 0,1.52 0.734666,2.533333 0.76,0.988 1.976,1.697334 1.241334,0.709333 2.786667,1.241333 1.570667,0.506667 3.192,1.064 1.646667,0.557337 3.192,1.266667 1.570667,0.684 2.786667,1.748 1.241333,1.064 1.976,2.60933 0.76,1.54534 0.76,3.8 0,2.38134 -0.810667,4.484 -0.810666,2.07734 -2.381333,3.62267 -1.545333,1.54533 -3.825333,2.432 -2.254667,0.88667 -5.142667,0.88667 -3.546667,0 -6.434667,-1.26667 -2.888,-1.292 -4.94,-3.47067 l 1.418666,-2.33066 q 0.202667,-0.27867 0.481334,-0.456 0.304,-0.20267 0.658667,-0.20267 0.329333,0 0.734666,0.27867 0.430667,0.25333 0.962667,0.65866 0.532,0.40534 1.216,0.88667 0.684,0.48133 1.545333,0.88667 0.886667,0.40533 2.001334,0.684 1.114666,0.25333 2.508,0.25333 1.748,0 3.116,-0.48133 1.368,-0.48134 2.305333,-1.34267 0.962667,-0.88667 1.469334,-2.10267 0.506666,-1.216 0.506666,-2.71066 0,-1.64667 -0.76,-2.68534 -0.734666,-1.064 -1.950666,-1.77333 -1.216,-0.70933 -2.786667,-1.19067 -1.570667,-0.50666 -3.192,-1.01333 -1.621334,-0.532 -3.192,-1.216 -1.570667,-0.684 -2.786667,-1.77333 -1.216,-1.089337 -1.976,-2.71067 -0.734667,-1.646667 -0.734667,-4.053334 0,-1.925333 0.734667,-3.724 0.76,-1.798667 2.178667,-3.192 1.444,-1.393333 3.521333,-2.229333 2.102667,-0.836 4.813333,-0.836 3.040001,0 5.522667,0.962666 2.508,0.962667 4.408,2.786667 z"
           style="font-style:normal;font-variant:normal;font-weight:normal;font-stretch:normal;font-size:50.66666794px;line-height:50px;font-family:Lato;-inkscape-font-specification:'Lato, Normal';font-variant-ligatures:normal;font-variant-caps:normal;font-variant-numeric:normal;font-feature-settings:normal;text-align:start;writing-mode:lr-tb;text-anchor:start;fill:#138bff;fill-opacity:1"
           id="path1030" />
        <path
           d="M 100.8466,110.18478 96.646596,99.302109 q -0.186667,-0.485334 -0.392,-1.12 -0.205333,-0.653334 -0.392,-1.381334 -0.392,1.512 -0.802667,2.52 l -4.2,10.864005 z m 7.54133,9.93066 h -2.8 q -0.48533,0 -0.784,-0.24266 -0.29867,-0.24267 -0.448,-0.616 l -2.50133,-6.45867 H 89.851929 l -2.501334,6.45867 q -0.112,0.336 -0.429333,0.59733 -0.317333,0.26133 -0.784,0.26133 h -2.8 l 10.696,-26.749332 h 3.658667 z"
           style="font-size:37.33333588px;fill:#138bff;fill-opacity:1"
           id="path1032" />
        <path
           d="m 127.11935,117.07278 v 3.04266 h -15.176 V 93.366108 h 3.60266 v 23.706672 z"
           style="font-size:37.33333588px;fill:#138bff;fill-opacity:1"
           id="path1034" />
        <path
           d="m 145.70843,96.408775 h -8.66133 v 23.706665 h -3.60267 V 96.408775 h -8.68 v -3.042667 h 20.944 z"
           style="font-size:37.33333588px;fill:#138bff;fill-opacity:1"
           id="path1036" />
        <path
           d="m 80.946844,170.05278 v 4.12933 h -20.596 v -36.30267 h 4.889333 v 32.17334 z"
           style="font-style:normal;font-variant:normal;font-weight:normal;font-stretch:normal;font-size:50.66666794px;line-height:50px;font-family:Lato;-inkscape-font-specification:'Lato, Normal';font-variant-ligatures:normal;font-variant-caps:normal;font-variant-numeric:normal;font-feature-settings:normal;text-align:start;writing-mode:lr-tb;text-anchor:start;fill:#138bff;fill-opacity:1"
           id="path1038" />
        <path
           d="m 99.362221,164.25144 -4.2,-10.88267 q -0.186667,-0.48533 -0.392,-1.12 -0.205333,-0.65333 -0.392,-1.38133 -0.392,1.512 -0.802667,2.52 l -4.2,10.864 z m 7.541339,9.93067 h -2.80001 q -0.48533,0 -0.784,-0.24267 -0.29866,-0.24266 -0.448,-0.616 l -2.50133,-6.45866 H 88.367554 l -2.501334,6.45866 q -0.112,0.336 -0.429333,0.59734 -0.317333,0.26133 -0.784,0.26133 h -2.8 l 10.696,-26.74934 h 3.658667 z"
           style="font-size:37.33333588px;fill:#138bff;fill-opacity:1"
           id="path1040" />
        <path
           d="m 114.06164,159.15544 h 1.36267 q 0.70933,0 1.13866,-0.168 0.42934,-0.18667 0.784,-0.616 l 8.904,-10.08 q 0.37334,-0.48533 0.784,-0.672 0.41067,-0.18667 1.008,-0.18667 h 3.06134 l -10.192,11.51734 q -0.37334,0.448 -0.728,0.74666 -0.336,0.28 -0.728,0.46667 0.504,0.168 0.91466,0.504 0.41067,0.31733 0.80267,0.84 l 10.64,12.67467 h -3.136 q -0.35467,0 -0.616,-0.0373 -0.24267,-0.056 -0.42933,-0.14934 -0.18667,-0.112 -0.336,-0.24266 -0.13067,-0.14934 -0.26134,-0.336 l -9.22133,-10.62134 q -0.37333,-0.46667 -0.80267,-0.65333 -0.42933,-0.20534 -1.30666,-0.20534 h -1.64267 v 12.24534 h -3.60267 v -26.74934 h 3.60267 z"
           style="font-size:37.33333588px;fill:#138bff;fill-opacity:1"
           id="path1042" />
        <path
           d="m 151.67906,171.23278 -0.0187,2.94933 h -16.48266 v -26.74934 h 16.48266 v 2.94934 h -12.86133 v 8.88533 h 10.416 v 2.83733 h -10.416 v 9.12801 z"
           style="font-size:37.33333588px;fill:#138bff;fill-opacity:1"
           id="path1044" />
        <path
           d="m 85.836178,220.75011 q 0.405333,0 0.709333,0.32933 l 1.950667,2.10267 q -2.229333,2.584 -5.421334,4.028 -3.166666,1.444 -7.676,1.444 -3.901333,0 -7.093333,-1.34267 -3.192,-1.368 -5.446667,-3.8 -2.254667,-2.45733 -3.496,-5.87733 -1.241334,-3.42 -1.241334,-7.524 0,-4.104 1.292001,-7.524 1.292,-3.42 3.622666,-5.87734 2.356,-2.45733 5.624,-3.8 3.268,-1.368 7.220001,-1.368 3.876,0 6.84,1.24134 2.964,1.24133 5.218667,3.36933 l -1.621334,2.25467 q -0.152,0.25333 -0.405333,0.43066 -0.228,0.152 -0.633334,0.152 -0.456,0 -1.114666,-0.48133 -0.658667,-0.50667 -1.722667,-1.11467 -1.064,-0.608 -2.66,-1.08933 -1.596,-0.50667 -3.926667,-0.50667 -2.812,0 -5.142667,0.988 -2.330666,0.96267 -4.028,2.812 -1.672,1.84934 -2.609333,4.50934 -0.937333,2.66 -0.937333,6.004 0,3.39466 0.962666,6.05466 0.988,2.66 2.66,4.50934 1.697334,1.824 3.977334,2.78666 2.305333,0.96267 4.965333,0.96267 1.621334,0 2.913334,-0.17733 1.317333,-0.20267 2.406666,-0.608 1.114667,-0.40534 2.052,-1.01334 0.962667,-0.63333 1.9,-1.49466 0.430667,-0.38 0.861334,-0.38 z"
           style="font-style:normal;font-variant:normal;font-weight:normal;font-stretch:normal;font-size:50.66666794px;line-height:50px;font-family:Lato;-inkscape-font-specification:'Lato, Normal';font-variant-ligatures:normal;font-variant-caps:normal;font-variant-numeric:normal;font-feature-settings:normal;text-align:start;writing-mode:lr-tb;text-anchor:start;fill:#138bff;fill-opacity:1"
           id="path1046" />
        <path
           d="m 96.595928,228.24877 h -3.621334 v -26.74933 h 3.621334 z"
           style="font-size:37.33333588px;fill:#138bff;fill-opacity:1"
           id="path1048" />
        <path
           d="m 121.48968,204.54211 h -8.66133 v 23.70666 h -3.60267 v -23.70666 h -8.68 v -3.04267 h 20.944 z"
           style="font-size:37.33333588px;fill:#138bff;fill-opacity:1"
           id="path1050" />
        <path
           d="m 135.46518,217.59011 v 10.65866 h -3.62133 v -10.65866 l -9.8,-16.09067 h 3.17333 q 0.48534,0 0.76534,0.24267 0.28,0.224 0.48533,0.59733 l 6.12267,10.39733 q 0.336,0.65334 0.616,1.232 0.28,0.56 0.48533,1.13867 0.20533,-0.57867 0.46667,-1.13867 0.26133,-0.57866 0.57866,-1.232 l 6.104,-10.39733 q 0.168,-0.31733 0.46667,-0.57867 0.29867,-0.26133 0.76533,-0.26133 h 3.192 z"
           style="font-size:37.33333588px;fill:#138bff;fill-opacity:1"
           id="path1052" />
      </g>
      <path
         style="opacity:0.98999999;fill:#4a4a4a;fill-opacity:1;stroke:none;stroke-width:0.78973663;stroke-linecap:round;stroke-linejoin:round;stroke-miterlimit:4;stroke-dasharray:none;stroke-dashoffset:0;stroke-opacity:1"
         d="m 298.86841,-26.462587 h 0.83136 v 48.792259 h -0.83136 z"
         id="rect1180" />
    </g>
  </g>
</svg>
